STARTFONT 2.1
FONT -FontForge-Bebas Neue-Book-R-Normal--64-610-75-75-P-236-ISO10646-1
SIZE 61 75 75
FONTBOUNDINGBOX 65 72 -13 -13
COMMENT "Generated by fontforge, http://fontforge.sourceforge.net"
COMMENT "Copyright 2019 The Bebas Neue Project Authors (https://github.com/dharmatype/Bebas-Neue)"
STARTPROPERTIES 40
FOUNDRY "FontForge"
FAMILY_NAME "Bebas Neue"
WEIGHT_NAME "Book"
SLANT "R"
SETWIDTH_NAME "Normal"
ADD_STYLE_NAME ""
PIXEL_SIZE 64
POINT_SIZE 610
RESOLUTION_X 75
RESOLUTION_Y 75
SPACING "P"
AVERAGE_WIDTH 236
CHARSET_REGISTRY "ISO10646"
CHARSET_ENCODING "1"
FONTNAME_REGISTRY ""
CHARSET_COLLECTIONS "ISO8859-2 ISO8859-9 ISO8859-4 Symbol ISO10646-1"
FONT_NAME "BebasNeue-Regular"
FACE_NAME "Bebas Neue Regular"
COPYRIGHT "Copyright 2019 The Bebas Neue Project Authors (https://github.com/dharmatype/Bebas-Neue)"
FONT_VERSION "2.000"
FONT_ASCENT 51
FONT_DESCENT 13
UNDERLINE_POSITION -5
UNDERLINE_THICKNESS 6
X_HEIGHT 44
CAP_HEIGHT 44
RAW_ASCENT 800
RAW_DESCENT 200
NORM_SPACE 10
RELATIVE_WEIGHT 40
RELATIVE_SETWIDTH 50
SUPERSCRIPT_X 0
SUPERSCRIPT_Y 22
SUPERSCRIPT_SIZE 38
SUBSCRIPT_X 0
SUBSCRIPT_Y 4
SUBSCRIPT_SIZE 38
FIGURE_WIDTH 26
AVG_LOWERCASE_WIDTH 247
AVG_UPPERCASE_WIDTH 247
ENDPROPERTIES
CHARS 497
STARTCHAR nonmarkingreturn
ENCODING 13
SWIDTH 160 0
DWIDTH 10 0
BBX 1 1 0 0
BITMAP
00
ENDCHAR
STARTCHAR space
ENCODING 32
SWIDTH 160 0
DWIDTH 10 0
BBX 1 1 0 0
BITMAP
00
ENDCHAR
STARTCHAR exclam
ENCODING 33
SWIDTH 210 0
DWIDTH 13 0
BBX 7 45 3 0
BITMAP
FE
FE
FE
FE
FE
FE
FE
FE
FE
FE
FE
FE
FE
FE
FE
FE
FE
FE
FE
FE
FE
FE
FE
7E
7E
7E
7E
7E
7E
7E
7E
7C
7C
00
00
00
00
00
00
FE
FE
FE
FE
FE
FE
ENDCHAR
STARTCHAR quotedbl
ENCODING 34
SWIDTH 336 0
DWIDTH 22 0
BBX 17 15 2 30
BITMAP
FF3F80
7E3F80
7E3F80
7E3F80
7E3F80
7E1F00
7E1F00
7E1F00
7E1F00
7E1F00
3C1F00
3C1F00
3C1F00
3C1F00
3C1E00
ENDCHAR
STARTCHAR numbersign
ENCODING 35
SWIDTH 412 0
DWIDTH 26 0
BBX 24 45 1 0
BITMAP
03F07C
03F0FC
03F0FC
03F0FC
03F0FC
03E0FC
03E0F8
03E0F8
03E0F8
07E0F8
3FFFFF
3FFFFF
3FFFFF
3FFFFF
3FFFFF
07C1F8
07C1F0
07C1F0
07C1F0
0FC1F0
0FC3F0
0FC3F0
0FC3F0
0FC3F0
0FC3F0
0F83F0
0F83E0
FFFFFE
FFFFFC
FFFFFC
FFFFFC
FFFFFC
1F87E0
1F87E0
1F07E0
1F07E0
1F07C0
1F07C0
3F07C0
3F0FC0
3F0FC0
3F0FC0
3F0FC0
3F0FC0
3E0FC0
ENDCHAR
STARTCHAR dollar
ENCODING 36
SWIDTH 400 0
DWIDTH 26 0
BBX 21 52 2 -4
BITMAP
00FC00
00FC00
00FC00
00FC00
03FF00
0FFF80
1FFFE0
3FFFE0
3FFFF0
7FFFF0
7F87F8
7F03F8
7F03F8
FF01F8
FF01F8
7F01F8
7F0000
7F0000
7F8000
7FC000
3FE000
3FF000
1FF800
0FFC00
07FE00
03FF00
01FF80
00FFC0
007FE0
003FF0
001FF0
000FF0
0007F8
0003F8
FE03F8
FE03F8
FE03F8
FE03F8
FE03F8
7E03F8
7F07F8
7FFFF8
7FFFF0
3FFFF0
1FFFE0
0FFFC0
07FF00
00FC00
00FC00
00FC00
00FC00
00FC00
ENDCHAR
STARTCHAR percent
ENCODING 37
SWIDTH 589 0
DWIDTH 38 0
BBX 33 47 2 -1
BITMAP
0100000000
1FE001F000
3FF001E000
7FF803E000
7FF803C000
F87C03C000
F87C07C000
F87C078000
F87C0F8000
F87C0F8000
F87C0F0000
F87C1F0000
F87C1E0000
F87C3E0000
F87C3E0000
F87C3C0000
F87C7C0000
F87C780000
F87C780000
F87CF80000
F87CF00000
7C79F0FC00
7FF9E3FE00
7FF9E7FF00
3FF3E7FF80
0FC3CF8F80
0007CF8780
0007CF0780
00078F0780
000F8F0780
000F0F0780
000F0F0780
001F0F0780
001E0F0780
003E0F0780
003C0F0780
003C0F0780
007C0F0780
00780F0780
00F80F0780
00F80F0780
00F00F8780
01F00FFF80
01E007FF80
03E007FF00
03E001FE00
0000002000
ENDCHAR
STARTCHAR ampersand
ENCODING 38
SWIDTH 417 0
DWIDTH 27 0
BBX 23 46 2 -1
BITMAP
01FFE0
07FFE0
1FFFE0
1FFFE0
3FFFE0
7FFFE0
7FE000
7F0000
7F0000
7F0000
FF0000
FF0000
7F0000
7F01F8
7F01F8
7F01F8
7F01F8
3F81F8
3FFFFE
1FFFFE
0FFFFE
0FFFFE
1FFFFE
3FFFFE
7FF1F8
7F81F8
7F01F8
FF01F8
FE01F8
FE01F8
FE01F8
FE01F8
FE01F8
FE01F8
FE01F8
FE03F8
FE03F8
FF03F8
FF87F8
7FFFF8
7FFFF8
7FFDF8
3FFDFC
1FF9FC
0FF1FC
010000
ENDCHAR
STARTCHAR quotesingle
ENCODING 39
SWIDTH 188 0
DWIDTH 12 0
BBX 8 15 2 30
BITMAP
FF
7E
7E
7E
7E
7E
7E
7E
7E
7E
3C
3C
3C
3C
3C
ENDCHAR
STARTCHAR parenleft
ENCODING 40
SWIDTH 276 0
DWIDTH 18 0
BBX 12 52 3 -3
BITMAP
03F0
0FF0
3FF0
3FF0
7FF0
7FF0
7F80
7F00
FF00
FE00
FE00
FE00
FE00
FE00
FE00
FE00
FE00
FE00
FE00
FE00
FE00
FE00
FE00
FE00
FE00
FE00
FE00
FE00
FE00
FE00
FE00
FE00
FE00
FE00
FE00
FE00
FE00
FE00
FE00
FE00
FE00
FE00
FE00
FF00
7F00
7F80
7FF0
7FF0
3FF0
3FF0
0FF0
03F0
ENDCHAR
STARTCHAR parenright
ENCODING 41
SWIDTH 276 0
DWIDTH 18 0
BBX 12 52 2 -3
BITMAP
FE00
FF80
FFC0
FFE0
FFE0
FFF0
0FF0
07F0
07F0
07F0
07F0
07F0
07F0
07F0
07F0
07F0
07F0
07F0
07F0
07F0
07F0
07F0
07F0
07F0
07F0
07F0
07F0
07F0
07F0
07F0
07F0
07F0
07F0
07F0
07F0
07F0
07F0
07F0
07F0
07F0
07F0
07F0
07F0
07F0
07F0
0FF0
FFF0
FFE0
FFE0
FFC0
FF80
FE00
ENDCHAR
STARTCHAR asterisk
ENCODING 42
SWIDTH 422 0
DWIDTH 27 0
BBX 25 24 1 21
BITMAP
003E0000
003E0000
003E0000
003E0000
003E0000
003E0000
203E0200
781C0F00
7E1C3F00
7F9CFF00
FFFFFF80
7FFFFF00
07FFF000
003E0000
007F0000
00F78000
01F7C000
03E3E000
07E3F000
0FC1F800
1FC1FC00
0F80F800
0780F000
01004000
ENDCHAR
STARTCHAR plus
ENCODING 43
SWIDTH 400 0
DWIDTH 26 0
BBX 22 23 2 11
BITMAP
00F800
00F800
00F800
00F800
00F800
00F800
00F800
00F800
00F800
FFFFFC
FFFFFC
FFFFFC
FFFFFC
FFFFFC
00F800
00F800
00F800
00F800
00F800
00F800
00F800
00F800
00F800
ENDCHAR
STARTCHAR comma
ENCODING 44
SWIDTH 188 0
DWIDTH 12 0
BBX 6 14 3 -8
BITMAP
FC
FC
FC
FC
FC
FC
3C
7C
78
78
70
F0
F0
E0
ENDCHAR
STARTCHAR hyphen
ENCODING 45
SWIDTH 270 0
DWIDTH 17 0
BBX 14 6 2 19
BITMAP
FFFC
FFFC
FFFC
FFFC
FFFC
FFFC
ENDCHAR
STARTCHAR period
ENCODING 46
SWIDTH 188 0
DWIDTH 12 0
BBX 6 6 3 0
BITMAP
FC
FC
FC
FC
FC
FC
ENDCHAR
STARTCHAR slash
ENCODING 47
SWIDTH 389 0
DWIDTH 25 0
BBX 23 45 1 0
BITMAP
00007E
00007E
0000FC
0000FC
0001FC
0001F8
0001F8
0003F0
0003F0
0007F0
0007E0
0007E0
000FC0
000FC0
000FC0
001F80
001F80
003F00
003F00
003F00
007E00
007E00
00FC00
00FC00
00FC00
01F800
01F800
03F800
03F000
03F000
07E000
07E000
0FE000
0FC000
0FC000
1F8000
1F8000
1F8000
3F0000
3F0000
7E0000
7E0000
7E0000
FC0000
FC0000
ENDCHAR
STARTCHAR zero
ENCODING 48
SWIDTH 400 0
DWIDTH 26 0
BBX 21 47 2 -1
BITMAP
002000
03FF00
0FFFC0
1FFFE0
3FFFF0
7FFFF0
7FFFF8
7F87F8
FF03F8
FE03F8
FE03F8
FE03F8
FE03F8
FE03F8
FE03F8
FE03F8
FE03F8
FE03F8
FE03F8
FE03F8
FE03F8
FE03F8
FE03F8
FE03F8
FE03F8
FE03F8
FE03F8
FE03F8
FE03F8
FE03F8
FE03F8
FE03F8
FE03F8
FE03F8
FE03F8
FE03F8
FE03F8
FE03F8
FF03F8
7F87F8
7FFFF8
7FFFF0
3FFFF0
1FFFE0
0FFFC0
03FF00
002000
ENDCHAR
STARTCHAR one
ENCODING 49
SWIDTH 400 0
DWIDTH 26 0
BBX 15 45 5 0
BITMAP
003E
007E
00FE
01FE
07FE
FFFE
FFFE
FFFE
FFFE
FFFE
01FE
01FE
01FE
01FE
01FE
01FE
01FE
01FE
01FE
01FE
01FE
01FE
01FE
01FE
01FE
01FE
01FE
01FE
01FE
01FE
01FE
01FE
01FE
01FE
01FE
01FE
01FE
01FE
01FE
01FE
01FE
01FE
01FE
01FE
01FE
ENDCHAR
STARTCHAR two
ENCODING 50
SWIDTH 400 0
DWIDTH 26 0
BBX 21 46 2 0
BITMAP
002000
03FF00
0FFFC0
1FFFE0
3FFFF0
3FFFF0
7FFFF8
7F87F8
7F03F8
7E03F8
7E03F8
FE03F8
FE03F8
FE03F8
FE03F8
FE03F8
0003F8
0007F0
0007F0
000FF0
000FE0
001FE0
003FC0
007F80
00FF00
01FF00
03FE00
03FC00
07F800
0FF000
1FE000
1FC000
3FC000
3F8000
7F0000
7F0000
7F0000
7F0000
7E0000
7E0000
FFFFF8
FFFFF8
FFFFF8
FFFFF8
FFFFF8
FFFFF8
ENDCHAR
STARTCHAR three
ENCODING 51
SWIDTH 400 0
DWIDTH 26 0
BBX 21 47 2 -1
BITMAP
002000
03FF00
0FFF80
1FFFC0
3FFFE0
7FFFF0
7FFFF0
7F0FF0
7E07F8
FE03F8
FE03F8
FE03F8
FE03F8
FE03F8
0003F8
0003F8
0003F8
0007F0
000FF0
01FFE0
01FFC0
01FF80
01FF80
01FFC0
01FFE0
007FF0
0007F0
0007F8
0003F8
0003F8
0003F8
0003F8
FE03F8
FE03F8
FE03F8
FE03F8
FE03F8
FE03F8
FE07F8
7F0FF8
7FFFF0
7FFFF0
3FFFE0
1FFFE0
0FFF80
07FF00
002000
ENDCHAR
STARTCHAR four
ENCODING 52
SWIDTH 400 0
DWIDTH 26 0
BBX 24 45 1 0
BITMAP
0007F0
000FF0
000FF0
001FF0
001FF0
003FF0
003FF0
003FF0
007FF0
007FF0
00FFF0
00FFF0
01FFF0
01FFF0
01FFF0
03F7F0
03F7F0
07F7F0
07E7F0
07E7F0
0FC7F0
0FC7F0
1FC7F0
1F87F0
3F87F0
3F07F0
3F07F0
7F07F0
7E07F0
FE07F0
FC07F0
FFFFFF
FFFFFF
FFFFFF
FFFFFF
FFFFFF
FFFFFF
0007F0
0007F0
0007F0
0007F0
0007F0
0007F0
0007F0
0007F0
ENDCHAR
STARTCHAR five
ENCODING 53
SWIDTH 400 0
DWIDTH 26 0
BBX 21 46 2 -1
BITMAP
3FFFF0
3FFFF0
3FFFF0
3FFFF0
7FFFF0
7FFFF0
7F0000
7F0000
7F0000
7F0000
7F0000
7F0000
7F0000
7F0000
7F3FC0
7E7FE0
7EFFF0
7FFFF0
7FFFF8
7FFFF8
7F87F8
7F03F8
7E03F8
FE03F8
FE03F8
0003F8
0003F8
0003F8
0003F8
0003F8
0003F8
FE03F8
FE03F8
FE03F8
FE03F8
FE03F8
7E03F8
7F03F8
7F87F8
7FFFF8
3FFFF0
3FFFF0
1FFFE0
0FFFC0
03FF00
003000
ENDCHAR
STARTCHAR six
ENCODING 54
SWIDTH 400 0
DWIDTH 26 0
BBX 22 47 2 -1
BITMAP
001000
03FF00
0FFFC0
1FFFE0
3FFFF0
3FFFF0
7FFFF8
7F87F8
7F03F8
FF01F8
FE01FC
FE01FC
FE0000
FE0000
FE0000
FE0000
FE0000
FE3FC0
FE7FE0
FEFFF0
FFFFF0
FFFFF8
FFFFF8
FF87F8
FF03FC
FF03FC
FE01FC
FE01FC
FE01FC
FE01FC
FE01FC
FE01FC
FE01FC
FE01FC
FE01FC
FE01FC
FE01FC
FF03FC
7F03F8
7F87F8
7FFFF8
3FFFF0
3FFFF0
1FFFE0
0FFFC0
03FF00
003000
ENDCHAR
STARTCHAR seven
ENCODING 55
SWIDTH 400 0
DWIDTH 26 0
BBX 21 45 2 0
BITMAP
FFFFF8
FFFFF8
FFFFF8
FFFFF8
FFFFF8
FFFFF8
0003F8
0003F8
0003F8
0007F0
0007F0
0007F0
0007F0
000FE0
000FE0
000FE0
001FC0
001FC0
001FC0
001FC0
003F80
003F80
003F80
007F00
007F00
007F00
007F00
00FE00
00FE00
00FE00
01FC00
01FC00
01FC00
03FC00
03F800
03F800
03F800
07F000
07F000
07F000
0FF000
0FE000
0FE000
0FE000
1FC000
ENDCHAR
STARTCHAR eight
ENCODING 56
SWIDTH 400 0
DWIDTH 26 0
BBX 22 47 2 -1
BITMAP
002000
07FF00
0FFFC0
1FFFE0
3FFFF0
7FFFF0
7FFFF8
FF87F8
FF03F8
FE03F8
FE03FC
FE01FC
FE01FC
FE01FC
FE01F8
FE03F8
FE03F8
7F03F8
7F87F8
3FFFF0
3FFFE0
0FFFC0
0FFFC0
3FFFE0
3FFFF0
7FFFF8
7F03F8
FE03F8
FE01FC
FE01FC
FE01FC
FE01FC
FE01FC
FE01FC
FE01FC
FE01FC
FE01FC
FE03FC
FF03FC
FF87F8
7FFFF8
7FFFF0
3FFFF0
1FFFE0
0FFFC0
07FF00
002000
ENDCHAR
STARTCHAR nine
ENCODING 57
SWIDTH 400 0
DWIDTH 26 0
BBX 21 47 2 -1
BITMAP
002000
07FF00
0FFFC0
1FFFE0
3FFFE0
7FFFF0
7FFFF0
FF87F8
FF03F8
FE03F8
FE03F8
FE03F8
FE03F8
FE03F8
FE03F8
FE03F8
FE03F8
FE03F8
FE03F8
FE03F8
FE03F8
FE03F8
FF07F8
FFFFF8
FFFFF8
7FFFF8
7FFFF8
3FFBF8
1FF3F8
07E3F8
0003F8
0003F8
0003F8
0003F8
FE03F8
FE03F8
FE03F8
FE03F8
FE03F8
7F0FF8
7FFFF0
7FFFF0
3FFFE0
1FFFE0
0FFFC0
07FF00
002000
ENDCHAR
STARTCHAR colon
ENCODING 58
SWIDTH 188 0
DWIDTH 12 0
BBX 6 31 3 0
BITMAP
FC
FC
FC
FC
FC
FC
00
00
00
00
00
00
00
00
00
00
00
00
00
00
00
00
00
00
00
FC
FC
FC
FC
FC
FC
ENDCHAR
STARTCHAR semicolon
ENCODING 59
SWIDTH 188 0
DWIDTH 12 0
BBX 7 39 2 -8
BITMAP
7E
7E
7E
7E
7E
7E
00
00
00
00
00
00
00
00
00
00
00
00
00
00
00
00
00
00
00
7E
7E
7E
7E
7E
7E
1E
3C
3C
3C
78
78
70
F0
ENDCHAR
STARTCHAR less
ENCODING 60
SWIDTH 400 0
DWIDTH 26 0
BBX 19 21 3 12
BITMAP
000060
0001E0
0007E0
001FE0
00FFE0
03FFC0
0FFE00
7FF800
FFE000
FF0000
FC0000
FF0000
FFC000
7FF000
1FFE00
07FF80
00FFE0
003FE0
000FE0
0001E0
000060
ENDCHAR
STARTCHAR equal
ENCODING 61
SWIDTH 400 0
DWIDTH 26 0
BBX 21 16 2 15
BITMAP
FFFFF8
FFFFF8
FFFFF8
FFFFF8
FFFFF8
000000
000000
000000
000000
000000
000000
FFFFF8
FFFFF8
FFFFF8
FFFFF8
FFFFF8
ENDCHAR
STARTCHAR greater
ENCODING 62
SWIDTH 400 0
DWIDTH 26 0
BBX 20 21 3 12
BITMAP
C00000
F00000
FE0000
FF8000
FFE000
3FFC00
0FFF00
01FFC0
007FF0
001FF0
0003F0
000FF0
007FF0
01FFE0
07FF80
3FFC00
FFF000
FFC000
FE0000
F80000
E00000
ENDCHAR
STARTCHAR question
ENCODING 63
SWIDTH 363 0
DWIDTH 23 0
BBX 21 46 1 0
BITMAP
002000
07FF00
0FFF80
1FFFC0
3FFFE0
7FFFF0
7FFFF0
7F0FF0
FE07F8
FE03F8
FE03F8
FE03F8
FE03F8
FE03F8
FE03F8
FE07F8
0007F0
0007F0
000FE0
000FE0
001FC0
003FC0
003F80
007F00
00FF00
00FE00
01FC00
01FC00
01F800
01F800
01F800
03F800
03F800
03F800
000000
000000
000000
000000
000000
000000
03F800
03F800
03F800
03F800
03F800
03F800
ENDCHAR
STARTCHAR at
ENCODING 64
SWIDTH 696 0
DWIDTH 45 0
BBX 41 52 2 -4
BITMAP
00003FF00000
0001FFFF0000
000FFFFFC000
001FFFFFE000
007FFFFFF000
00FFFFFFF800
01FFE01FFC00
03FF0003FC00
03FC0001FE00
07F80000FE00
0FF000007F00
0FE000003F00
1FC000003F00
1F807C7E1F00
3F81FE7E1F80
3F03FF7E1F80
7F07FF7E1F80
7F07FFFE0F80
7E0FFFFE0F80
7E0FFFFE0F80
FE0FE0FC0F80
FC0FC0FC0F80
FC0FC0FC0F80
FC0FC0FC1F80
FC1FC0FC1F80
FC1FC0FC1F80
FC1F80FC1F00
FC1F80FC1F00
FC1F80FC1F00
FC1F81FC3F00
FC1F81F83E00
FC1F81F87E00
FC1FC3F87E00
FC1FFFFFFC00
FC1FFFFFF800
FC1FFFFFF800
FC0FFDFFF000
FE0FFCFFE000
7E07F0FF8000
7E00003E0000
7F0000000000
3F8000000000
3F8000000000
1FC000004000
0FE00001C000
0FF80007C000
07FF003F8000
03FFFFFF8000
01FFFFFF8000
007FFFFF0000
001FFFF80000
0003FFC00000
ENDCHAR
STARTCHAR A
ENCODING 65
SWIDTH 401 0
DWIDTH 26 0
BBX 24 45 1 0
BITMAP
01FF80
01FF80
01FF80
03FF80
03FF80
03FF80
03FFC0
03FFC0
03EFC0
03EFC0
07EFC0
07EFC0
07EFE0
07EFE0
07E7E0
07C7E0
0FC7E0
0FC7E0
0FC7F0
0FC7F0
0FC7F0
0FC3F0
1F83F0
1F83F0
1F83F8
1F83F8
1F83F8
1F83F8
3F81F8
3F01F8
3FFFFC
3FFFFC
3FFFFC
3FFFFC
7FFFFC
7FFFFC
7F00FE
7E00FE
7E00FE
7E00FE
FE00FE
FE00FE
FE00FE
FE007F
FC007F
ENDCHAR
STARTCHAR B
ENCODING 66
SWIDTH 404 0
DWIDTH 26 0
BBX 21 45 3 0
BITMAP
FFFC00
FFFF80
FFFFC0
FFFFE0
FFFFF0
FFFFF0
FE3FF0
FE07F0
FE07F8
FE03F8
FE03F8
FE03F8
FE03F8
FE03F8
FE03F8
FE07F0
FE07F0
FE0FF0
FFFFE0
FFFFC0
FFFF80
FFFFC0
FFFFE0
FFFFF0
FE3FF0
FE07F8
FE03F8
FE03F8
FE03F8
FE03F8
FE03F8
FE03F8
FE03F8
FE03F8
FE03F8
FE03F8
FE03F8
FE07F8
FE1FF8
FFFFF0
FFFFF0
FFFFE0
FFFFC0
FFFF80
FFFE00
ENDCHAR
STARTCHAR C
ENCODING 67
SWIDTH 383 0
DWIDTH 25 0
BBX 21 47 2 -1
BITMAP
002000
07FF00
0FFF80
1FFFC0
3FFFE0
7FFFF0
7FFFF0
7F87F0
FF03F8
FE03F8
FE03F8
FE03F8
FE03F8
FE03F8
FE03F8
FE03F8
FE0000
FE0000
FE0000
FE0000
FE0000
FE0000
FE0000
FE0000
FE0000
FE0000
FE0000
FE0000
FE0000
FE03F8
FE03F8
FE03F8
FE03F8
FE03F8
FE03F8
FE03F8
FE03F8
FE03F8
FF03F8
7F87F0
7FFFF0
7FFFF0
3FFFE0
1FFFC0
0FFF80
07FF00
002000
ENDCHAR
STARTCHAR D
ENCODING 68
SWIDTH 406 0
DWIDTH 26 0
BBX 21 45 3 0
BITMAP
FFFC00
FFFF80
FFFFC0
FFFFE0
FFFFE0
FFFFF0
FE3FF0
FE07F8
FE07F8
FE03F8
FE03F8
FE03F8
FE03F8
FE03F8
FE03F8
FE03F8
FE03F8
FE03F8
FE03F8
FE03F8
FE03F8
FE03F8
FE03F8
FE03F8
FE03F8
FE03F8
FE03F8
FE03F8
FE03F8
FE03F8
FE03F8
FE03F8
FE03F8
FE03F8
FE03F8
FE03F8
FE07F8
FE07F8
FE3FF0
FFFFF0
FFFFE0
FFFFE0
FFFFC0
FFFF80
FFFC00
ENDCHAR
STARTCHAR E
ENCODING 69
SWIDTH 363 0
DWIDTH 23 0
BBX 19 45 3 0
BITMAP
FFFFE0
FFFFE0
FFFFE0
FFFFE0
FFFFE0
FFFFE0
FE0000
FE0000
FE0000
FE0000
FE0000
FE0000
FE0000
FE0000
FE0000
FE0000
FE0000
FE0000
FFFF00
FFFF00
FFFF00
FFFF00
FFFF00
FFFF00
FE0000
FE0000
FE0000
FE0000
FE0000
FE0000
FE0000
FE0000
FE0000
FE0000
FE0000
FE0000
FE0000
FE0000
FE0000
FFFFE0
FFFFE0
FFFFE0
FFFFE0
FFFFE0
FFFFE0
ENDCHAR
STARTCHAR F
ENCODING 70
SWIDTH 344 0
DWIDTH 22 0
BBX 18 45 3 0
BITMAP
FFFFC0
FFFFC0
FFFFC0
FFFFC0
FFFFC0
FFFFC0
FE0000
FE0000
FE0000
FE0000
FE0000
FE0000
FE0000
FE0000
FE0000
FE0000
FE0000
FE0000
FE0000
FFFF00
FFFF00
FFFF00
FFFF00
FFFF00
FFFF00
FE0000
FE0000
FE0000
FE0000
FE0000
FE0000
FE0000
FE0000
FE0000
FE0000
FE0000
FE0000
FE0000
FE0000
FE0000
FE0000
FE0000
FE0000
FE0000
FE0000
ENDCHAR
STARTCHAR G
ENCODING 71
SWIDTH 391 0
DWIDTH 25 0
BBX 21 47 2 -1
BITMAP
002000
07FF00
0FFF80
1FFFE0
3FFFE0
7FFFF0
7FFFF0
7F87F8
FF03F8
FE03F8
FE03F8
FE03F8
FE03F8
FE03F8
FE03F8
FE03F8
FE0000
FE0000
FE0000
FE0000
FE0000
FE1FF8
FE1FF8
FE1FF8
FE1FF8
FE1FF8
FE1FF8
FE03F8
FE03F8
FE03F8
FE03F8
FE03F8
FE03F8
FE03F8
FE03F8
FE03F8
FE03F8
FE03F8
FF03F8
7F87F8
7FFFF0
7FFFF0
3FFFE0
1FFFC0
0FFF80
07FF00
002000
ENDCHAR
STARTCHAR H
ENCODING 72
SWIDTH 420 0
DWIDTH 27 0
BBX 21 45 3 0
BITMAP
FE03F8
FE03F8
FE03F8
FE03F8
FE03F8
FE03F8
FE03F8
FE03F8
FE03F8
FE03F8
FE03F8
FE03F8
FE03F8
FE03F8
FE03F8
FE03F8
FE03F8
FE03F8
FFFFF8
FFFFF8
FFFFF8
FFFFF8
FFFFF8
FFFFF8
FE03F8
FE03F8
FE03F8
FE03F8
FE03F8
FE03F8
FE03F8
FE03F8
FE03F8
FE03F8
FE03F8
FE03F8
FE03F8
FE03F8
FE03F8
FE03F8
FE03F8
FE03F8
FE03F8
FE03F8
FE03F8
ENDCHAR
STARTCHAR I
ENCODING 73
SWIDTH 192 0
DWIDTH 12 0
BBX 7 45 3 0
BITMAP
FE
FE
FE
FE
FE
FE
FE
FE
FE
FE
FE
FE
FE
FE
FE
FE
FE
FE
FE
FE
FE
FE
FE
FE
FE
FE
FE
FE
FE
FE
FE
FE
FE
FE
FE
FE
FE
FE
FE
FE
FE
FE
FE
FE
FE
ENDCHAR
STARTCHAR J
ENCODING 74
SWIDTH 265 0
DWIDTH 17 0
BBX 14 45 1 0
BITMAP
03FC
03FC
03FC
03FC
03FC
03FC
03FC
03FC
03FC
03FC
03FC
03FC
03FC
03FC
03FC
03FC
03FC
03FC
03FC
03FC
03FC
03FC
03FC
03FC
03FC
03FC
03FC
03FC
03FC
03FC
03FC
03FC
03FC
03FC
03FC
03F8
03F8
07F8
FFF8
FFF8
FFF0
FFF0
FFE0
FFC0
FE00
ENDCHAR
STARTCHAR K
ENCODING 75
SWIDTH 414 0
DWIDTH 27 0
BBX 23 45 3 0
BITMAP
FE01FE
FE01FC
FE03F8
FE03F8
FE03F0
FE07F0
FE07E0
FE0FE0
FE0FC0
FE1FC0
FE1F80
FE3F80
FE3F00
FE7F00
FE7E00
FEFE00
FEFC00
FFFE00
FFFE00
FFFE00
FFFE00
FFFF00
FFFF00
FFFF00
FFFF80
FFBF80
FFBF80
FF3FC0
FF3FC0
FE1FC0
FE1FC0
FE1FE0
FE0FE0
FE0FE0
FE0FF0
FE07F0
FE07F0
FE07F8
FE07F8
FE03F8
FE03F8
FE03FC
FE01FC
FE01FC
FE01FE
ENDCHAR
STARTCHAR L
ENCODING 76
SWIDTH 344 0
DWIDTH 22 0
BBX 18 45 3 0
BITMAP
FE0000
FE0000
FE0000
FE0000
FE0000
FE0000
FE0000
FE0000
FE0000
FE0000
FE0000
FE0000
FE0000
FE0000
FE0000
FE0000
FE0000
FE0000
FE0000
FE0000
FE0000
FE0000
FE0000
FE0000
FE0000
FE0000
FE0000
FE0000
FE0000
FE0000
FE0000
FE0000
FE0000
FE0000
FE0000
FE0000
FE0000
FE0000
FE0000
FFFFC0
FFFFC0
FFFFC0
FFFFC0
FFFFC0
FFFFC0
ENDCHAR
STARTCHAR M
ENCODING 77
SWIDTH 538 0
DWIDTH 34 0
BBX 29 45 3 0
BITMAP
FFC01FF8
FFC01FF8
FFC03FF8
FFC03FF8
FFC03FF8
FFC03FF8
FFE03FF8
FFE03FF8
FFE03FF8
FFE07FF8
FFE07FF8
FFE07FF8
FFE07FF8
FFF07FF8
FFF07FF8
FDF07BF8
FDF0FBF8
FDF0FBF8
FDF0FBF8
FDF0FBF8
FDF8FBF8
FDF8F3F8
FCF8F3F8
FCF9F3F8
FCF9F3F8
FCF9F3F8
FCF9F3F8
FCF9F3F8
FC7DE3F8
FC7DE3F8
FC7DE3F8
FC7FE3F8
FC7FE3F8
FC7FE3F8
FC7FE3F8
FC3FC3F8
FC3FC3F8
FC3FC3F8
FC3FC3F8
FC3FC3F8
FC3FC3F8
FC3F83F8
FC1F83F8
FC1F83F8
FC1F83F8
ENDCHAR
STARTCHAR N
ENCODING 78
SWIDTH 427 0
DWIDTH 27 0
BBX 22 45 3 0
BITMAP
FF81FC
FF81FC
FF81FC
FF81FC
FFC1FC
FFC1FC
FFC1FC
FFC1FC
FFE1FC
FFE1FC
FFE1FC
FFE1FC
FFF1FC
FFF1FC
FDF1FC
FDF1FC
FDF9FC
FDF9FC
FCF9FC
FCF9FC
FCFDFC
FCFDFC
FC7DFC
FC7DFC
FC7FFC
FC7FFC
FC3FFC
FC3FFC
FC3FFC
FC3FFC
FC1FFC
FC1FFC
FC1FFC
FC1FFC
FC0FFC
FC0FFC
FC0FFC
FC07FC
FC07FC
FC07FC
FC07FC
FC03FC
FC03FC
FC03FC
FC03FC
ENDCHAR
STARTCHAR O
ENCODING 79
SWIDTH 400 0
DWIDTH 26 0
BBX 21 47 2 -1
BITMAP
002000
03FF00
0FFFC0
1FFFE0
3FFFF0
7FFFF0
7FFFF8
7F87F8
FF03F8
FE03F8
FE03F8
FE03F8
FE03F8
FE03F8
FE03F8
FE03F8
FE03F8
FE03F8
FE03F8
FE03F8
FE03F8
FE03F8
FE03F8
FE03F8
FE03F8
FE03F8
FE03F8
FE03F8
FE03F8
FE03F8
FE03F8
FE03F8
FE03F8
FE03F8
FE03F8
FE03F8
FE03F8
FE03F8
FF03F8
7F87F8
7FFFF8
7FFFF0
3FFFF0
1FFFE0
0FFFC0
03FF00
002000
ENDCHAR
STARTCHAR P
ENCODING 80
SWIDTH 386 0
DWIDTH 25 0
BBX 20 45 3 0
BITMAP
FFFC00
FFFF00
FFFFC0
FFFFC0
FFFFE0
FFFFF0
FE3FF0
FE07F0
FE07F0
FE07F0
FE07F0
FE07F0
FE07F0
FE07F0
FE07F0
FE07F0
FE07F0
FE07F0
FE07F0
FE0FF0
FFFFF0
FFFFE0
FFFFE0
FFFFC0
FFFF80
FFFE00
FE0000
FE0000
FE0000
FE0000
FE0000
FE0000
FE0000
FE0000
FE0000
FE0000
FE0000
FE0000
FE0000
FE0000
FE0000
FE0000
FE0000
FE0000
FE0000
ENDCHAR
STARTCHAR Q
ENCODING 81
SWIDTH 400 0
DWIDTH 26 0
BBX 23 50 2 -4
BITMAP
002000
03FF00
0FFFC0
1FFFE0
3FFFF0
7FFFF0
7FFFF8
7F87F8
FF03F8
FE03F8
FE03F8
FE03F8
FE03F8
FE03F8
FE03F8
FE03F8
FE03F8
FE03F8
FE03F8
FE03F8
FE03F8
FE03F8
FE03F8
FE03F8
FE03F8
FE03F8
FE03F8
FE03F8
FE03F8
FE03F8
FE03F8
FE03F8
FE03F8
FE03F8
FE03F8
FE03F8
FE03F8
FE03F8
FF03F8
7F87F8
7FFFF8
7FFFF0
3FFFF0
1FFFFC
0FFFFE
03FFFE
0020FE
0000FE
00007E
00003E
ENDCHAR
STARTCHAR R
ENCODING 82
SWIDTH 403 0
DWIDTH 26 0
BBX 21 45 3 0
BITMAP
FFFC00
FFFF80
FFFFC0
FFFFE0
FFFFE0
FFFFF0
FE3FF0
FE07F0
FE07F0
FE07F0
FE07F0
FE07F0
FE07F0
FE07F0
FE07F0
FE07F0
FE07F0
FE07F0
FE0FE0
FFFFE0
FFFFC0
FFFF00
FFFF80
FFFFE0
FFFFE0
FE7FF0
FE0FF0
FE07F0
FE07F0
FE07F0
FE07F8
FE03F8
FE03F8
FE03F8
FE03F8
FE03F8
FE03F8
FE03F8
FE03F8
FE03F8
FE03F8
FE03F8
FE03F8
FE03F8
FE03F8
ENDCHAR
STARTCHAR S
ENCODING 83
SWIDTH 372 0
DWIDTH 24 0
BBX 21 47 1 -1
BITMAP
001000
03FF00
0FFFC0
1FFFE0
3FFFE0
3FFFF0
7FFFF0
7F87F8
7F03F8
7F03F8
7F01F8
7F01F8
7F01F8
7F01F8
7F0000
7F8000
7F8000
3FC000
3FE000
1FF000
1FF800
0FFC00
07FE00
03FF00
01FF80
00FFC0
007FE0
003FF0
001FF0
000FF0
0007F8
0003F8
0003F8
FE03F8
FE03F8
FE03F8
FE03F8
7E03F8
7F03F8
7F87F8
7FFFF8
3FFFF0
3FFFF0
1FFFE0
0FFFC0
03FF00
002000
ENDCHAR
STARTCHAR T
ENCODING 84
SWIDTH 364 0
DWIDTH 23 0
BBX 22 45 1 0
BITMAP
FFFFFC
FFFFFC
FFFFFC
FFFFFC
FFFFFC
FFFFFC
01FC00
01FC00
01FC00
01FC00
01FC00
01FC00
01FC00
01FC00
01FC00
01FC00
01FC00
01FC00
01FC00
01FC00
01FC00
01FC00
01FC00
01FC00
01FC00
01FC00
01FC00
01FC00
01FC00
01FC00
01FC00
01FC00
01FC00
01FC00
01FC00
01FC00
01FC00
01FC00
01FC00
01FC00
01FC00
01FC00
01FC00
01FC00
01FC00
ENDCHAR
STARTCHAR U
ENCODING 85
SWIDTH 402 0
DWIDTH 26 0
BBX 21 46 2 -1
BITMAP
FE01F8
FE01F8
FE01F8
FE01F8
FE01F8
FE01F8
FE01F8
FE01F8
FE01F8
FE01F8
FE01F8
FE01F8
FE01F8
FE01F8
FE01F8
FE01F8
FE01F8
FE01F8
FE01F8
FE01F8
FE01F8
FE01F8
FE01F8
FE01F8
FE01F8
FE01F8
FE01F8
FE01F8
FE01F8
FE01F8
FE01F8
FE01F8
FE01F8
FE01F8
FE01F8
FE01F8
FF03F8
7F03F8
7F87F8
7FFFF8
3FFFF0
3FFFF0
1FFFE0
0FFFC0
03FF00
003000
ENDCHAR
STARTCHAR V
ENCODING 86
SWIDTH 382 0
DWIDTH 24 0
BBX 23 45 1 0
BITMAP
FE00FE
FE00FC
FE00FC
FE00FC
FE00FC
7F01FC
7F01FC
7F01FC
7F01F8
7F01F8
7F01F8
7F01F8
3F81F8
3F83F8
3F83F8
3F83F0
3F83F0
3F83F0
1F83F0
1F83F0
1FC3F0
1FC7E0
1FC7E0
1FC7E0
1FC7E0
0FC7E0
0FC7E0
0FC7E0
0FEFC0
0FEFC0
0FEFC0
07EFC0
07EFC0
07EFC0
07EF80
07FF80
07FF80
07FF80
03FF80
03FF80
03FF80
03FF00
03FF00
03FF00
03FF00
ENDCHAR
STARTCHAR W
ENCODING 87
SWIDTH 557 0
DWIDTH 36 0
BBX 34 45 1 0
BITMAP
FE07F80FC0
FE07F81FC0
FE07F81F80
FE07F81F80
FE07F81F80
7E07FC1F80
7E07FC1F80
7E07FC1F80
7F07FC1F80
7F0FFC1F80
7F0FFC1F80
7F0FFC1F80
7F0FFC3F00
7F0FFC3F00
7F0FFC3F00
3F0FFE3F00
3F0FFE3F00
3F0FFE3F00
3F0FBE3F00
3F9FBE3F00
3F9F3E3F00
3F9F3E3F00
3F9F3E3E00
3F9F3E7E00
3F9F3E7E00
1F9F3E7E00
1F9F3F7E00
1F9F1F7E00
1F9F1F7E00
1FBF1F7E00
1FFE1F7E00
1FFE1F7E00
1FFE1F7C00
1FFE1F7C00
1FFE1FFC00
0FFE1FFC00
0FFE1FFC00
0FFE0FFC00
0FFE0FFC00
0FFC0FFC00
0FFC0FFC00
0FFC0FFC00
0FFC0FF800
0FFC0FF800
0FFC0FF800
ENDCHAR
STARTCHAR X
ENCODING 88
SWIDTH 406 0
DWIDTH 26 0
BBX 24 45 1 0
BITMAP
FF007F
7F007E
7F00FE
7F80FE
3F80FC
3F81FC
3FC1FC
1FC1F8
1FC3F8
1FE3F8
0FE3F0
0FE7F0
0FF7F0
07F7E0
07FFE0
03FFE0
03FFC0
03FFC0
01FF80
01FF80
01FF80
00FF00
00FF00
01FF80
01FF80
01FF80
03FFC0
03FFC0
03FFC0
07FFE0
07EFE0
0FEFE0
0FE7F0
0FC7F0
1FC7F8
1FC3F8
1F83F8
3F83FC
3F81FC
3F01FC
7F01FE
7F00FE
7E00FE
FE00FF
FE007F
ENDCHAR
STARTCHAR Y
ENCODING 89
SWIDTH 394 0
DWIDTH 25 0
BBX 24 45 1 0
BITMAP
FE007F
FE00FE
FF00FE
7F00FE
7F01FC
7F81FC
3F81FC
3F81F8
3FC3F8
1FC3F8
1FC3F0
1FC7F0
0FE7F0
0FE7E0
0FE7E0
07EFE0
07FFC0
07FFC0
03FFC0
03FF80
03FF80
01FF80
01FF00
01FF00
00FF00
00FE00
00FE00
00FE00
00FE00
00FE00
00FE00
00FE00
00FE00
00FE00
00FE00
00FE00
00FE00
00FE00
00FE00
00FE00
00FE00
00FE00
00FE00
00FE00
00FE00
ENDCHAR
STARTCHAR Z
ENCODING 90
SWIDTH 362 0
DWIDTH 23 0
BBX 21 45 1 0
BITMAP
7FFFF8
7FFFF8
7FFFF8
7FFFF8
7FFFF8
7FFFF8
0007F8
0007F0
000FF0
000FF0
000FE0
001FE0
001FC0
003FC0
003FC0
003F80
007F80
007F00
00FF00
00FF00
00FE00
01FE00
01FC00
03FC00
03F800
03F800
07F800
07F000
0FF000
0FE000
0FE000
1FE000
1FC000
3FC000
3F8000
7F8000
7F8000
7F0000
FF0000
FFFFF8
FFFFF8
FFFFF8
FFFFF8
FFFFF8
FFFFF8
ENDCHAR
STARTCHAR bracketleft
ENCODING 91
SWIDTH 276 0
DWIDTH 18 0
BBX 11 52 4 -3
BITMAP
FFE0
FFE0
FFE0
FFE0
FFE0
FFE0
FE00
FE00
FE00
FE00
FE00
FE00
FE00
FE00
FE00
FE00
FE00
FE00
FE00
FE00
FE00
FE00
FE00
FE00
FE00
FE00
FE00
FE00
FE00
FE00
FE00
FE00
FE00
FE00
FE00
FE00
FE00
FE00
FE00
FE00
FE00
FE00
FE00
FE00
FE00
FE00
FFE0
FFE0
FFE0
FFE0
FFE0
FFE0
ENDCHAR
STARTCHAR backslash
ENCODING 92
SWIDTH 389 0
DWIDTH 25 0
BBX 23 45 1 0
BITMAP
FC0000
FC0000
7E0000
7E0000
7E0000
3F0000
3F0000
1F8000
1F8000
1F8000
0FC000
0FC000
0FE000
07E000
07E000
03F000
03F000
03F800
01F800
01F800
00FC00
00FC00
00FC00
007E00
007E00
003F00
003F00
003F00
001F80
001F80
000FC0
000FC0
000FC0
0007E0
0007E0
0007F0
0003F0
0003F0
0001F8
0001F8
0001FC
0000FC
0000FC
00007E
00007E
ENDCHAR
STARTCHAR bracketright
ENCODING 93
SWIDTH 276 0
DWIDTH 18 0
BBX 12 52 2 -3
BITMAP
FFF0
FFF0
FFF0
FFF0
FFF0
FFF0
07F0
07F0
07F0
07F0
07F0
07F0
07F0
07F0
07F0
07F0
07F0
07F0
07F0
07F0
07F0
07F0
07F0
07F0
07F0
07F0
07F0
07F0
07F0
07F0
07F0
07F0
07F0
07F0
07F0
07F0
07F0
07F0
07F0
07F0
07F0
07F0
07F0
07F0
07F0
07F0
FFF0
FFF0
FFF0
FFF0
FFF0
FFF0
ENDCHAR
STARTCHAR asciicircum
ENCODING 94
SWIDTH 400 0
DWIDTH 26 0
BBX 23 18 1 28
BITMAP
007C00
007E00
00FE00
00FF00
01FF00
01FF80
03FF80
03EFC0
07E7C0
07C7E0
0FC3E0
0F83F0
1F81F0
1F01F8
3F00F8
3E00FC
7E007C
FC007E
ENDCHAR
STARTCHAR underscore
ENCODING 95
SWIDTH 300 0
DWIDTH 19 0
BBX 19 5 0 -6
BITMAP
FFFFE0
FFFFE0
FFFFE0
FFFFE0
FFFFE0
ENDCHAR
STARTCHAR grave
ENCODING 96
SWIDTH 500 0
DWIDTH 32 0
BBX 12 7 8 48
BITMAP
FF00
7F00
3F80
1FC0
0FC0
07E0
03F0
ENDCHAR
STARTCHAR a
ENCODING 97
SWIDTH 401 0
DWIDTH 26 0
BBX 24 45 1 0
BITMAP
01FF80
01FF80
01FF80
03FF80
03FF80
03FF80
03FFC0
03FFC0
03EFC0
03EFC0
07EFC0
07EFC0
07EFE0
07EFE0
07E7E0
07C7E0
0FC7E0
0FC7E0
0FC7F0
0FC7F0
0FC7F0
0FC3F0
1F83F0
1F83F0
1F83F8
1F83F8
1F83F8
1F83F8
3F81F8
3F01F8
3FFFFC
3FFFFC
3FFFFC
3FFFFC
7FFFFC
7FFFFC
7F00FE
7E00FE
7E00FE
7E00FE
FE00FE
FE00FE
FE00FE
FE007F
FC007F
ENDCHAR
STARTCHAR b
ENCODING 98
SWIDTH 404 0
DWIDTH 26 0
BBX 21 45 3 0
BITMAP
FFFC00
FFFF80
FFFFC0
FFFFE0
FFFFF0
FFFFF0
FE3FF0
FE07F0
FE07F8
FE03F8
FE03F8
FE03F8
FE03F8
FE03F8
FE03F8
FE07F0
FE07F0
FE0FF0
FFFFE0
FFFFC0
FFFF80
FFFFC0
FFFFE0
FFFFF0
FE3FF0
FE07F8
FE03F8
FE03F8
FE03F8
FE03F8
FE03F8
FE03F8
FE03F8
FE03F8
FE03F8
FE03F8
FE03F8
FE07F8
FE1FF8
FFFFF0
FFFFF0
FFFFE0
FFFFC0
FFFF80
FFFE00
ENDCHAR
STARTCHAR c
ENCODING 99
SWIDTH 383 0
DWIDTH 25 0
BBX 21 47 2 -1
BITMAP
002000
07FF00
0FFF80
1FFFC0
3FFFE0
7FFFF0
7FFFF0
7F87F0
FF03F8
FE03F8
FE03F8
FE03F8
FE03F8
FE03F8
FE03F8
FE03F8
FE0000
FE0000
FE0000
FE0000
FE0000
FE0000
FE0000
FE0000
FE0000
FE0000
FE0000
FE0000
FE0000
FE03F8
FE03F8
FE03F8
FE03F8
FE03F8
FE03F8
FE03F8
FE03F8
FE03F8
FF03F8
7F87F0
7FFFF0
7FFFF0
3FFFE0
1FFFC0
0FFF80
07FF00
002000
ENDCHAR
STARTCHAR d
ENCODING 100
SWIDTH 406 0
DWIDTH 26 0
BBX 21 45 3 0
BITMAP
FFFC00
FFFF80
FFFFC0
FFFFE0
FFFFE0
FFFFF0
FE3FF0
FE07F8
FE07F8
FE03F8
FE03F8
FE03F8
FE03F8
FE03F8
FE03F8
FE03F8
FE03F8
FE03F8
FE03F8
FE03F8
FE03F8
FE03F8
FE03F8
FE03F8
FE03F8
FE03F8
FE03F8
FE03F8
FE03F8
FE03F8
FE03F8
FE03F8
FE03F8
FE03F8
FE03F8
FE03F8
FE07F8
FE07F8
FE3FF0
FFFFF0
FFFFE0
FFFFE0
FFFFC0
FFFF80
FFFC00
ENDCHAR
STARTCHAR e
ENCODING 101
SWIDTH 363 0
DWIDTH 23 0
BBX 19 45 3 0
BITMAP
FFFFE0
FFFFE0
FFFFE0
FFFFE0
FFFFE0
FFFFE0
FE0000
FE0000
FE0000
FE0000
FE0000
FE0000
FE0000
FE0000
FE0000
FE0000
FE0000
FE0000
FFFF00
FFFF00
FFFF00
FFFF00
FFFF00
FFFF00
FE0000
FE0000
FE0000
FE0000
FE0000
FE0000
FE0000
FE0000
FE0000
FE0000
FE0000
FE0000
FE0000
FE0000
FE0000
FFFFE0
FFFFE0
FFFFE0
FFFFE0
FFFFE0
FFFFE0
ENDCHAR
STARTCHAR f
ENCODING 102
SWIDTH 344 0
DWIDTH 22 0
BBX 18 45 3 0
BITMAP
FFFFC0
FFFFC0
FFFFC0
FFFFC0
FFFFC0
FFFFC0
FE0000
FE0000
FE0000
FE0000
FE0000
FE0000
FE0000
FE0000
FE0000
FE0000
FE0000
FE0000
FE0000
FFFF00
FFFF00
FFFF00
FFFF00
FFFF00
FFFF00
FE0000
FE0000
FE0000
FE0000
FE0000
FE0000
FE0000
FE0000
FE0000
FE0000
FE0000
FE0000
FE0000
FE0000
FE0000
FE0000
FE0000
FE0000
FE0000
FE0000
ENDCHAR
STARTCHAR g
ENCODING 103
SWIDTH 391 0
DWIDTH 25 0
BBX 21 47 2 -1
BITMAP
002000
07FF00
0FFF80
1FFFE0
3FFFE0
7FFFF0
7FFFF0
7F87F8
FF03F8
FE03F8
FE03F8
FE03F8
FE03F8
FE03F8
FE03F8
FE03F8
FE0000
FE0000
FE0000
FE0000
FE0000
FE1FF8
FE1FF8
FE1FF8
FE1FF8
FE1FF8
FE1FF8
FE03F8
FE03F8
FE03F8
FE03F8
FE03F8
FE03F8
FE03F8
FE03F8
FE03F8
FE03F8
FE03F8
FF03F8
7F87F8
7FFFF0
7FFFF0
3FFFE0
1FFFC0
0FFF80
07FF00
002000
ENDCHAR
STARTCHAR h
ENCODING 104
SWIDTH 420 0
DWIDTH 27 0
BBX 21 45 3 0
BITMAP
FE03F8
FE03F8
FE03F8
FE03F8
FE03F8
FE03F8
FE03F8
FE03F8
FE03F8
FE03F8
FE03F8
FE03F8
FE03F8
FE03F8
FE03F8
FE03F8
FE03F8
FE03F8
FFFFF8
FFFFF8
FFFFF8
FFFFF8
FFFFF8
FFFFF8
FE03F8
FE03F8
FE03F8
FE03F8
FE03F8
FE03F8
FE03F8
FE03F8
FE03F8
FE03F8
FE03F8
FE03F8
FE03F8
FE03F8
FE03F8
FE03F8
FE03F8
FE03F8
FE03F8
FE03F8
FE03F8
ENDCHAR
STARTCHAR i
ENCODING 105
SWIDTH 192 0
DWIDTH 12 0
BBX 7 45 3 0
BITMAP
FE
FE
FE
FE
FE
FE
FE
FE
FE
FE
FE
FE
FE
FE
FE
FE
FE
FE
FE
FE
FE
FE
FE
FE
FE
FE
FE
FE
FE
FE
FE
FE
FE
FE
FE
FE
FE
FE
FE
FE
FE
FE
FE
FE
FE
ENDCHAR
STARTCHAR j
ENCODING 106
SWIDTH 265 0
DWIDTH 17 0
BBX 14 45 1 0
BITMAP
03FC
03FC
03FC
03FC
03FC
03FC
03FC
03FC
03FC
03FC
03FC
03FC
03FC
03FC
03FC
03FC
03FC
03FC
03FC
03FC
03FC
03FC
03FC
03FC
03FC
03FC
03FC
03FC
03FC
03FC
03FC
03FC
03FC
03FC
03FC
03F8
03F8
07F8
FFF8
FFF8
FFF0
FFF0
FFE0
FFC0
FE00
ENDCHAR
STARTCHAR k
ENCODING 107
SWIDTH 414 0
DWIDTH 27 0
BBX 23 45 3 0
BITMAP
FE01FE
FE01FC
FE03F8
FE03F8
FE03F0
FE07F0
FE07E0
FE0FE0
FE0FC0
FE1FC0
FE1F80
FE3F80
FE3F00
FE7F00
FE7E00
FEFE00
FEFC00
FFFE00
FFFE00
FFFE00
FFFE00
FFFF00
FFFF00
FFFF00
FFFF80
FFBF80
FFBF80
FF3FC0
FF3FC0
FE1FC0
FE1FC0
FE1FE0
FE0FE0
FE0FE0
FE0FF0
FE07F0
FE07F0
FE07F8
FE07F8
FE03F8
FE03F8
FE03FC
FE01FC
FE01FC
FE01FE
ENDCHAR
STARTCHAR l
ENCODING 108
SWIDTH 344 0
DWIDTH 22 0
BBX 18 45 3 0
BITMAP
FE0000
FE0000
FE0000
FE0000
FE0000
FE0000
FE0000
FE0000
FE0000
FE0000
FE0000
FE0000
FE0000
FE0000
FE0000
FE0000
FE0000
FE0000
FE0000
FE0000
FE0000
FE0000
FE0000
FE0000
FE0000
FE0000
FE0000
FE0000
FE0000
FE0000
FE0000
FE0000
FE0000
FE0000
FE0000
FE0000
FE0000
FE0000
FE0000
FFFFC0
FFFFC0
FFFFC0
FFFFC0
FFFFC0
FFFFC0
ENDCHAR
STARTCHAR m
ENCODING 109
SWIDTH 538 0
DWIDTH 34 0
BBX 29 45 3 0
BITMAP
FFC01FF8
FFC01FF8
FFC03FF8
FFC03FF8
FFC03FF8
FFC03FF8
FFE03FF8
FFE03FF8
FFE03FF8
FFE07FF8
FFE07FF8
FFE07FF8
FFE07FF8
FFF07FF8
FFF07FF8
FDF07BF8
FDF0FBF8
FDF0FBF8
FDF0FBF8
FDF0FBF8
FDF8FBF8
FDF8F3F8
FCF8F3F8
FCF9F3F8
FCF9F3F8
FCF9F3F8
FCF9F3F8
FCF9F3F8
FC7DE3F8
FC7DE3F8
FC7DE3F8
FC7FE3F8
FC7FE3F8
FC7FE3F8
FC7FE3F8
FC3FC3F8
FC3FC3F8
FC3FC3F8
FC3FC3F8
FC3FC3F8
FC3FC3F8
FC3F83F8
FC1F83F8
FC1F83F8
FC1F83F8
ENDCHAR
STARTCHAR n
ENCODING 110
SWIDTH 427 0
DWIDTH 27 0
BBX 22 45 3 0
BITMAP
FF81FC
FF81FC
FF81FC
FF81FC
FFC1FC
FFC1FC
FFC1FC
FFC1FC
FFE1FC
FFE1FC
FFE1FC
FFE1FC
FFF1FC
FFF1FC
FDF1FC
FDF1FC
FDF9FC
FDF9FC
FCF9FC
FCF9FC
FCFDFC
FCFDFC
FC7DFC
FC7DFC
FC7FFC
FC7FFC
FC3FFC
FC3FFC
FC3FFC
FC3FFC
FC1FFC
FC1FFC
FC1FFC
FC1FFC
FC0FFC
FC0FFC
FC0FFC
FC07FC
FC07FC
FC07FC
FC07FC
FC03FC
FC03FC
FC03FC
FC03FC
ENDCHAR
STARTCHAR o
ENCODING 111
SWIDTH 400 0
DWIDTH 26 0
BBX 21 47 2 -1
BITMAP
002000
03FF00
0FFFC0
1FFFE0
3FFFF0
7FFFF0
7FFFF8
7F87F8
FF03F8
FE03F8
FE03F8
FE03F8
FE03F8
FE03F8
FE03F8
FE03F8
FE03F8
FE03F8
FE03F8
FE03F8
FE03F8
FE03F8
FE03F8
FE03F8
FE03F8
FE03F8
FE03F8
FE03F8
FE03F8
FE03F8
FE03F8
FE03F8
FE03F8
FE03F8
FE03F8
FE03F8
FE03F8
FE03F8
FF03F8
7F87F8
7FFFF8
7FFFF0
3FFFF0
1FFFE0
0FFFC0
03FF00
002000
ENDCHAR
STARTCHAR p
ENCODING 112
SWIDTH 386 0
DWIDTH 25 0
BBX 20 45 3 0
BITMAP
FFFC00
FFFF00
FFFFC0
FFFFC0
FFFFE0
FFFFF0
FE3FF0
FE07F0
FE07F0
FE07F0
FE07F0
FE07F0
FE07F0
FE07F0
FE07F0
FE07F0
FE07F0
FE07F0
FE07F0
FE0FF0
FFFFF0
FFFFE0
FFFFE0
FFFFC0
FFFF80
FFFE00
FE0000
FE0000
FE0000
FE0000
FE0000
FE0000
FE0000
FE0000
FE0000
FE0000
FE0000
FE0000
FE0000
FE0000
FE0000
FE0000
FE0000
FE0000
FE0000
ENDCHAR
STARTCHAR q
ENCODING 113
SWIDTH 400 0
DWIDTH 26 0
BBX 23 50 2 -4
BITMAP
002000
03FF00
0FFFC0
1FFFE0
3FFFF0
7FFFF0
7FFFF8
7F87F8
FF03F8
FE03F8
FE03F8
FE03F8
FE03F8
FE03F8
FE03F8
FE03F8
FE03F8
FE03F8
FE03F8
FE03F8
FE03F8
FE03F8
FE03F8
FE03F8
FE03F8
FE03F8
FE03F8
FE03F8
FE03F8
FE03F8
FE03F8
FE03F8
FE03F8
FE03F8
FE03F8
FE03F8
FE03F8
FE03F8
FF03F8
7F87F8
7FFFF8
7FFFF0
3FFFF0
1FFFFC
0FFFFE
03FFFE
0020FE
0000FE
00007E
00003E
ENDCHAR
STARTCHAR r
ENCODING 114
SWIDTH 403 0
DWIDTH 26 0
BBX 21 45 3 0
BITMAP
FFFC00
FFFF80
FFFFC0
FFFFE0
FFFFE0
FFFFF0
FE3FF0
FE07F0
FE07F0
FE07F0
FE07F0
FE07F0
FE07F0
FE07F0
FE07F0
FE07F0
FE07F0
FE07F0
FE0FE0
FFFFE0
FFFFC0
FFFF00
FFFF80
FFFFE0
FFFFE0
FE7FF0
FE0FF0
FE07F0
FE07F0
FE07F0
FE07F8
FE03F8
FE03F8
FE03F8
FE03F8
FE03F8
FE03F8
FE03F8
FE03F8
FE03F8
FE03F8
FE03F8
FE03F8
FE03F8
FE03F8
ENDCHAR
STARTCHAR s
ENCODING 115
SWIDTH 372 0
DWIDTH 24 0
BBX 21 47 1 -1
BITMAP
001000
03FF00
0FFFC0
1FFFE0
3FFFE0
3FFFF0
7FFFF0
7F87F8
7F03F8
7F03F8
7F01F8
7F01F8
7F01F8
7F01F8
7F0000
7F8000
7F8000
3FC000
3FE000
1FF000
1FF800
0FFC00
07FE00
03FF00
01FF80
00FFC0
007FE0
003FF0
001FF0
000FF0
0007F8
0003F8
0003F8
FE03F8
FE03F8
FE03F8
FE03F8
7E03F8
7F03F8
7F87F8
7FFFF8
3FFFF0
3FFFF0
1FFFE0
0FFFC0
03FF00
002000
ENDCHAR
STARTCHAR t
ENCODING 116
SWIDTH 364 0
DWIDTH 23 0
BBX 22 45 1 0
BITMAP
FFFFFC
FFFFFC
FFFFFC
FFFFFC
FFFFFC
FFFFFC
01FC00
01FC00
01FC00
01FC00
01FC00
01FC00
01FC00
01FC00
01FC00
01FC00
01FC00
01FC00
01FC00
01FC00
01FC00
01FC00
01FC00
01FC00
01FC00
01FC00
01FC00
01FC00
01FC00
01FC00
01FC00
01FC00
01FC00
01FC00
01FC00
01FC00
01FC00
01FC00
01FC00
01FC00
01FC00
01FC00
01FC00
01FC00
01FC00
ENDCHAR
STARTCHAR u
ENCODING 117
SWIDTH 402 0
DWIDTH 26 0
BBX 21 46 2 -1
BITMAP
FE01F8
FE01F8
FE01F8
FE01F8
FE01F8
FE01F8
FE01F8
FE01F8
FE01F8
FE01F8
FE01F8
FE01F8
FE01F8
FE01F8
FE01F8
FE01F8
FE01F8
FE01F8
FE01F8
FE01F8
FE01F8
FE01F8
FE01F8
FE01F8
FE01F8
FE01F8
FE01F8
FE01F8
FE01F8
FE01F8
FE01F8
FE01F8
FE01F8
FE01F8
FE01F8
FE01F8
FF03F8
7F03F8
7F87F8
7FFFF8
3FFFF0
3FFFF0
1FFFE0
0FFFC0
03FF00
003000
ENDCHAR
STARTCHAR v
ENCODING 118
SWIDTH 382 0
DWIDTH 24 0
BBX 23 45 1 0
BITMAP
FE00FE
FE00FC
FE00FC
FE00FC
FE00FC
7F01FC
7F01FC
7F01FC
7F01F8
7F01F8
7F01F8
7F01F8
3F81F8
3F83F8
3F83F8
3F83F0
3F83F0
3F83F0
1F83F0
1F83F0
1FC3F0
1FC7E0
1FC7E0
1FC7E0
1FC7E0
0FC7E0
0FC7E0
0FC7E0
0FEFC0
0FEFC0
0FEFC0
07EFC0
07EFC0
07EFC0
07EF80
07FF80
07FF80
07FF80
03FF80
03FF80
03FF80
03FF00
03FF00
03FF00
03FF00
ENDCHAR
STARTCHAR w
ENCODING 119
SWIDTH 557 0
DWIDTH 36 0
BBX 34 45 1 0
BITMAP
FE07F80FC0
FE07F81FC0
FE07F81F80
FE07F81F80
FE07F81F80
7E07FC1F80
7E07FC1F80
7E07FC1F80
7F07FC1F80
7F0FFC1F80
7F0FFC1F80
7F0FFC1F80
7F0FFC3F00
7F0FFC3F00
7F0FFC3F00
3F0FFE3F00
3F0FFE3F00
3F0FFE3F00
3F0FBE3F00
3F9FBE3F00
3F9F3E3F00
3F9F3E3F00
3F9F3E3E00
3F9F3E7E00
3F9F3E7E00
1F9F3E7E00
1F9F3F7E00
1F9F1F7E00
1F9F1F7E00
1FBF1F7E00
1FFE1F7E00
1FFE1F7E00
1FFE1F7C00
1FFE1F7C00
1FFE1FFC00
0FFE1FFC00
0FFE1FFC00
0FFE0FFC00
0FFE0FFC00
0FFC0FFC00
0FFC0FFC00
0FFC0FFC00
0FFC0FF800
0FFC0FF800
0FFC0FF800
ENDCHAR
STARTCHAR x
ENCODING 120
SWIDTH 406 0
DWIDTH 26 0
BBX 24 45 1 0
BITMAP
FF007F
7F007E
7F00FE
7F80FE
3F80FC
3F81FC
3FC1FC
1FC1F8
1FC3F8
1FE3F8
0FE3F0
0FE7F0
0FF7F0
07F7E0
07FFE0
03FFE0
03FFC0
03FFC0
01FF80
01FF80
01FF80
00FF00
00FF00
01FF80
01FF80
01FF80
03FFC0
03FFC0
03FFC0
07FFE0
07EFE0
0FEFE0
0FE7F0
0FC7F0
1FC7F8
1FC3F8
1F83F8
3F83FC
3F81FC
3F01FC
7F01FE
7F00FE
7E00FE
FE00FF
FE007F
ENDCHAR
STARTCHAR y
ENCODING 121
SWIDTH 394 0
DWIDTH 25 0
BBX 24 45 1 0
BITMAP
FE007F
FE00FE
FF00FE
7F00FE
7F01FC
7F81FC
3F81FC
3F81F8
3FC3F8
1FC3F8
1FC3F0
1FC7F0
0FE7F0
0FE7E0
0FE7E0
07EFE0
07FFC0
07FFC0
03FFC0
03FF80
03FF80
01FF80
01FF00
01FF00
00FF00
00FE00
00FE00
00FE00
00FE00
00FE00
00FE00
00FE00
00FE00
00FE00
00FE00
00FE00
00FE00
00FE00
00FE00
00FE00
00FE00
00FE00
00FE00
00FE00
00FE00
ENDCHAR
STARTCHAR z
ENCODING 122
SWIDTH 362 0
DWIDTH 23 0
BBX 21 45 1 0
BITMAP
7FFFF8
7FFFF8
7FFFF8
7FFFF8
7FFFF8
7FFFF8
0007F8
0007F0
000FF0
000FF0
000FE0
001FE0
001FC0
003FC0
003FC0
003F80
007F80
007F00
00FF00
00FF00
00FE00
01FE00
01FC00
03FC00
03F800
03F800
07F800
07F000
0FF000
0FE000
0FE000
1FE000
1FC000
3FC000
3F8000
7F8000
7F8000
7F0000
FF0000
FFFFF8
FFFFF8
FFFFF8
FFFFF8
FFFFF8
FFFFF8
ENDCHAR
STARTCHAR braceleft
ENCODING 123
SWIDTH 276 0
DWIDTH 18 0
BBX 15 52 1 -3
BITMAP
00FE
01FE
03FE
07FE
07FE
0FFE
0FF0
0FE0
0FE0
0FE0
0FE0
0FE0
0FE0
0FE0
0FE0
0FE0
0FE0
0FE0
0FE0
0FE0
0FE0
0FE0
1FC0
FFC0
FF80
FF00
FF00
FF80
FFC0
1FC0
0FE0
0FE0
0FE0
0FE0
0FE0
0FE0
0FE0
0FE0
0FE0
0FE0
0FE0
0FE0
0FE0
0FE0
0FE0
0FF0
0FFE
07FE
07FE
03FE
01FE
00FE
ENDCHAR
STARTCHAR bar
ENCODING 124
SWIDTH 500 0
DWIDTH 32 0
BBX 6 65 13 -13
BITMAP
FC
FC
FC
FC
FC
FC
FC
FC
FC
FC
FC
FC
FC
FC
FC
FC
FC
FC
FC
FC
FC
FC
FC
FC
FC
FC
FC
FC
FC
FC
FC
FC
FC
FC
FC
FC
FC
FC
FC
FC
FC
FC
FC
FC
FC
FC
FC
FC
FC
FC
FC
FC
FC
FC
FC
FC
FC
FC
FC
FC
FC
FC
FC
FC
FC
ENDCHAR
STARTCHAR braceright
ENCODING 125
SWIDTH 276 0
DWIDTH 18 0
BBX 14 52 2 -3
BITMAP
FC00
FF00
FF80
FFC0
FFC0
FFC0
1FC0
1FC0
0FC0
0FC0
0FC0
0FC0
0FC0
0FC0
0FC0
0FC0
0FC0
0FC0
0FC0
0FC0
0FC0
0FE0
0FF0
07FC
07FC
01FC
01FC
07FC
07FC
0FF0
0FE0
0FC0
0FC0
0FC0
0FC0
0FC0
0FC0
0FC0
0FC0
0FC0
0FC0
0FC0
0FC0
0FC0
1FC0
1FC0
FFC0
FFC0
FFC0
FF80
FF00
FC00
ENDCHAR
STARTCHAR asciitilde
ENCODING 126
SWIDTH 400 0
DWIDTH 26 0
BBX 24 9 1 18
BITMAP
07C008
1FE01C
3FF83F
3FFC7E
7FFFFE
FC7FFC
F81FF8
780FF0
1003E0
ENDCHAR
STARTCHAR uni00A0
ENCODING 160
SWIDTH 160 0
DWIDTH 10 0
BBX 1 1 0 0
BITMAP
00
ENDCHAR
STARTCHAR exclamdown
ENCODING 161
SWIDTH 210 0
DWIDTH 13 0
BBX 7 45 3 0
BITMAP
FE
FE
FE
FE
FE
FE
00
00
00
00
00
00
7C
7C
7C
7E
7E
7E
7E
7E
7E
FE
FE
FE
FE
FE
FE
FE
FE
FE
FE
FE
FE
FE
FE
FE
FE
FE
FE
FE
FE
FE
FE
FE
FE
ENDCHAR
STARTCHAR cent
ENCODING 162
SWIDTH 400 0
DWIDTH 26 0
BBX 20 47 3 -1
BITMAP
01F800
01F800
01F800
01F800
03FC00
0FFF00
1FFFC0
3FFFC0
7FFFE0
7FFFE0
FF0FF0
FE07F0
FE03F0
FE03F0
FE03F0
FE03F0
FE03F0
FE0000
FE0000
FE0000
FE0000
FE0000
FE0000
FE0000
FE0000
FE0000
FE0000
FE0000
FE03F0
FE03F0
FE03F0
FE03F0
FE03F0
FE03F0
FE07F0
FF0FF0
FFFFF0
7FFFE0
3FFFE0
3FFFC0
1FFF80
07FE00
01F800
01F800
01F800
01F800
01F800
ENDCHAR
STARTCHAR sterling
ENCODING 163
SWIDTH 400 0
DWIDTH 26 0
BBX 22 46 2 0
BITMAP
001000
03FF00
0FFFC0
1FFFE0
1FFFF0
3FFFF0
3FFFF8
7F87F8
7F03F8
7F01F8
7F01FC
7F01FC
7F01FC
7F01FC
7F0000
7F0000
3F8000
3F8000
1FC000
1FC000
0FC000
0FE000
07E000
FFFFE0
FFFFE0
FFFFE0
FFFFE0
FFFFE0
FFFFE0
03F800
03F800
03F800
03F000
03F000
03F000
07E000
0FE000
0FC000
1F8000
7F0000
FFFFF8
FFFFF8
FFFFF8
FFFFF8
FFFFF8
FFFFF8
ENDCHAR
STARTCHAR currency
ENCODING 164
SWIDTH 400 0
DWIDTH 26 0
BBX 22 23 2 11
BITMAP
100020
300070
780078
FCFCFC
7FFFF8
3FFFF0
1FFFE0
1FFFC0
1F87E0
1F03E0
1F03E0
1E03E0
1F03E0
1F03E0
1F87E0
1FFFC0
1FFFC0
3FFFF0
7FFFF8
FCFCFC
780078
300030
100020
ENDCHAR
STARTCHAR yen
ENCODING 165
SWIDTH 400 0
DWIDTH 26 0
BBX 24 45 1 0
BITMAP
FE007F
FF007E
7F00FE
7F00FE
7F80FC
3F81FC
3F81FC
3F81F8
1FC1F8
1FC3F8
1FC3F0
0FE3F0
0FE7F0
0FE7E0
07E7E0
07F7E0
07FFC0
03FFC0
03FFC0
03FF80
01FF80
01FF80
01FF00
00FF00
1FFFF8
1FFFF8
1FFFF8
1FFFF8
00FE00
00FE00
00FE00
00FE00
00FE00
00FE00
1FFFF8
1FFFF8
1FFFF8
1FFFF8
00FE00
00FE00
00FE00
00FE00
00FE00
00FE00
00FE00
ENDCHAR
STARTCHAR brokenbar
ENCODING 166
SWIDTH 500 0
DWIDTH 32 0
BBX 6 65 13 -13
BITMAP
FC
FC
FC
FC
FC
FC
FC
FC
FC
FC
FC
FC
FC
FC
FC
FC
FC
FC
FC
FC
FC
FC
FC
FC
FC
FC
00
00
00
00
00
00
00
00
00
00
00
00
00
FC
FC
FC
FC
FC
FC
FC
FC
FC
FC
FC
FC
FC
FC
FC
FC
FC
FC
FC
FC
FC
FC
FC
FC
FC
FC
ENDCHAR
STARTCHAR section
ENCODING 167
SWIDTH 400 0
DWIDTH 26 0
BBX 23 54 1 -8
BITMAP
001000
01FF80
07FFE0
0FFFF0
1FFFF8
3FFFF8
3FFFFC
7FC3FC
7F81FC
7F01FC
7F00FC
7F00FC
7F0000
7F8000
3FC000
3FF000
3FFC00
1FFF80
0FFFE0
07FFF0
0FFFF8
1FFFFC
3FFFFC
3F87FE
7F01FE
7F00FE
7E00FE
FE00FE
FE00FE
7F00FE
7F00FE
7F81FC
7FE3FC
3FFFF8
3FFFF0
1FFFE0
07FFE0
01FFF0
007FF8
001FFC
0007FC
0001FC
7F01FC
7F01FC
7F01FE
7F01FE
7F81FC
7FC3FC
3FFFFC
3FFFF8
1FFFF8
0FFFF0
07FFE0
03FF80
ENDCHAR
STARTCHAR dieresis
ENCODING 168
SWIDTH 500 0
DWIDTH 32 0
BBX 16 6 8 48
BITMAP
FC3F
FC3F
FC3F
FC3F
FC3F
FC3F
ENDCHAR
STARTCHAR copyright
ENCODING 169
SWIDTH 738 0
DWIDTH 47 0
BBX 45 47 1 -1
BITMAP
00003FF00000
0003FFFE0000
000FFFFF8000
001FFFFFE000
007FFFFFF000
00FFC01FF800
01FE0003FC00
03F80000FE00
07F000007F00
0FE01F801F80
0FC03FE00F80
1F807FF00FC0
1F00FFF807E0
3F00FFF803E0
3E01F8F803E0
7C01F07801F0
7C01F07C01F0
7C01F07C01F0
7C01F07C00F0
7801F07C00F8
F801F00000F8
F801F00000F8
F801F00000F8
F801F00000F8
F801F00000F8
F801F00000F8
F801F07C00F8
7801F07C00F8
7C01F07C00F0
7C01F07C01F0
7C01F07C01F0
3C01F07C01F0
3E01F8F803E0
3E00FFF803E0
1F00FFF807E0
1F807FF00FC0
0FC03FE00F80
0FE01F801F80
07F000007F00
03F80000FE00
01FE0003FC00
00FFC01FF800
007FFFFFF000
003FFFFFE000
000FFFFF8000
0003FFFE0000
00003FE00000
ENDCHAR
STARTCHAR ordfeminine
ENCODING 170
SWIDTH 280 0
DWIDTH 18 0
BBX 13 32 2 14
BITMAP
0FC0
1FE0
3FF0
7FF8
7CF8
7878
7878
7878
0078
0078
07F8
1FF8
3FF8
7C78
F878
F878
F078
F078
F078
F8F8
FFF8
FFB8
7FB8
3F38
0800
0000
0000
0000
FFF8
FFF8
FFF8
FFF8
ENDCHAR
STARTCHAR guillemotleft
ENCODING 171
SWIDTH 336 0
DWIDTH 22 0
BBX 19 15 1 15
BITMAP
0FC3E0
0F87E0
1F87C0
3F0FC0
3F1F80
7E1F80
FE3F00
FC7F00
7E3F00
7E1F80
3F1F80
1F0FC0
1F87C0
0F87E0
0FC3E0
ENDCHAR
STARTCHAR logicalnot
ENCODING 172
SWIDTH 400 0
DWIDTH 26 0
BBX 23 14 1 11
BITMAP
FFFFFE
FFFFFE
FFFFFE
FFFFFE
FFFFFE
00003E
00003E
00003E
00003E
00003E
00003E
00003E
00003E
00003E
ENDCHAR
STARTCHAR uni00AD
ENCODING 173
SWIDTH 270 0
DWIDTH 17 0
BBX 14 6 2 19
BITMAP
FFFC
FFFC
FFFC
FFFC
FFFC
FFFC
ENDCHAR
STARTCHAR registered
ENCODING 174
SWIDTH 738 0
DWIDTH 47 0
BBX 45 47 1 -1
BITMAP
00003FF00000
0003FFFE0000
000FFFFF8000
001FFFFFE000
007FFFFFF000
00FFC01FF800
01FE0003FC00
03F80000FE00
07F000007F00
0FE000001F80
0FC0FFC00F80
1F80FFF00FC0
1F00FFF807E0
3F00FFFC03E0
3E00FFFC03E0
7C00F0FC01F0
7C00F07C01F0
7C00F07C01F0
7C00F07C00F0
7800F07C00F8
F800F07C00F8
F800F0FC00F8
F800FFF800F8
F800FFF000F8
F800FFE000F8
F800FFF800F8
F800FFF800F8
7800F0FC00F8
7C00F07C00F0
7C00F07C01F0
7C00F07C01F0
3C00F07C01F0
3E00F07C03E0
3E00F07C03E0
1F00F07C07E0
1F80F07C0FC0
0FC0F03C0F80
0FE000001F80
07F000007F00
03F80000FE00
01FE0003FC00
00FFC01FF800
007FFFFFF000
003FFFFFE000
000FFFFF8000
0003FFFE0000
00003FE00000
ENDCHAR
STARTCHAR macron
ENCODING 175
SWIDTH 500 0
DWIDTH 32 0
BBX 14 5 9 49
BITMAP
FFFC
FFFC
FFFC
FFFC
FFFC
ENDCHAR
STARTCHAR degree
ENCODING 176
SWIDTH 400 0
DWIDTH 26 0
BBX 16 17 5 30
BITMAP
07E0
1FF0
3FFC
7FFC
7FFE
FC7E
F81F
F81F
F01F
F81F
F81F
FC3E
7FFE
7FFC
3FFC
1FF0
07E0
ENDCHAR
STARTCHAR plusminus
ENCODING 177
SWIDTH 400 0
DWIDTH 26 0
BBX 21 25 2 11
BITMAP
00F800
00F800
00F800
00F800
00F800
00F800
00F800
00F800
FFFFF8
FFFFF8
FFFFF8
FFFFF8
FFFFF8
00F800
00F800
00F800
00F800
00F800
00F800
00F800
FFFFF8
FFFFF8
FFFFF8
FFFFF8
FFFFF8
ENDCHAR
STARTCHAR uni00B2
ENCODING 178
SWIDTH 282 0
DWIDTH 18 0
BBX 14 30 2 22
BITMAP
0100
1FE0
3FF0
7FF8
7FF8
787C
F87C
F87C
F87C
F87C
0078
00F8
00F8
01F0
01F0
03E0
07C0
0F80
1F00
3E00
3E00
7C00
7800
7800
7800
F800
FFF8
FFF8
FFF8
FFF8
ENDCHAR
STARTCHAR uni00B3
ENCODING 179
SWIDTH 282 0
DWIDTH 18 0
BBX 13 31 2 21
BITMAP
0200
1FE0
3FF0
7FF8
7FF8
F878
F078
F078
F078
0078
0078
0078
00F8
07F0
07E0
07E0
07F0
00F8
0078
0078
0078
F078
F078
F078
F078
F878
7FF8
7FF8
3FF0
1FE0
0200
ENDCHAR
STARTCHAR acute
ENCODING 180
SWIDTH 500 0
DWIDTH 32 0
BBX 12 7 12 48
BITMAP
0FF0
0FE0
1FC0
3F80
3F00
7E00
FC00
ENDCHAR
STARTCHAR uni00B5
ENCODING 181
SWIDTH 405 0
DWIDTH 26 0
BBX 21 42 3 -10
BITMAP
FE03F8
FE03F8
FE03F8
FE03F8
FE03F8
FE03F8
FE03F8
FE03F8
FE03F8
FE03F8
FE03F8
FE03F8
FE03F8
FE03F8
FE03F8
FE03F8
FE03F8
FE03F8
FE03F8
FE03F8
FE03F8
FE03F8
FE03F8
FE07F8
FE07F8
FF0FF8
FFFFF8
FFFFF8
FFFFF8
FFFFF8
FFFBF8
FFE3F8
FE0000
FE0000
FE0000
FE0000
FE0000
FE0000
FE0000
FE0000
FE0000
FE0000
ENDCHAR
STARTCHAR paragraph
ENCODING 182
SWIDTH 449 0
DWIDTH 29 0
BBX 23 51 2 -6
BITMAP
01FFFE
07FFFE
1FFFFE
3FFFFE
7FFFFE
7FFC3E
FFFC3E
FFFC3E
FFFC3E
FFFC3E
FFFC3E
FFFC3E
FFFC3E
FFFC3E
FFFC3E
FFFC3E
FFFC3E
FFFC3E
FFFC3E
7FFC3E
7FFC3E
3FFC3E
3FFC3E
0FFC3E
07FC3E
007C3E
007C3E
007C3E
007C3E
007C3E
007C3E
007C3E
007C3E
007C3E
007C3E
007C3E
007C3E
007C3E
007C3E
007C3E
007C3E
007C3E
007C3E
007C3E
007C3E
007C3E
007C3E
007C3E
007C3E
007C3E
007C3E
ENDCHAR
STARTCHAR periodcentered
ENCODING 183
SWIDTH 188 0
DWIDTH 12 0
BBX 6 6 3 19
BITMAP
FC
FC
FC
FC
FC
FC
ENDCHAR
STARTCHAR cedilla
ENCODING 184
SWIDTH 500 0
DWIDTH 32 0
BBX 12 11 10 -9
BITMAP
0700
0700
0700
0700
07E0
01F0
01F0
F1F0
FBF0
FFF0
3FC0
ENDCHAR
STARTCHAR uni00B9
ENCODING 185
SWIDTH 282 0
DWIDTH 18 0
BBX 9 29 4 22
BITMAP
0380
0780
0780
1F80
FF80
FF80
FF80
0F80
0F80
0F80
0F80
0F80
0F80
0F80
0F80
0F80
0F80
0F80
0F80
0F80
0F80
0F80
0F80
0F80
0F80
0F80
0F80
0F80
0F80
ENDCHAR
STARTCHAR ordmasculine
ENCODING 186
SWIDTH 282 0
DWIDTH 18 0
BBX 14 32 2 14
BITMAP
0FC0
3FF0
7FF8
7FF8
7CF8
F87C
F87C
F87C
F87C
F87C
F87C
F87C
F87C
F87C
F87C
F87C
F87C
F87C
F87C
F87C
7FF8
7FF8
3FF0
1FE0
0300
0000
0000
0000
FFFC
FFFC
FFFC
FFFC
ENDCHAR
STARTCHAR guillemotright
ENCODING 187
SWIDTH 335 0
DWIDTH 21 0
BBX 20 15 1 15
BITMAP
FC3E00
7C3F00
7E1F00
3F1F80
3F0FC0
1F8FC0
1FC7E0
0FC7F0
1F87E0
1F8FC0
3F0FC0
3E1F80
7E1F00
7C3F00
FC3E00
ENDCHAR
STARTCHAR onequarter
ENCODING 188
SWIDTH 653 0
DWIDTH 42 0
BBX 36 45 4 0
BITMAP
038001F000
078001E000
078003E000
1F8003C000
FF8003C000
FF8007C000
FF80078000
0F800F8000
0F800F8000
0F800F0000
0F801F0000
0F801E0000
0F803E0000
0F803E0000
0F803C0000
0F807C0000
0F807807C0
0F807807C0
0F80F80FC0
0F80F00FC0
0F81F00FC0
0F81F01FC0
0F81E01FC0
0F83E03FC0
0F83C03FC0
0F87C07BC0
0F87C07BC0
0F87807BC0
0F8F80F3C0
000F00F3C0
000F01E3C0
001F01E3C0
001E01E3C0
003E03C3C0
003E03C3C0
003C0783C0
007C07FFF0
007807FFF0
00F807FFF0
00F807FFF0
00F00003C0
01F00003C0
01E00003C0
01E00003C0
03E00003C0
ENDCHAR
STARTCHAR onehalf
ENCODING 189
SWIDTH 653 0
DWIDTH 42 0
BBX 36 45 4 0
BITMAP
038001F000
078001E000
078003E000
1F8003C000
FF8003C000
FF8007C000
FF80078000
0F800F8000
0F800F8000
0F800F0000
0F801F0000
0F801E0000
0F803E0000
0F803E0000
0F803C0000
0F807C0000
0F80783F00
0F8078FF80
0F80F9FFC0
0F80F1FFE0
0F81F3E3E0
0F81F3E1E0
0F81E3C1F0
0F83E3C1E0
0F83C3C1E0
0F87C001E0
0F87C003E0
0F878003E0
0F8F8007C0
000F000FC0
000F000F80
001F001F00
001E003E00
003E007C00
003E00F800
003C00F800
007C01F000
007801E000
00F803E000
00F803E000
00F003E000
01F003FFE0
01E003FFE0
01E003FFE0
03E003FFE0
ENDCHAR
STARTCHAR threequarters
ENCODING 190
SWIDTH 653 0
DWIDTH 42 0
BBX 38 46 2 0
BITMAP
0200000000
1FE0007C00
3FF0007800
7FF800F800
7FF800F000
F87800F000
F07801F000
F07801E000
F07803E000
007803E000
007803C000
007807C000
00F8078000
07F00F8000
07E00F8000
07E00F0000
07F01F0000
00F81E01F0
00781E01F0
00783E03F0
00783C03F0
F0787C03F0
F0787C07F0
F0787807F0
F878F80FF0
F8F8F00FF0
7FF9F01EF0
7FF1F01EF0
3FE1E01EF0
0FC3E03CF0
0003C03CF0
0003C078F0
0007C078F0
00078078F0
000F80F0F0
000F80F0F0
000F01E0F0
001F01FFFC
001E01FFFC
003E01FFFC
003E01FFFC
003C0000F0
007C0000F0
00780000F0
00780000F0
00F80000F0
ENDCHAR
STARTCHAR questiondown
ENCODING 191
SWIDTH 363 0
DWIDTH 23 0
BBX 21 46 1 -1
BITMAP
00FE00
00FE00
00FE00
00FE00
00FE00
00FE00
000000
000000
000000
000000
000000
000000
007E00
007E00
007E00
00FE00
00FE00
00FC00
01FC00
01FC00
03F800
07F800
07F000
0FF000
1FE000
1FC000
3FC000
3F8000
7F8000
7F0000
7F03F8
FF03F8
FE03F8
FE03F8
FE03F8
FE03F8
FF03F8
7F03F8
7F87F0
7FFFF0
3FFFF0
3FFFE0
1FFFC0
0FFF80
03FF00
002000
ENDCHAR
STARTCHAR Agrave
ENCODING 192
SWIDTH 401 0
DWIDTH 26 0
BBX 24 55 1 0
BITMAP
0FF000
07F000
03F800
01F800
00FC00
007E00
003F00
000000
000000
000000
01FF80
01FF80
01FF80
03FF80
03FF80
03FF80
03FFC0
03FFC0
03EFC0
03EFC0
07EFC0
07EFC0
07EFE0
07EFE0
07E7E0
07C7E0
0FC7E0
0FC7E0
0FC7F0
0FC7F0
0FC7F0
0FC3F0
1F83F0
1F83F0
1F83F8
1F83F8
1F83F8
1F83F8
3F81F8
3F01F8
3FFFFC
3FFFFC
3FFFFC
3FFFFC
7FFFFC
7FFFFC
7F00FE
7E00FE
7E00FE
7E00FE
FE00FE
FE00FE
FE00FE
FE007F
FC007F
ENDCHAR
STARTCHAR Aacute
ENCODING 193
SWIDTH 401 0
DWIDTH 26 0
BBX 24 55 1 0
BITMAP
000FF0
000FE0
001FC0
003F80
003F00
007E00
00FC00
000000
000000
000000
01FF80
01FF80
01FF80
03FF80
03FF80
03FF80
03FFC0
03FFC0
03EFC0
03EFC0
07EFC0
07EFC0
07EFE0
07EFE0
07E7E0
07C7E0
0FC7E0
0FC7E0
0FC7F0
0FC7F0
0FC7F0
0FC3F0
1F83F0
1F83F0
1F83F8
1F83F8
1F83F8
1F83F8
3F81F8
3F01F8
3FFFFC
3FFFFC
3FFFFC
3FFFFC
7FFFFC
7FFFFC
7F00FE
7E00FE
7E00FE
7E00FE
FE00FE
FE00FE
FE00FE
FE007F
FC007F
ENDCHAR
STARTCHAR Acircumflex
ENCODING 194
SWIDTH 401 0
DWIDTH 26 0
BBX 24 56 1 0
BITMAP
007E00
00FF00
01FF80
03FF80
03FFC0
07E7E0
0FC3E0
1F81F0
000000
000000
000000
01FF80
01FF80
01FF80
03FF80
03FF80
03FF80
03FFC0
03FFC0
03EFC0
03EFC0
07EFC0
07EFC0
07EFE0
07EFE0
07E7E0
07C7E0
0FC7E0
0FC7E0
0FC7F0
0FC7F0
0FC7F0
0FC3F0
1F83F0
1F83F0
1F83F8
1F83F8
1F83F8
1F83F8
3F81F8
3F01F8
3FFFFC
3FFFFC
3FFFFC
3FFFFC
7FFFFC
7FFFFC
7F00FE
7E00FE
7E00FE
7E00FE
FE00FE
FE00FE
FE00FE
FE007F
FC007F
ENDCHAR
STARTCHAR Atilde
ENCODING 195
SWIDTH 401 0
DWIDTH 26 0
BBX 24 56 1 0
BITMAP
01E060
07F8F8
07FFF0
0FFFF0
1FFFE0
1F3FC0
060F80
000000
000000
000000
000000
01FF80
01FF80
01FF80
03FF80
03FF80
03FF80
03FFC0
03FFC0
03EFC0
03EFC0
07EFC0
07EFC0
07EFE0
07EFE0
07E7E0
07C7E0
0FC7E0
0FC7E0
0FC7F0
0FC7F0
0FC7F0
0FC3F0
1F83F0
1F83F0
1F83F8
1F83F8
1F83F8
1F83F8
3F81F8
3F01F8
3FFFFC
3FFFFC
3FFFFC
3FFFFC
7FFFFC
7FFFFC
7F00FE
7E00FE
7E00FE
7E00FE
FE00FE
FE00FE
FE00FE
FE007F
FC007F
ENDCHAR
STARTCHAR Adieresis
ENCODING 196
SWIDTH 401 0
DWIDTH 26 0
BBX 24 54 1 0
BITMAP
0FC3F0
0FC3F0
0FC3F0
0FC3F0
0FC3F0
0FC3F0
000000
000000
000000
01FF80
01FF80
01FF80
03FF80
03FF80
03FF80
03FFC0
03FFC0
03EFC0
03EFC0
07EFC0
07EFC0
07EFE0
07EFE0
07E7E0
07C7E0
0FC7E0
0FC7E0
0FC7F0
0FC7F0
0FC7F0
0FC3F0
1F83F0
1F83F0
1F83F8
1F83F8
1F83F8
1F83F8
3F81F8
3F01F8
3FFFFC
3FFFFC
3FFFFC
3FFFFC
7FFFFC
7FFFFC
7F00FE
7E00FE
7E00FE
7E00FE
FE00FE
FE00FE
FE00FE
FE007F
FC007F
ENDCHAR
STARTCHAR Aring
ENCODING 197
SWIDTH 401 0
DWIDTH 26 0
BBX 24 59 1 0
BITMAP
007C00
00FF00
01FF80
03E780
03C380
03C3C0
03C380
01E780
01FF80
00FF00
007C00
000000
000000
000000
01FF80
01FF80
01FF80
03FF80
03FF80
03FF80
03FFC0
03FFC0
03EFC0
03EFC0
07EFC0
07EFC0
07EFE0
07EFE0
07E7E0
07C7E0
0FC7E0
0FC7E0
0FC7F0
0FC7F0
0FC7F0
0FC3F0
1F83F0
1F83F0
1F83F8
1F83F8
1F83F8
1F83F8
3F81F8
3F01F8
3FFFFC
3FFFFC
3FFFFC
3FFFFC
7FFFFC
7FFFFC
7F00FE
7E00FE
7E00FE
7E00FE
FE00FE
FE00FE
FE00FE
FE007F
FC007F
ENDCHAR
STARTCHAR AE
ENCODING 198
SWIDTH 580 0
DWIDTH 37 0
BBX 35 45 1 0
BITMAP
001FFFFFE0
001FFFFFE0
001FFFFFE0
001FFFFFE0
003FFFFFE0
003FFFFFE0
003FFE0000
003FFE0000
007FFE0000
007EFE0000
007EFE0000
007EFE0000
00FCFE0000
00FCFE0000
00FCFE0000
01FCFE0000
01F8FE0000
01F8FE0000
01F8FFFF00
03F8FFFF00
03F8FFFF00
03F0FFFF00
03F0FFFF00
07F0FFFF00
07F0FE0000
07E0FE0000
07E0FE0000
0FE0FE0000
0FE0FE0000
0FC0FE0000
1FFFFE0000
1FFFFE0000
1FFFFE0000
1FFFFE0000
3FFFFE0000
3FFFFE0000
3F80FE0000
3F00FE0000
7F00FE0000
7F00FFFFE0
7F00FFFFE0
7E00FFFFE0
FE00FFFFE0
FE00FFFFE0
FE00FFFFE0
ENDCHAR
STARTCHAR Ccedilla
ENCODING 199
SWIDTH 383 0
DWIDTH 25 0
BBX 21 56 2 -10
BITMAP
002000
07FF00
0FFF80
1FFFC0
3FFFE0
7FFFF0
7FFFF0
7F87F0
FF03F8
FE03F8
FE03F8
FE03F8
FE03F8
FE03F8
FE03F8
FE03F8
FE03F8
FE0000
FE0000
FE0000
FE0000
FE0000
FE0000
FE0000
FE0000
FE0000
FE0000
FE0000
FE0000
FE0000
FE03F8
FE03F8
FE03F8
FE03F8
FE03F8
FE03F8
FE03F8
FE03F8
FE03F8
7F03F8
7F87F0
7FFFF0
3FFFF0
3FFFE0
1FFFC0
07FF80
01FE00
007000
007000
007E00
001F00
000F80
0F8F80
0FDF00
07FF00
03FC00
ENDCHAR
STARTCHAR Egrave
ENCODING 200
SWIDTH 363 0
DWIDTH 23 0
BBX 19 55 3 0
BITMAP
7F8000
3FC000
1FC000
0FE000
07E000
03F000
01F800
000000
000000
000000
FFFFE0
FFFFE0
FFFFE0
FFFFE0
FFFFE0
FFFFE0
FE0000
FE0000
FE0000
FE0000
FE0000
FE0000
FE0000
FE0000
FE0000
FE0000
FE0000
FE0000
FFFF00
FFFF00
FFFF00
FFFF00
FFFF00
FFFF00
FE0000
FE0000
FE0000
FE0000
FE0000
FE0000
FE0000
FE0000
FE0000
FE0000
FE0000
FE0000
FE0000
FE0000
FE0000
FFFFE0
FFFFE0
FFFFE0
FFFFE0
FFFFE0
FFFFE0
ENDCHAR
STARTCHAR Eacute
ENCODING 201
SWIDTH 363 0
DWIDTH 23 0
BBX 19 55 3 0
BITMAP
003FC0
007F00
00FE00
00FC00
01F800
03F000
07E000
000000
000000
000000
FFFFE0
FFFFE0
FFFFE0
FFFFE0
FFFFE0
FFFFE0
FE0000
FE0000
FE0000
FE0000
FE0000
FE0000
FE0000
FE0000
FE0000
FE0000
FE0000
FE0000
FFFF00
FFFF00
FFFF00
FFFF00
FFFF00
FFFF00
FE0000
FE0000
FE0000
FE0000
FE0000
FE0000
FE0000
FE0000
FE0000
FE0000
FE0000
FE0000
FE0000
FE0000
FE0000
FFFFE0
FFFFE0
FFFFE0
FFFFE0
FFFFE0
FFFFE0
ENDCHAR
STARTCHAR Ecircumflex
ENCODING 202
SWIDTH 363 0
DWIDTH 23 0
BBX 19 56 3 0
BITMAP
03F800
07F800
0FFC00
0FFE00
1FFE00
3F3F00
3E1F80
7C0FC0
000000
000000
000000
FFFFE0
FFFFE0
FFFFE0
FFFFE0
FFFFE0
FFFFE0
FE0000
FE0000
FE0000
FE0000
FE0000
FE0000
FE0000
FE0000
FE0000
FE0000
FE0000
FE0000
FFFF00
FFFF00
FFFF00
FFFF00
FFFF00
FFFF00
FE0000
FE0000
FE0000
FE0000
FE0000
FE0000
FE0000
FE0000
FE0000
FE0000
FE0000
FE0000
FE0000
FE0000
FE0000
FFFFE0
FFFFE0
FFFFE0
FFFFE0
FFFFE0
FFFFE0
ENDCHAR
STARTCHAR Edieresis
ENCODING 203
SWIDTH 363 0
DWIDTH 23 0
BBX 19 54 3 0
BITMAP
7E1F80
7E1F80
7E1F80
7E1F80
7E1F80
7E1F80
000000
000000
000000
FFFFE0
FFFFE0
FFFFE0
FFFFE0
FFFFE0
FFFFE0
FE0000
FE0000
FE0000
FE0000
FE0000
FE0000
FE0000
FE0000
FE0000
FE0000
FE0000
FE0000
FFFF00
FFFF00
FFFF00
FFFF00
FFFF00
FFFF00
FE0000
FE0000
FE0000
FE0000
FE0000
FE0000
FE0000
FE0000
FE0000
FE0000
FE0000
FE0000
FE0000
FE0000
FE0000
FFFFE0
FFFFE0
FFFFE0
FFFFE0
FFFFE0
FFFFE0
ENDCHAR
STARTCHAR Igrave
ENCODING 204
SWIDTH 192 0
DWIDTH 12 0
BBX 12 55 -2 0
BITMAP
FF00
7F00
3F80
1FC0
0FC0
07E0
03F0
0000
0000
0000
07F0
07F0
07F0
07F0
07F0
07F0
07F0
07F0
07F0
07F0
07F0
07F0
07F0
07F0
07F0
07F0
07F0
07F0
07F0
07F0
07F0
07F0
07F0
07F0
07F0
07F0
07F0
07F0
07F0
07F0
07F0
07F0
07F0
07F0
07F0
07F0
07F0
07F0
07F0
07F0
07F0
07F0
07F0
07F0
07F0
ENDCHAR
STARTCHAR Iacute
ENCODING 205
SWIDTH 192 0
DWIDTH 12 0
BBX 12 55 2 0
BITMAP
0FF0
0FE0
1FC0
1F80
3F00
7E00
FC00
0000
0000
0000
7F00
7F00
7F00
7F00
7F00
7F00
7F00
7F00
7F00
7F00
7F00
7F00
7F00
7F00
7F00
7F00
7F00
7F00
7F00
7F00
7F00
7F00
7F00
7F00
7F00
7F00
7F00
7F00
7F00
7F00
7F00
7F00
7F00
7F00
7F00
7F00
7F00
7F00
7F00
7F00
7F00
7F00
7F00
7F00
7F00
ENDCHAR
STARTCHAR Icircumflex
ENCODING 206
SWIDTH 192 0
DWIDTH 12 0
BBX 17 56 -2 0
BITMAP
07E000
0FF000
1FF800
1FFC00
3FFC00
7E7E00
7C3F00
F81F80
000000
000000
000000
07F000
07F000
07F000
07F000
07F000
07F000
07F000
07F000
07F000
07F000
07F000
07F000
07F000
07F000
07F000
07F000
07F000
07F000
07F000
07F000
07F000
07F000
07F000
07F000
07F000
07F000
07F000
07F000
07F000
07F000
07F000
07F000
07F000
07F000
07F000
07F000
07F000
07F000
07F000
07F000
07F000
07F000
07F000
07F000
07F000
ENDCHAR
STARTCHAR Idieresis
ENCODING 207
SWIDTH 192 0
DWIDTH 12 0
BBX 16 54 -2 0
BITMAP
FC3F
FC3F
FC3F
FC3F
FC3F
FC3F
0000
0000
0000
07F0
07F0
07F0
07F0
07F0
07F0
07F0
07F0
07F0
07F0
07F0
07F0
07F0
07F0
07F0
07F0
07F0
07F0
07F0
07F0
07F0
07F0
07F0
07F0
07F0
07F0
07F0
07F0
07F0
07F0
07F0
07F0
07F0
07F0
07F0
07F0
07F0
07F0
07F0
07F0
07F0
07F0
07F0
07F0
07F0
ENDCHAR
STARTCHAR Eth
ENCODING 208
SWIDTH 423 0
DWIDTH 27 0
BBX 24 45 1 0
BITMAP
1FFF80
1FFFF0
1FFFF8
1FFFFC
1FFFFE
1FFFFE
1FC7FE
1FC0FF
1FC07F
1FC07F
1FC07F
1FC07F
1FC07F
1FC07F
1FC07F
1FC07F
1FC07F
1FC07F
FFF87F
FFF87F
FFF87F
FFF87F
FFF87F
FFF87F
1FC07F
1FC07F
1FC07F
1FC07F
1FC07F
1FC07F
1FC07F
1FC07F
1FC07F
1FC07F
1FC07F
1FC07F
1FC07F
1FC0FF
1FC7FE
1FFFFE
1FFFFE
1FFFFC
1FFFF8
1FFFF0
1FFF80
ENDCHAR
STARTCHAR Ntilde
ENCODING 209
SWIDTH 427 0
DWIDTH 27 0
BBX 22 56 3 0
BITMAP
03C0C0
0FF1F0
1FFFE0
1FFFE0
3FFFC0
3E7F80
0C1F00
000000
000000
000000
000000
FF81FC
FF81FC
FF81FC
FF81FC
FFC1FC
FFC1FC
FFC1FC
FFC1FC
FFE1FC
FFE1FC
FFE1FC
FFE1FC
FFF1FC
FFF1FC
FDF1FC
FDF1FC
FDF9FC
FDF9FC
FCF9FC
FCF9FC
FCFDFC
FCFDFC
FC7DFC
FC7DFC
FC7FFC
FC7FFC
FC3FFC
FC3FFC
FC3FFC
FC3FFC
FC1FFC
FC1FFC
FC1FFC
FC1FFC
FC0FFC
FC0FFC
FC0FFC
FC07FC
FC07FC
FC07FC
FC07FC
FC03FC
FC03FC
FC03FC
FC03FC
ENDCHAR
STARTCHAR Ograve
ENCODING 210
SWIDTH 400 0
DWIDTH 26 0
BBX 21 56 2 -1
BITMAP
3FC000
0FE000
07F000
03F000
01F800
00FC00
007E00
000000
000000
002000
03FF00
0FFFC0
1FFFE0
3FFFF0
7FFFF0
7FFFF8
7F87F8
FF03F8
FE03F8
FE03F8
FE03F8
FE03F8
FE03F8
FE03F8
FE03F8
FE03F8
FE03F8
FE03F8
FE03F8
FE03F8
FE03F8
FE03F8
FE03F8
FE03F8
FE03F8
FE03F8
FE03F8
FE03F8
FE03F8
FE03F8
FE03F8
FE03F8
FE03F8
FE03F8
FE03F8
FE03F8
FE03F8
FF03F8
7F87F8
7FFFF8
7FFFF0
3FFFF0
1FFFE0
0FFFC0
03FF00
002000
ENDCHAR
STARTCHAR Oacute
ENCODING 211
SWIDTH 400 0
DWIDTH 26 0
BBX 21 56 2 -1
BITMAP
001FE0
003FC0
003F80
007F00
007E00
00FC00
01F800
000000
000000
002000
03FF00
0FFFC0
1FFFE0
3FFFF0
7FFFF0
7FFFF8
7F87F8
FF03F8
FE03F8
FE03F8
FE03F8
FE03F8
FE03F8
FE03F8
FE03F8
FE03F8
FE03F8
FE03F8
FE03F8
FE03F8
FE03F8
FE03F8
FE03F8
FE03F8
FE03F8
FE03F8
FE03F8
FE03F8
FE03F8
FE03F8
FE03F8
FE03F8
FE03F8
FE03F8
FE03F8
FE03F8
FE03F8
FF03F8
7F87F8
7FFFF8
7FFFF0
3FFFF0
1FFFE0
0FFFC0
03FF00
002000
ENDCHAR
STARTCHAR Ocircumflex
ENCODING 212
SWIDTH 400 0
DWIDTH 26 0
BBX 21 57 2 -1
BITMAP
01FC00
01FE00
03FF00
07FF00
07FF80
0FCFC0
1F87C0
3F03E0
000000
000000
002000
03FF00
0FFFC0
1FFFE0
3FFFF0
7FFFF0
7FFFF8
7F87F8
FF03F8
FE03F8
FE03F8
FE03F8
FE03F8
FE03F8
FE03F8
FE03F8
FE03F8
FE03F8
FE03F8
FE03F8
FE03F8
FE03F8
FE03F8
FE03F8
FE03F8
FE03F8
FE03F8
FE03F8
FE03F8
FE03F8
FE03F8
FE03F8
FE03F8
FE03F8
FE03F8
FE03F8
FE03F8
FE03F8
FF03F8
7F87F8
7FFFF8
7FFFF0
3FFFF0
1FFFE0
0FFFC0
03FF00
002000
ENDCHAR
STARTCHAR Otilde
ENCODING 213
SWIDTH 400 0
DWIDTH 26 0
BBX 21 57 2 -1
BITMAP
03C0C0
0FF1F0
1FFFE0
1FFFE0
3FFFC0
3E7F80
0C1F00
000000
000000
000000
002000
03FF00
0FFFC0
1FFFE0
3FFFF0
7FFFF0
7FFFF8
7F87F8
FF03F8
FE03F8
FE03F8
FE03F8
FE03F8
FE03F8
FE03F8
FE03F8
FE03F8
FE03F8
FE03F8
FE03F8
FE03F8
FE03F8
FE03F8
FE03F8
FE03F8
FE03F8
FE03F8
FE03F8
FE03F8
FE03F8
FE03F8
FE03F8
FE03F8
FE03F8
FE03F8
FE03F8
FE03F8
FE03F8
FF03F8
7F87F8
7FFFF8
7FFFF0
3FFFF0
1FFFE0
0FFFC0
03FF00
002000
ENDCHAR
STARTCHAR Odieresis
ENCODING 214
SWIDTH 400 0
DWIDTH 26 0
BBX 21 55 2 -1
BITMAP
1F87E0
1F87E0
1F87E0
1F87E0
1F87E0
1F87E0
000000
000000
002000
03FF00
0FFFC0
1FFFE0
3FFFF0
7FFFF0
7FFFF8
7F87F8
FF03F8
FE03F8
FE03F8
FE03F8
FE03F8
FE03F8
FE03F8
FE03F8
FE03F8
FE03F8
FE03F8
FE03F8
FE03F8
FE03F8
FE03F8
FE03F8
FE03F8
FE03F8
FE03F8
FE03F8
FE03F8
FE03F8
FE03F8
FE03F8
FE03F8
FE03F8
FE03F8
FE03F8
FE03F8
FE03F8
FF03F8
7F87F8
7FFFF8
7FFFF0
3FFFF0
1FFFE0
0FFFC0
03FF00
002000
ENDCHAR
STARTCHAR multiply
ENCODING 215
SWIDTH 400 0
DWIDTH 26 0
BBX 20 21 3 12
BITMAP
100080
3001C0
7803E0
FC07F0
FE0FE0
7F1FC0
3FBF80
1FFF00
0FFE00
07FC00
03F800
07FC00
0FFE00
0FFF00
1FBF80
3F1FC0
7E0FE0
FC07F0
F803E0
7001C0
200080
ENDCHAR
STARTCHAR Oslash
ENCODING 216
SWIDTH 400 0
DWIDTH 26 0
BBX 23 49 1 -2
BITMAP
000010
00101C
01FFBE
07FFFE
0FFFFC
1FFFFC
3FFFF8
3FFFFC
3FC3FC
7F81FC
7F01FC
7F01FC
7F03FC
7F03FC
7F03FC
7F07FC
7F07FC
7F0FFC
7F0FFC
7F0FFC
7F1FFC
7F1FFC
7F3FFC
7F3FFC
7F3DFC
7F7DFC
7F79FC
7FF9FC
7FF1FC
7FF1FC
7FF1FC
7FE1FC
7FE1FC
7FC1FC
7FC1FC
7FC1FC
7F81FC
7F81FC
7F01FC
7F81FC
3FC3FC
3FFFFC
3FFFF8
3FFFF8
7FFFF0
7FFFE0
F9FF80
381000
080000
ENDCHAR
STARTCHAR Ugrave
ENCODING 217
SWIDTH 402 0
DWIDTH 26 0
BBX 21 56 2 -1
BITMAP
1FE000
0FE000
07F000
03F000
01F800
00FC00
007E00
000000
000000
000000
FE01F8
FE01F8
FE01F8
FE01F8
FE01F8
FE01F8
FE01F8
FE01F8
FE01F8
FE01F8
FE01F8
FE01F8
FE01F8
FE01F8
FE01F8
FE01F8
FE01F8
FE01F8
FE01F8
FE01F8
FE01F8
FE01F8
FE01F8
FE01F8
FE01F8
FE01F8
FE01F8
FE01F8
FE01F8
FE01F8
FE01F8
FE01F8
FE01F8
FE01F8
FE01F8
FE01F8
FF03F8
7F03F8
7F87F8
7FFFF8
3FFFF0
3FFFF0
1FFFE0
0FFFC0
03FF00
003000
ENDCHAR
STARTCHAR Uacute
ENCODING 218
SWIDTH 402 0
DWIDTH 26 0
BBX 21 56 2 -1
BITMAP
001FE0
001FC0
003F80
007F00
007E00
00FC00
01F800
000000
000000
000000
FE01F8
FE01F8
FE01F8
FE01F8
FE01F8
FE01F8
FE01F8
FE01F8
FE01F8
FE01F8
FE01F8
FE01F8
FE01F8
FE01F8
FE01F8
FE01F8
FE01F8
FE01F8
FE01F8
FE01F8
FE01F8
FE01F8
FE01F8
FE01F8
FE01F8
FE01F8
FE01F8
FE01F8
FE01F8
FE01F8
FE01F8
FE01F8
FE01F8
FE01F8
FE01F8
FE01F8
FF03F8
7F03F8
7F87F8
7FFFF8
3FFFF0
3FFFF0
1FFFE0
0FFFC0
03FF00
003000
ENDCHAR
STARTCHAR Ucircumflex
ENCODING 219
SWIDTH 402 0
DWIDTH 26 0
BBX 21 57 2 -1
BITMAP
00FC00
01FE00
03FF00
07FF00
07FF80
0FCFC0
1F87C0
3F03E0
000000
000000
000000
FE01F8
FE01F8
FE01F8
FE01F8
FE01F8
FE01F8
FE01F8
FE01F8
FE01F8
FE01F8
FE01F8
FE01F8
FE01F8
FE01F8
FE01F8
FE01F8
FE01F8
FE01F8
FE01F8
FE01F8
FE01F8
FE01F8
FE01F8
FE01F8
FE01F8
FE01F8
FE01F8
FE01F8
FE01F8
FE01F8
FE01F8
FE01F8
FE01F8
FE01F8
FE01F8
FE01F8
FF03F8
7F03F8
7F87F8
7FFFF8
3FFFF0
3FFFF0
1FFFE0
0FFFC0
03FF00
003000
ENDCHAR
STARTCHAR Udieresis
ENCODING 220
SWIDTH 402 0
DWIDTH 26 0
BBX 21 55 2 -1
BITMAP
1F87E0
1F87E0
1F87E0
1F87E0
1F87E0
1F87E0
000000
000000
000000
FE01F8
FE01F8
FE01F8
FE01F8
FE01F8
FE01F8
FE01F8
FE01F8
FE01F8
FE01F8
FE01F8
FE01F8
FE01F8
FE01F8
FE01F8
FE01F8
FE01F8
FE01F8
FE01F8
FE01F8
FE01F8
FE01F8
FE01F8
FE01F8
FE01F8
FE01F8
FE01F8
FE01F8
FE01F8
FE01F8
FE01F8
FE01F8
FE01F8
FE01F8
FE01F8
FE01F8
FF03F8
7F03F8
7F87F8
7FFFF8
3FFFF0
3FFFF0
1FFFE0
0FFFC0
03FF00
003000
ENDCHAR
STARTCHAR Yacute
ENCODING 221
SWIDTH 394 0
DWIDTH 25 0
BBX 24 55 1 0
BITMAP
000FF0
001FC0
001F80
003F80
007F00
007E00
00FC00
000000
000000
000000
FE007F
FE00FE
FF00FE
7F00FE
7F01FC
7F81FC
3F81FC
3F81F8
3FC3F8
1FC3F8
1FC3F0
1FC7F0
0FE7F0
0FE7E0
0FE7E0
07EFE0
07FFC0
07FFC0
03FFC0
03FF80
03FF80
01FF80
01FF00
01FF00
00FF00
00FE00
00FE00
00FE00
00FE00
00FE00
00FE00
00FE00
00FE00
00FE00
00FE00
00FE00
00FE00
00FE00
00FE00
00FE00
00FE00
00FE00
00FE00
00FE00
00FE00
ENDCHAR
STARTCHAR Thorn
ENCODING 222
SWIDTH 386 0
DWIDTH 25 0
BBX 20 45 3 0
BITMAP
FE0000
FE0000
FE0000
FE0000
FE0000
FE0000
FFFC00
FFFF00
FFFFC0
FFFFC0
FFFFE0
FFFFF0
FE3FF0
FE07F0
FE07F0
FE07F0
FE07F0
FE07F0
FE07F0
FE07F0
FE07F0
FE07F0
FE07F0
FE07F0
FE07F0
FE07F0
FE3FF0
FFFFF0
FFFFE0
FFFFC0
FFFF80
FFFF00
FFFC00
FE0000
FE0000
FE0000
FE0000
FE0000
FE0000
FE0000
FE0000
FE0000
FE0000
FE0000
FE0000
ENDCHAR
STARTCHAR germandbls
ENCODING 223
SWIDTH 407 0
DWIDTH 26 0
BBX 22 45 3 0
BITMAP
FFFFF8
FFFFF8
FFFFF8
FFFFF8
FFFFF8
FFFFF8
FE03F8
FE03F8
FE07F0
FE07F0
FE0FE0
FE0FE0
FE0FE0
FE1FC0
FE1FC0
FE3F80
FE3F80
FE3F00
FE7F00
FE7FC0
FE7FE0
FE7FF0
FE7FF8
FE7FF8
FE07F8
FE03F8
FE03FC
FE01FC
FE01FC
FE01FC
FE01FC
FE01FC
FE01FC
FE01FC
FE01FC
FE03FC
FE03F8
FE03F8
FE1FF8
FE7FF8
FE7FF0
FE7FF0
FE7FE0
FE7F80
FE7E00
ENDCHAR
STARTCHAR agrave
ENCODING 224
SWIDTH 401 0
DWIDTH 26 0
BBX 24 55 1 0
BITMAP
0FF000
07F000
03F800
01F800
00FC00
007E00
003F00
000000
000000
000000
01FF80
01FF80
01FF80
03FF80
03FF80
03FF80
03FFC0
03FFC0
03EFC0
03EFC0
07EFC0
07EFC0
07EFE0
07EFE0
07E7E0
07C7E0
0FC7E0
0FC7E0
0FC7F0
0FC7F0
0FC7F0
0FC3F0
1F83F0
1F83F0
1F83F8
1F83F8
1F83F8
1F83F8
3F81F8
3F01F8
3FFFFC
3FFFFC
3FFFFC
3FFFFC
7FFFFC
7FFFFC
7F00FE
7E00FE
7E00FE
7E00FE
FE00FE
FE00FE
FE00FE
FE007F
FC007F
ENDCHAR
STARTCHAR aacute
ENCODING 225
SWIDTH 401 0
DWIDTH 26 0
BBX 24 55 1 0
BITMAP
000FF0
000FE0
001FC0
003F80
003F00
007E00
00FC00
000000
000000
000000
01FF80
01FF80
01FF80
03FF80
03FF80
03FF80
03FFC0
03FFC0
03EFC0
03EFC0
07EFC0
07EFC0
07EFE0
07EFE0
07E7E0
07C7E0
0FC7E0
0FC7E0
0FC7F0
0FC7F0
0FC7F0
0FC3F0
1F83F0
1F83F0
1F83F8
1F83F8
1F83F8
1F83F8
3F81F8
3F01F8
3FFFFC
3FFFFC
3FFFFC
3FFFFC
7FFFFC
7FFFFC
7F00FE
7E00FE
7E00FE
7E00FE
FE00FE
FE00FE
FE00FE
FE007F
FC007F
ENDCHAR
STARTCHAR acircumflex
ENCODING 226
SWIDTH 401 0
DWIDTH 26 0
BBX 24 56 1 0
BITMAP
007E00
00FF00
01FF80
03FF80
03FFC0
07E7E0
0FC3E0
1F81F0
000000
000000
000000
01FF80
01FF80
01FF80
03FF80
03FF80
03FF80
03FFC0
03FFC0
03EFC0
03EFC0
07EFC0
07EFC0
07EFE0
07EFE0
07E7E0
07C7E0
0FC7E0
0FC7E0
0FC7F0
0FC7F0
0FC7F0
0FC3F0
1F83F0
1F83F0
1F83F8
1F83F8
1F83F8
1F83F8
3F81F8
3F01F8
3FFFFC
3FFFFC
3FFFFC
3FFFFC
7FFFFC
7FFFFC
7F00FE
7E00FE
7E00FE
7E00FE
FE00FE
FE00FE
FE00FE
FE007F
FC007F
ENDCHAR
STARTCHAR atilde
ENCODING 227
SWIDTH 401 0
DWIDTH 26 0
BBX 24 56 1 0
BITMAP
01E060
07F8F8
07FFF0
0FFFF0
1FFFE0
1F3FC0
060F80
000000
000000
000000
000000
01FF80
01FF80
01FF80
03FF80
03FF80
03FF80
03FFC0
03FFC0
03EFC0
03EFC0
07EFC0
07EFC0
07EFE0
07EFE0
07E7E0
07C7E0
0FC7E0
0FC7E0
0FC7F0
0FC7F0
0FC7F0
0FC3F0
1F83F0
1F83F0
1F83F8
1F83F8
1F83F8
1F83F8
3F81F8
3F01F8
3FFFFC
3FFFFC
3FFFFC
3FFFFC
7FFFFC
7FFFFC
7F00FE
7E00FE
7E00FE
7E00FE
FE00FE
FE00FE
FE00FE
FE007F
FC007F
ENDCHAR
STARTCHAR adieresis
ENCODING 228
SWIDTH 401 0
DWIDTH 26 0
BBX 24 54 1 0
BITMAP
0FC3F0
0FC3F0
0FC3F0
0FC3F0
0FC3F0
0FC3F0
000000
000000
000000
01FF80
01FF80
01FF80
03FF80
03FF80
03FF80
03FFC0
03FFC0
03EFC0
03EFC0
07EFC0
07EFC0
07EFE0
07EFE0
07E7E0
07C7E0
0FC7E0
0FC7E0
0FC7F0
0FC7F0
0FC7F0
0FC3F0
1F83F0
1F83F0
1F83F8
1F83F8
1F83F8
1F83F8
3F81F8
3F01F8
3FFFFC
3FFFFC
3FFFFC
3FFFFC
7FFFFC
7FFFFC
7F00FE
7E00FE
7E00FE
7E00FE
FE00FE
FE00FE
FE00FE
FE007F
FC007F
ENDCHAR
STARTCHAR aring
ENCODING 229
SWIDTH 401 0
DWIDTH 26 0
BBX 24 59 1 0
BITMAP
007C00
00FF00
01FF80
03E780
03C380
03C3C0
03C380
01E780
01FF80
00FF00
007C00
000000
000000
000000
01FF80
01FF80
01FF80
03FF80
03FF80
03FF80
03FFC0
03FFC0
03EFC0
03EFC0
07EFC0
07EFC0
07EFE0
07EFE0
07E7E0
07C7E0
0FC7E0
0FC7E0
0FC7F0
0FC7F0
0FC7F0
0FC3F0
1F83F0
1F83F0
1F83F8
1F83F8
1F83F8
1F83F8
3F81F8
3F01F8
3FFFFC
3FFFFC
3FFFFC
3FFFFC
7FFFFC
7FFFFC
7F00FE
7E00FE
7E00FE
7E00FE
FE00FE
FE00FE
FE00FE
FE007F
FC007F
ENDCHAR
STARTCHAR ae
ENCODING 230
SWIDTH 580 0
DWIDTH 37 0
BBX 35 45 1 0
BITMAP
001FFFFFE0
001FFFFFE0
001FFFFFE0
001FFFFFE0
003FFFFFE0
003FFFFFE0
003FFE0000
003FFE0000
007FFE0000
007EFE0000
007EFE0000
007EFE0000
00FCFE0000
00FCFE0000
00FCFE0000
01FCFE0000
01F8FE0000
01F8FE0000
01F8FFFF00
03F8FFFF00
03F8FFFF00
03F0FFFF00
03F0FFFF00
07F0FFFF00
07F0FE0000
07E0FE0000
07E0FE0000
0FE0FE0000
0FE0FE0000
0FC0FE0000
1FFFFE0000
1FFFFE0000
1FFFFE0000
1FFFFE0000
3FFFFE0000
3FFFFE0000
3F80FE0000
3F00FE0000
7F00FE0000
7F00FFFFE0
7F00FFFFE0
7E00FFFFE0
FE00FFFFE0
FE00FFFFE0
FE00FFFFE0
ENDCHAR
STARTCHAR ccedilla
ENCODING 231
SWIDTH 383 0
DWIDTH 25 0
BBX 21 56 2 -10
BITMAP
002000
07FF00
0FFF80
1FFFC0
3FFFE0
7FFFF0
7FFFF0
7F87F0
FF03F8
FE03F8
FE03F8
FE03F8
FE03F8
FE03F8
FE03F8
FE03F8
FE03F8
FE0000
FE0000
FE0000
FE0000
FE0000
FE0000
FE0000
FE0000
FE0000
FE0000
FE0000
FE0000
FE0000
FE03F8
FE03F8
FE03F8
FE03F8
FE03F8
FE03F8
FE03F8
FE03F8
FE03F8
7F03F8
7F87F0
7FFFF0
3FFFF0
3FFFE0
1FFFC0
07FF80
01FE00
007000
007000
007E00
001F00
000F80
0F8F80
0FDF00
07FF00
03FC00
ENDCHAR
STARTCHAR egrave
ENCODING 232
SWIDTH 363 0
DWIDTH 23 0
BBX 19 55 3 0
BITMAP
7F8000
3FC000
1FC000
0FE000
07E000
03F000
01F800
000000
000000
000000
FFFFE0
FFFFE0
FFFFE0
FFFFE0
FFFFE0
FFFFE0
FE0000
FE0000
FE0000
FE0000
FE0000
FE0000
FE0000
FE0000
FE0000
FE0000
FE0000
FE0000
FFFF00
FFFF00
FFFF00
FFFF00
FFFF00
FFFF00
FE0000
FE0000
FE0000
FE0000
FE0000
FE0000
FE0000
FE0000
FE0000
FE0000
FE0000
FE0000
FE0000
FE0000
FE0000
FFFFE0
FFFFE0
FFFFE0
FFFFE0
FFFFE0
FFFFE0
ENDCHAR
STARTCHAR eacute
ENCODING 233
SWIDTH 363 0
DWIDTH 23 0
BBX 19 55 3 0
BITMAP
003FC0
007F00
00FE00
00FC00
01F800
03F000
07E000
000000
000000
000000
FFFFE0
FFFFE0
FFFFE0
FFFFE0
FFFFE0
FFFFE0
FE0000
FE0000
FE0000
FE0000
FE0000
FE0000
FE0000
FE0000
FE0000
FE0000
FE0000
FE0000
FFFF00
FFFF00
FFFF00
FFFF00
FFFF00
FFFF00
FE0000
FE0000
FE0000
FE0000
FE0000
FE0000
FE0000
FE0000
FE0000
FE0000
FE0000
FE0000
FE0000
FE0000
FE0000
FFFFE0
FFFFE0
FFFFE0
FFFFE0
FFFFE0
FFFFE0
ENDCHAR
STARTCHAR ecircumflex
ENCODING 234
SWIDTH 363 0
DWIDTH 23 0
BBX 19 56 3 0
BITMAP
03F800
07F800
0FFC00
0FFE00
1FFE00
3F3F00
3E1F80
7C0FC0
000000
000000
000000
FFFFE0
FFFFE0
FFFFE0
FFFFE0
FFFFE0
FFFFE0
FE0000
FE0000
FE0000
FE0000
FE0000
FE0000
FE0000
FE0000
FE0000
FE0000
FE0000
FE0000
FFFF00
FFFF00
FFFF00
FFFF00
FFFF00
FFFF00
FE0000
FE0000
FE0000
FE0000
FE0000
FE0000
FE0000
FE0000
FE0000
FE0000
FE0000
FE0000
FE0000
FE0000
FE0000
FFFFE0
FFFFE0
FFFFE0
FFFFE0
FFFFE0
FFFFE0
ENDCHAR
STARTCHAR edieresis
ENCODING 235
SWIDTH 363 0
DWIDTH 23 0
BBX 19 54 3 0
BITMAP
7E1F80
7E1F80
7E1F80
7E1F80
7E1F80
7E1F80
000000
000000
000000
FFFFE0
FFFFE0
FFFFE0
FFFFE0
FFFFE0
FFFFE0
FE0000
FE0000
FE0000
FE0000
FE0000
FE0000
FE0000
FE0000
FE0000
FE0000
FE0000
FE0000
FFFF00
FFFF00
FFFF00
FFFF00
FFFF00
FFFF00
FE0000
FE0000
FE0000
FE0000
FE0000
FE0000
FE0000
FE0000
FE0000
FE0000
FE0000
FE0000
FE0000
FE0000
FE0000
FFFFE0
FFFFE0
FFFFE0
FFFFE0
FFFFE0
FFFFE0
ENDCHAR
STARTCHAR igrave
ENCODING 236
SWIDTH 192 0
DWIDTH 12 0
BBX 12 55 -2 0
BITMAP
FF00
7F00
3F80
1FC0
0FC0
07E0
03F0
0000
0000
0000
07F0
07F0
07F0
07F0
07F0
07F0
07F0
07F0
07F0
07F0
07F0
07F0
07F0
07F0
07F0
07F0
07F0
07F0
07F0
07F0
07F0
07F0
07F0
07F0
07F0
07F0
07F0
07F0
07F0
07F0
07F0
07F0
07F0
07F0
07F0
07F0
07F0
07F0
07F0
07F0
07F0
07F0
07F0
07F0
07F0
ENDCHAR
STARTCHAR iacute
ENCODING 237
SWIDTH 192 0
DWIDTH 12 0
BBX 12 55 2 0
BITMAP
0FF0
0FE0
1FC0
1F80
3F00
7E00
FC00
0000
0000
0000
7F00
7F00
7F00
7F00
7F00
7F00
7F00
7F00
7F00
7F00
7F00
7F00
7F00
7F00
7F00
7F00
7F00
7F00
7F00
7F00
7F00
7F00
7F00
7F00
7F00
7F00
7F00
7F00
7F00
7F00
7F00
7F00
7F00
7F00
7F00
7F00
7F00
7F00
7F00
7F00
7F00
7F00
7F00
7F00
7F00
ENDCHAR
STARTCHAR icircumflex
ENCODING 238
SWIDTH 192 0
DWIDTH 12 0
BBX 17 56 -2 0
BITMAP
07E000
0FF000
1FF800
1FFC00
3FFC00
7E7E00
7C3F00
F81F80
000000
000000
000000
07F000
07F000
07F000
07F000
07F000
07F000
07F000
07F000
07F000
07F000
07F000
07F000
07F000
07F000
07F000
07F000
07F000
07F000
07F000
07F000
07F000
07F000
07F000
07F000
07F000
07F000
07F000
07F000
07F000
07F000
07F000
07F000
07F000
07F000
07F000
07F000
07F000
07F000
07F000
07F000
07F000
07F000
07F000
07F000
07F000
ENDCHAR
STARTCHAR idieresis
ENCODING 239
SWIDTH 192 0
DWIDTH 12 0
BBX 16 54 -2 0
BITMAP
FC3F
FC3F
FC3F
FC3F
FC3F
FC3F
0000
0000
0000
07F0
07F0
07F0
07F0
07F0
07F0
07F0
07F0
07F0
07F0
07F0
07F0
07F0
07F0
07F0
07F0
07F0
07F0
07F0
07F0
07F0
07F0
07F0
07F0
07F0
07F0
07F0
07F0
07F0
07F0
07F0
07F0
07F0
07F0
07F0
07F0
07F0
07F0
07F0
07F0
07F0
07F0
07F0
07F0
07F0
ENDCHAR
STARTCHAR eth
ENCODING 240
SWIDTH 423 0
DWIDTH 27 0
BBX 24 45 1 0
BITMAP
1FFF80
1FFFF0
1FFFF8
1FFFFC
1FFFFE
1FFFFE
1FC7FE
1FC0FF
1FC07F
1FC07F
1FC07F
1FC07F
1FC07F
1FC07F
1FC07F
1FC07F
1FC07F
1FC07F
FFF87F
FFF87F
FFF87F
FFF87F
FFF87F
FFF87F
1FC07F
1FC07F
1FC07F
1FC07F
1FC07F
1FC07F
1FC07F
1FC07F
1FC07F
1FC07F
1FC07F
1FC07F
1FC07F
1FC0FF
1FC7FE
1FFFFE
1FFFFE
1FFFFC
1FFFF8
1FFFF0
1FFF80
ENDCHAR
STARTCHAR ntilde
ENCODING 241
SWIDTH 427 0
DWIDTH 27 0
BBX 22 56 3 0
BITMAP
03C0C0
0FF1F0
1FFFE0
1FFFE0
3FFFC0
3E7F80
0C1F00
000000
000000
000000
000000
FF81FC
FF81FC
FF81FC
FF81FC
FFC1FC
FFC1FC
FFC1FC
FFC1FC
FFE1FC
FFE1FC
FFE1FC
FFE1FC
FFF1FC
FFF1FC
FDF1FC
FDF1FC
FDF9FC
FDF9FC
FCF9FC
FCF9FC
FCFDFC
FCFDFC
FC7DFC
FC7DFC
FC7FFC
FC7FFC
FC3FFC
FC3FFC
FC3FFC
FC3FFC
FC1FFC
FC1FFC
FC1FFC
FC1FFC
FC0FFC
FC0FFC
FC0FFC
FC07FC
FC07FC
FC07FC
FC07FC
FC03FC
FC03FC
FC03FC
FC03FC
ENDCHAR
STARTCHAR ograve
ENCODING 242
SWIDTH 400 0
DWIDTH 26 0
BBX 21 56 2 -1
BITMAP
3FC000
0FE000
07F000
03F000
01F800
00FC00
007E00
000000
000000
002000
03FF00
0FFFC0
1FFFE0
3FFFF0
7FFFF0
7FFFF8
7F87F8
FF03F8
FE03F8
FE03F8
FE03F8
FE03F8
FE03F8
FE03F8
FE03F8
FE03F8
FE03F8
FE03F8
FE03F8
FE03F8
FE03F8
FE03F8
FE03F8
FE03F8
FE03F8
FE03F8
FE03F8
FE03F8
FE03F8
FE03F8
FE03F8
FE03F8
FE03F8
FE03F8
FE03F8
FE03F8
FE03F8
FF03F8
7F87F8
7FFFF8
7FFFF0
3FFFF0
1FFFE0
0FFFC0
03FF00
002000
ENDCHAR
STARTCHAR oacute
ENCODING 243
SWIDTH 400 0
DWIDTH 26 0
BBX 21 56 2 -1
BITMAP
001FE0
003FC0
003F80
007F00
007E00
00FC00
01F800
000000
000000
002000
03FF00
0FFFC0
1FFFE0
3FFFF0
7FFFF0
7FFFF8
7F87F8
FF03F8
FE03F8
FE03F8
FE03F8
FE03F8
FE03F8
FE03F8
FE03F8
FE03F8
FE03F8
FE03F8
FE03F8
FE03F8
FE03F8
FE03F8
FE03F8
FE03F8
FE03F8
FE03F8
FE03F8
FE03F8
FE03F8
FE03F8
FE03F8
FE03F8
FE03F8
FE03F8
FE03F8
FE03F8
FE03F8
FF03F8
7F87F8
7FFFF8
7FFFF0
3FFFF0
1FFFE0
0FFFC0
03FF00
002000
ENDCHAR
STARTCHAR ocircumflex
ENCODING 244
SWIDTH 400 0
DWIDTH 26 0
BBX 21 57 2 -1
BITMAP
01FC00
01FE00
03FF00
07FF00
07FF80
0FCFC0
1F87C0
3F03E0
000000
000000
002000
03FF00
0FFFC0
1FFFE0
3FFFF0
7FFFF0
7FFFF8
7F87F8
FF03F8
FE03F8
FE03F8
FE03F8
FE03F8
FE03F8
FE03F8
FE03F8
FE03F8
FE03F8
FE03F8
FE03F8
FE03F8
FE03F8
FE03F8
FE03F8
FE03F8
FE03F8
FE03F8
FE03F8
FE03F8
FE03F8
FE03F8
FE03F8
FE03F8
FE03F8
FE03F8
FE03F8
FE03F8
FE03F8
FF03F8
7F87F8
7FFFF8
7FFFF0
3FFFF0
1FFFE0
0FFFC0
03FF00
002000
ENDCHAR
STARTCHAR otilde
ENCODING 245
SWIDTH 400 0
DWIDTH 26 0
BBX 21 57 2 -1
BITMAP
03C0C0
0FF1F0
1FFFE0
1FFFE0
3FFFC0
3E7F80
0C1F00
000000
000000
000000
002000
03FF00
0FFFC0
1FFFE0
3FFFF0
7FFFF0
7FFFF8
7F87F8
FF03F8
FE03F8
FE03F8
FE03F8
FE03F8
FE03F8
FE03F8
FE03F8
FE03F8
FE03F8
FE03F8
FE03F8
FE03F8
FE03F8
FE03F8
FE03F8
FE03F8
FE03F8
FE03F8
FE03F8
FE03F8
FE03F8
FE03F8
FE03F8
FE03F8
FE03F8
FE03F8
FE03F8
FE03F8
FE03F8
FF03F8
7F87F8
7FFFF8
7FFFF0
3FFFF0
1FFFE0
0FFFC0
03FF00
002000
ENDCHAR
STARTCHAR odieresis
ENCODING 246
SWIDTH 400 0
DWIDTH 26 0
BBX 21 55 2 -1
BITMAP
1F87E0
1F87E0
1F87E0
1F87E0
1F87E0
1F87E0
000000
000000
002000
03FF00
0FFFC0
1FFFE0
3FFFF0
7FFFF0
7FFFF8
7F87F8
FF03F8
FE03F8
FE03F8
FE03F8
FE03F8
FE03F8
FE03F8
FE03F8
FE03F8
FE03F8
FE03F8
FE03F8
FE03F8
FE03F8
FE03F8
FE03F8
FE03F8
FE03F8
FE03F8
FE03F8
FE03F8
FE03F8
FE03F8
FE03F8
FE03F8
FE03F8
FE03F8
FE03F8
FE03F8
FE03F8
FF03F8
7F87F8
7FFFF8
7FFFF0
3FFFF0
1FFFE0
0FFFC0
03FF00
002000
ENDCHAR
STARTCHAR divide
ENCODING 247
SWIDTH 400 0
DWIDTH 26 0
BBX 22 26 2 9
BITMAP
01FC00
01FC00
01FC00
01FC00
01FC00
01FC00
000000
000000
000000
000000
FFFFFC
FFFFFC
FFFFFC
FFFFFC
FFFFFC
000000
000000
000000
000000
000000
01FC00
01FC00
01FC00
01FC00
01FC00
01FC00
ENDCHAR
STARTCHAR oslash
ENCODING 248
SWIDTH 400 0
DWIDTH 26 0
BBX 23 49 1 -2
BITMAP
000010
00101C
01FFBE
07FFFE
0FFFFC
1FFFFC
3FFFF8
3FFFFC
3FC3FC
7F81FC
7F01FC
7F01FC
7F03FC
7F03FC
7F03FC
7F07FC
7F07FC
7F0FFC
7F0FFC
7F0FFC
7F1FFC
7F1FFC
7F3FFC
7F3FFC
7F3DFC
7F7DFC
7F79FC
7FF9FC
7FF1FC
7FF1FC
7FF1FC
7FE1FC
7FE1FC
7FC1FC
7FC1FC
7FC1FC
7F81FC
7F81FC
7F01FC
7F81FC
3FC3FC
3FFFFC
3FFFF8
3FFFF8
7FFFF0
7FFFE0
F9FF80
381000
080000
ENDCHAR
STARTCHAR ugrave
ENCODING 249
SWIDTH 402 0
DWIDTH 26 0
BBX 21 56 2 -1
BITMAP
1FE000
0FE000
07F000
03F000
01F800
00FC00
007E00
000000
000000
000000
FE01F8
FE01F8
FE01F8
FE01F8
FE01F8
FE01F8
FE01F8
FE01F8
FE01F8
FE01F8
FE01F8
FE01F8
FE01F8
FE01F8
FE01F8
FE01F8
FE01F8
FE01F8
FE01F8
FE01F8
FE01F8
FE01F8
FE01F8
FE01F8
FE01F8
FE01F8
FE01F8
FE01F8
FE01F8
FE01F8
FE01F8
FE01F8
FE01F8
FE01F8
FE01F8
FE01F8
FF03F8
7F03F8
7F87F8
7FFFF8
3FFFF0
3FFFF0
1FFFE0
0FFFC0
03FF00
003000
ENDCHAR
STARTCHAR uacute
ENCODING 250
SWIDTH 402 0
DWIDTH 26 0
BBX 21 56 2 -1
BITMAP
001FE0
001FC0
003F80
007F00
007E00
00FC00
01F800
000000
000000
000000
FE01F8
FE01F8
FE01F8
FE01F8
FE01F8
FE01F8
FE01F8
FE01F8
FE01F8
FE01F8
FE01F8
FE01F8
FE01F8
FE01F8
FE01F8
FE01F8
FE01F8
FE01F8
FE01F8
FE01F8
FE01F8
FE01F8
FE01F8
FE01F8
FE01F8
FE01F8
FE01F8
FE01F8
FE01F8
FE01F8
FE01F8
FE01F8
FE01F8
FE01F8
FE01F8
FE01F8
FF03F8
7F03F8
7F87F8
7FFFF8
3FFFF0
3FFFF0
1FFFE0
0FFFC0
03FF00
003000
ENDCHAR
STARTCHAR ucircumflex
ENCODING 251
SWIDTH 402 0
DWIDTH 26 0
BBX 21 57 2 -1
BITMAP
00FC00
01FE00
03FF00
07FF00
07FF80
0FCFC0
1F87C0
3F03E0
000000
000000
000000
FE01F8
FE01F8
FE01F8
FE01F8
FE01F8
FE01F8
FE01F8
FE01F8
FE01F8
FE01F8
FE01F8
FE01F8
FE01F8
FE01F8
FE01F8
FE01F8
FE01F8
FE01F8
FE01F8
FE01F8
FE01F8
FE01F8
FE01F8
FE01F8
FE01F8
FE01F8
FE01F8
FE01F8
FE01F8
FE01F8
FE01F8
FE01F8
FE01F8
FE01F8
FE01F8
FE01F8
FF03F8
7F03F8
7F87F8
7FFFF8
3FFFF0
3FFFF0
1FFFE0
0FFFC0
03FF00
003000
ENDCHAR
STARTCHAR udieresis
ENCODING 252
SWIDTH 402 0
DWIDTH 26 0
BBX 21 55 2 -1
BITMAP
1F87E0
1F87E0
1F87E0
1F87E0
1F87E0
1F87E0
000000
000000
000000
FE01F8
FE01F8
FE01F8
FE01F8
FE01F8
FE01F8
FE01F8
FE01F8
FE01F8
FE01F8
FE01F8
FE01F8
FE01F8
FE01F8
FE01F8
FE01F8
FE01F8
FE01F8
FE01F8
FE01F8
FE01F8
FE01F8
FE01F8
FE01F8
FE01F8
FE01F8
FE01F8
FE01F8
FE01F8
FE01F8
FE01F8
FE01F8
FE01F8
FE01F8
FE01F8
FE01F8
FF03F8
7F03F8
7F87F8
7FFFF8
3FFFF0
3FFFF0
1FFFE0
0FFFC0
03FF00
003000
ENDCHAR
STARTCHAR yacute
ENCODING 253
SWIDTH 394 0
DWIDTH 25 0
BBX 24 55 1 0
BITMAP
000FF0
001FC0
001F80
003F80
007F00
007E00
00FC00
000000
000000
000000
FE007F
FE00FE
FF00FE
7F00FE
7F01FC
7F81FC
3F81FC
3F81F8
3FC3F8
1FC3F8
1FC3F0
1FC7F0
0FE7F0
0FE7E0
0FE7E0
07EFE0
07FFC0
07FFC0
03FFC0
03FF80
03FF80
01FF80
01FF00
01FF00
00FF00
00FE00
00FE00
00FE00
00FE00
00FE00
00FE00
00FE00
00FE00
00FE00
00FE00
00FE00
00FE00
00FE00
00FE00
00FE00
00FE00
00FE00
00FE00
00FE00
00FE00
ENDCHAR
STARTCHAR thorn
ENCODING 254
SWIDTH 386 0
DWIDTH 25 0
BBX 20 45 3 0
BITMAP
FE0000
FE0000
FE0000
FE0000
FE0000
FE0000
FFFC00
FFFF00
FFFFC0
FFFFC0
FFFFE0
FFFFF0
FE3FF0
FE07F0
FE07F0
FE07F0
FE07F0
FE07F0
FE07F0
FE07F0
FE07F0
FE07F0
FE07F0
FE07F0
FE07F0
FE07F0
FE3FF0
FFFFF0
FFFFE0
FFFFC0
FFFF80
FFFF00
FFFC00
FE0000
FE0000
FE0000
FE0000
FE0000
FE0000
FE0000
FE0000
FE0000
FE0000
FE0000
FE0000
ENDCHAR
STARTCHAR ydieresis
ENCODING 255
SWIDTH 394 0
DWIDTH 25 0
BBX 24 54 1 0
BITMAP
0FC7F0
0FC7F0
0FC7F0
0FC7F0
0FC7F0
0FC7F0
000000
000000
000000
FE007F
FE00FE
FF00FE
7F00FE
7F01FC
7F81FC
3F81FC
3F81F8
3FC3F8
1FC3F8
1FC3F0
1FC7F0
0FE7F0
0FE7E0
0FE7E0
07EFE0
07FFC0
07FFC0
03FFC0
03FF80
03FF80
01FF80
01FF00
01FF00
00FF00
00FE00
00FE00
00FE00
00FE00
00FE00
00FE00
00FE00
00FE00
00FE00
00FE00
00FE00
00FE00
00FE00
00FE00
00FE00
00FE00
00FE00
00FE00
00FE00
00FE00
ENDCHAR
STARTCHAR Amacron
ENCODING 256
SWIDTH 401 0
DWIDTH 26 0
BBX 24 54 1 0
BITMAP
0FFFE0
0FFFE0
0FFFE0
0FFFE0
0FFFE0
000000
000000
000000
000000
01FF80
01FF80
01FF80
03FF80
03FF80
03FF80
03FFC0
03FFC0
03EFC0
03EFC0
07EFC0
07EFC0
07EFE0
07EFE0
07E7E0
07C7E0
0FC7E0
0FC7E0
0FC7F0
0FC7F0
0FC7F0
0FC3F0
1F83F0
1F83F0
1F83F8
1F83F8
1F83F8
1F83F8
3F81F8
3F01F8
3FFFFC
3FFFFC
3FFFFC
3FFFFC
7FFFFC
7FFFFC
7F00FE
7E00FE
7E00FE
7E00FE
FE00FE
FE00FE
FE00FE
FE007F
FC007F
ENDCHAR
STARTCHAR amacron
ENCODING 257
SWIDTH 401 0
DWIDTH 26 0
BBX 24 54 1 0
BITMAP
0FFFE0
0FFFE0
0FFFE0
0FFFE0
0FFFE0
000000
000000
000000
000000
01FF80
01FF80
01FF80
03FF80
03FF80
03FF80
03FFC0
03FFC0
03EFC0
03EFC0
07EFC0
07EFC0
07EFE0
07EFE0
07E7E0
07C7E0
0FC7E0
0FC7E0
0FC7F0
0FC7F0
0FC7F0
0FC3F0
1F83F0
1F83F0
1F83F8
1F83F8
1F83F8
1F83F8
3F81F8
3F01F8
3FFFFC
3FFFFC
3FFFFC
3FFFFC
7FFFFC
7FFFFC
7F00FE
7E00FE
7E00FE
7E00FE
FE00FE
FE00FE
FE00FE
FE007F
FC007F
ENDCHAR
STARTCHAR Abreve
ENCODING 258
SWIDTH 401 0
DWIDTH 26 0
BBX 24 56 1 0
BITMAP
0F01E0
0F81E0
07C3E0
07FFE0
07FFC0
03FFC0
01FF80
007E00
000000
000000
000000
01FF80
01FF80
01FF80
03FF80
03FF80
03FF80
03FFC0
03FFC0
03EFC0
03EFC0
07EFC0
07EFC0
07EFE0
07EFE0
07E7E0
07C7E0
0FC7E0
0FC7E0
0FC7F0
0FC7F0
0FC7F0
0FC3F0
1F83F0
1F83F0
1F83F8
1F83F8
1F83F8
1F83F8
3F81F8
3F01F8
3FFFFC
3FFFFC
3FFFFC
3FFFFC
7FFFFC
7FFFFC
7F00FE
7E00FE
7E00FE
7E00FE
FE00FE
FE00FE
FE00FE
FE007F
FC007F
ENDCHAR
STARTCHAR abreve
ENCODING 259
SWIDTH 401 0
DWIDTH 26 0
BBX 24 56 1 0
BITMAP
0F01E0
0F81E0
07C3E0
07FFE0
07FFC0
03FFC0
01FF80
007E00
000000
000000
000000
01FF80
01FF80
01FF80
03FF80
03FF80
03FF80
03FFC0
03FFC0
03EFC0
03EFC0
07EFC0
07EFC0
07EFE0
07EFE0
07E7E0
07C7E0
0FC7E0
0FC7E0
0FC7F0
0FC7F0
0FC7F0
0FC3F0
1F83F0
1F83F0
1F83F8
1F83F8
1F83F8
1F83F8
3F81F8
3F01F8
3FFFFC
3FFFFC
3FFFFC
3FFFFC
7FFFFC
7FFFFC
7F00FE
7E00FE
7E00FE
7E00FE
FE00FE
FE00FE
FE00FE
FE007F
FC007F
ENDCHAR
STARTCHAR Aogonek
ENCODING 260
SWIDTH 401 0
DWIDTH 26 0
BBX 24 55 1 -10
BITMAP
01FF80
01FF80
01FF80
03FF80
03FF80
03FF80
03FFC0
03FFC0
03EFC0
03EFC0
07EFC0
07EFC0
07EFE0
07EFE0
07E7E0
07C7E0
0FC7E0
0FC7E0
0FC7F0
0FC7F0
0FC7F0
0FC3F0
1F83F0
1F83F0
1F83F8
1F83F8
1F83F8
1F83F8
3F81F8
3F01F8
3FFFFC
3FFFFC
3FFFFC
3FFFFC
7FFFFC
7FFFFC
7F00FE
7E00FE
7E00FE
7E00FE
FE00FE
FE00FE
FE00FE
FE007F
FC007F
000078
0000F0
0001F0
0003E0
0003E0
0003F0
0003FF
0003FF
0001FF
0000FE
ENDCHAR
STARTCHAR aogonek
ENCODING 261
SWIDTH 401 0
DWIDTH 26 0
BBX 24 55 1 -10
BITMAP
01FF80
01FF80
01FF80
03FF80
03FF80
03FF80
03FFC0
03FFC0
03EFC0
03EFC0
07EFC0
07EFC0
07EFE0
07EFE0
07E7E0
07C7E0
0FC7E0
0FC7E0
0FC7F0
0FC7F0
0FC7F0
0FC3F0
1F83F0
1F83F0
1F83F8
1F83F8
1F83F8
1F83F8
3F81F8
3F01F8
3FFFFC
3FFFFC
3FFFFC
3FFFFC
7FFFFC
7FFFFC
7F00FE
7E00FE
7E00FE
7E00FE
FE00FE
FE00FE
FE00FE
FE007F
FC007F
000078
0000F0
0001F0
0003E0
0003E0
0003F0
0003FF
0003FF
0001FF
0000FE
ENDCHAR
STARTCHAR Cacute
ENCODING 262
SWIDTH 383 0
DWIDTH 25 0
BBX 21 56 2 -1
BITMAP
001FE0
003F80
007F00
007E00
00FC00
01F800
01F000
000000
000000
002000
07FF00
0FFF80
1FFFC0
3FFFE0
7FFFF0
7FFFF0
7F87F0
FF03F8
FE03F8
FE03F8
FE03F8
FE03F8
FE03F8
FE03F8
FE03F8
FE0000
FE0000
FE0000
FE0000
FE0000
FE0000
FE0000
FE0000
FE0000
FE0000
FE0000
FE0000
FE0000
FE03F8
FE03F8
FE03F8
FE03F8
FE03F8
FE03F8
FE03F8
FE03F8
FE03F8
FF03F8
7F87F0
7FFFF0
7FFFF0
3FFFE0
1FFFC0
0FFF80
07FF00
002000
ENDCHAR
STARTCHAR cacute
ENCODING 263
SWIDTH 383 0
DWIDTH 25 0
BBX 21 56 2 -1
BITMAP
001FE0
003F80
007F00
007E00
00FC00
01F800
01F000
000000
000000
002000
07FF00
0FFF80
1FFFC0
3FFFE0
7FFFF0
7FFFF0
7F87F0
FF03F8
FE03F8
FE03F8
FE03F8
FE03F8
FE03F8
FE03F8
FE03F8
FE0000
FE0000
FE0000
FE0000
FE0000
FE0000
FE0000
FE0000
FE0000
FE0000
FE0000
FE0000
FE0000
FE03F8
FE03F8
FE03F8
FE03F8
FE03F8
FE03F8
FE03F8
FE03F8
FE03F8
FF03F8
7F87F0
7FFFF0
7FFFF0
3FFFE0
1FFFC0
0FFF80
07FF00
002000
ENDCHAR
STARTCHAR Ccircumflex
ENCODING 264
SWIDTH 383 0
DWIDTH 25 0
BBX 21 57 2 -1
BITMAP
01FC00
03FC00
03FE00
07FF00
0FFF80
0F9F80
1F0FC0
3F07E0
000000
000000
002000
07FF00
0FFF80
1FFFC0
3FFFE0
7FFFF0
7FFFF0
7F87F0
FF03F8
FE03F8
FE03F8
FE03F8
FE03F8
FE03F8
FE03F8
FE03F8
FE0000
FE0000
FE0000
FE0000
FE0000
FE0000
FE0000
FE0000
FE0000
FE0000
FE0000
FE0000
FE0000
FE03F8
FE03F8
FE03F8
FE03F8
FE03F8
FE03F8
FE03F8
FE03F8
FE03F8
FF03F8
7F87F0
7FFFF0
7FFFF0
3FFFE0
1FFFC0
0FFF80
07FF00
002000
ENDCHAR
STARTCHAR ccircumflex
ENCODING 265
SWIDTH 383 0
DWIDTH 25 0
BBX 21 57 2 -1
BITMAP
01FC00
03FC00
03FE00
07FF00
0FFF80
0F9F80
1F0FC0
3F07E0
000000
000000
002000
07FF00
0FFF80
1FFFC0
3FFFE0
7FFFF0
7FFFF0
7F87F0
FF03F8
FE03F8
FE03F8
FE03F8
FE03F8
FE03F8
FE03F8
FE03F8
FE0000
FE0000
FE0000
FE0000
FE0000
FE0000
FE0000
FE0000
FE0000
FE0000
FE0000
FE0000
FE0000
FE03F8
FE03F8
FE03F8
FE03F8
FE03F8
FE03F8
FE03F8
FE03F8
FE03F8
FF03F8
7F87F0
7FFFF0
7FFFF0
3FFFE0
1FFFC0
0FFF80
07FF00
002000
ENDCHAR
STARTCHAR Cdotaccent
ENCODING 266
SWIDTH 383 0
DWIDTH 25 0
BBX 21 55 2 -1
BITMAP
01FC00
01FC00
01FC00
01FC00
01FC00
01FC00
000000
000000
002000
07FF00
0FFF80
1FFFC0
3FFFE0
7FFFF0
7FFFF0
7F87F0
FF03F8
FE03F8
FE03F8
FE03F8
FE03F8
FE03F8
FE03F8
FE03F8
FE0000
FE0000
FE0000
FE0000
FE0000
FE0000
FE0000
FE0000
FE0000
FE0000
FE0000
FE0000
FE0000
FE03F8
FE03F8
FE03F8
FE03F8
FE03F8
FE03F8
FE03F8
FE03F8
FE03F8
FF03F8
7F87F0
7FFFF0
7FFFF0
3FFFE0
1FFFC0
0FFF80
07FF00
002000
ENDCHAR
STARTCHAR cdotaccent
ENCODING 267
SWIDTH 383 0
DWIDTH 25 0
BBX 21 55 2 -1
BITMAP
01FC00
01FC00
01FC00
01FC00
01FC00
01FC00
000000
000000
002000
07FF00
0FFF80
1FFFC0
3FFFE0
7FFFF0
7FFFF0
7F87F0
FF03F8
FE03F8
FE03F8
FE03F8
FE03F8
FE03F8
FE03F8
FE03F8
FE0000
FE0000
FE0000
FE0000
FE0000
FE0000
FE0000
FE0000
FE0000
FE0000
FE0000
FE0000
FE0000
FE03F8
FE03F8
FE03F8
FE03F8
FE03F8
FE03F8
FE03F8
FE03F8
FE03F8
FF03F8
7F87F0
7FFFF0
7FFFF0
3FFFE0
1FFFC0
0FFF80
07FF00
002000
ENDCHAR
STARTCHAR Ccaron
ENCODING 268
SWIDTH 383 0
DWIDTH 25 0
BBX 21 57 2 -1
BITMAP
3E03E0
3F07C0
1F8FC0
0FDF80
07FF00
07FE00
03FE00
01FC00
000000
000000
002000
07FF00
0FFF80
1FFFC0
3FFFE0
7FFFF0
7FFFF0
7F87F0
FF03F8
FE03F8
FE03F8
FE03F8
FE03F8
FE03F8
FE03F8
FE03F8
FE0000
FE0000
FE0000
FE0000
FE0000
FE0000
FE0000
FE0000
FE0000
FE0000
FE0000
FE0000
FE0000
FE03F8
FE03F8
FE03F8
FE03F8
FE03F8
FE03F8
FE03F8
FE03F8
FE03F8
FF03F8
7F87F0
7FFFF0
7FFFF0
3FFFE0
1FFFC0
0FFF80
07FF00
002000
ENDCHAR
STARTCHAR ccaron
ENCODING 269
SWIDTH 383 0
DWIDTH 25 0
BBX 21 57 2 -1
BITMAP
3E03E0
3F07C0
1F8FC0
0FDF80
07FF00
07FE00
03FE00
01FC00
000000
000000
002000
07FF00
0FFF80
1FFFC0
3FFFE0
7FFFF0
7FFFF0
7F87F0
FF03F8
FE03F8
FE03F8
FE03F8
FE03F8
FE03F8
FE03F8
FE03F8
FE0000
FE0000
FE0000
FE0000
FE0000
FE0000
FE0000
FE0000
FE0000
FE0000
FE0000
FE0000
FE0000
FE03F8
FE03F8
FE03F8
FE03F8
FE03F8
FE03F8
FE03F8
FE03F8
FE03F8
FF03F8
7F87F0
7FFFF0
7FFFF0
3FFFE0
1FFFC0
0FFF80
07FF00
002000
ENDCHAR
STARTCHAR Dcaron
ENCODING 270
SWIDTH 406 0
DWIDTH 26 0
BBX 21 56 3 0
BITMAP
7C07C0
3E0F80
3F1F80
1FBF00
0FFE00
0FFE00
07FC00
03F800
000000
000000
000000
FFFC00
FFFF80
FFFFC0
FFFFE0
FFFFE0
FFFFF0
FE3FF0
FE07F8
FE07F8
FE03F8
FE03F8
FE03F8
FE03F8
FE03F8
FE03F8
FE03F8
FE03F8
FE03F8
FE03F8
FE03F8
FE03F8
FE03F8
FE03F8
FE03F8
FE03F8
FE03F8
FE03F8
FE03F8
FE03F8
FE03F8
FE03F8
FE03F8
FE03F8
FE03F8
FE03F8
FE03F8
FE07F8
FE07F8
FE3FF0
FFFFF0
FFFFE0
FFFFE0
FFFFC0
FFFF80
FFFC00
ENDCHAR
STARTCHAR dcaron
ENCODING 271
SWIDTH 406 0
DWIDTH 26 0
BBX 21 56 3 0
BITMAP
7C07C0
3E0F80
3F1F80
1FBF00
0FFE00
0FFE00
07FC00
03F800
000000
000000
000000
FFFC00
FFFF80
FFFFC0
FFFFE0
FFFFE0
FFFFF0
FE3FF0
FE07F8
FE07F8
FE03F8
FE03F8
FE03F8
FE03F8
FE03F8
FE03F8
FE03F8
FE03F8
FE03F8
FE03F8
FE03F8
FE03F8
FE03F8
FE03F8
FE03F8
FE03F8
FE03F8
FE03F8
FE03F8
FE03F8
FE03F8
FE03F8
FE03F8
FE03F8
FE03F8
FE03F8
FE03F8
FE07F8
FE07F8
FE3FF0
FFFFF0
FFFFE0
FFFFE0
FFFFC0
FFFF80
FFFC00
ENDCHAR
STARTCHAR Dcroat
ENCODING 272
SWIDTH 423 0
DWIDTH 27 0
BBX 24 45 1 0
BITMAP
1FFF80
1FFFF0
1FFFF8
1FFFFC
1FFFFE
1FFFFE
1FC7FE
1FC0FF
1FC07F
1FC07F
1FC07F
1FC07F
1FC07F
1FC07F
1FC07F
1FC07F
1FC07F
1FC07F
FFF87F
FFF87F
FFF87F
FFF87F
FFF87F
FFF87F
1FC07F
1FC07F
1FC07F
1FC07F
1FC07F
1FC07F
1FC07F
1FC07F
1FC07F
1FC07F
1FC07F
1FC07F
1FC07F
1FC0FF
1FC7FE
1FFFFE
1FFFFE
1FFFFC
1FFFF8
1FFFF0
1FFF80
ENDCHAR
STARTCHAR dcroat
ENCODING 273
SWIDTH 423 0
DWIDTH 27 0
BBX 24 45 1 0
BITMAP
1FFF80
1FFFF0
1FFFF8
1FFFFC
1FFFFE
1FFFFE
1FC7FE
1FC0FF
1FC07F
1FC07F
1FC07F
1FC07F
1FC07F
1FC07F
1FC07F
1FC07F
1FC07F
1FC07F
FFF87F
FFF87F
FFF87F
FFF87F
FFF87F
FFF87F
1FC07F
1FC07F
1FC07F
1FC07F
1FC07F
1FC07F
1FC07F
1FC07F
1FC07F
1FC07F
1FC07F
1FC07F
1FC07F
1FC0FF
1FC7FE
1FFFFE
1FFFFE
1FFFFC
1FFFF8
1FFFF0
1FFF80
ENDCHAR
STARTCHAR Emacron
ENCODING 274
SWIDTH 363 0
DWIDTH 23 0
BBX 19 54 3 0
BITMAP
3FFF80
3FFF80
3FFF80
3FFF80
3FFF80
000000
000000
000000
000000
FFFFE0
FFFFE0
FFFFE0
FFFFE0
FFFFE0
FFFFE0
FE0000
FE0000
FE0000
FE0000
FE0000
FE0000
FE0000
FE0000
FE0000
FE0000
FE0000
FE0000
FFFF00
FFFF00
FFFF00
FFFF00
FFFF00
FFFF00
FE0000
FE0000
FE0000
FE0000
FE0000
FE0000
FE0000
FE0000
FE0000
FE0000
FE0000
FE0000
FE0000
FE0000
FE0000
FFFFE0
FFFFE0
FFFFE0
FFFFE0
FFFFE0
FFFFE0
ENDCHAR
STARTCHAR emacron
ENCODING 275
SWIDTH 363 0
DWIDTH 23 0
BBX 19 54 3 0
BITMAP
3FFF80
3FFF80
3FFF80
3FFF80
3FFF80
000000
000000
000000
000000
FFFFE0
FFFFE0
FFFFE0
FFFFE0
FFFFE0
FFFFE0
FE0000
FE0000
FE0000
FE0000
FE0000
FE0000
FE0000
FE0000
FE0000
FE0000
FE0000
FE0000
FFFF00
FFFF00
FFFF00
FFFF00
FFFF00
FFFF00
FE0000
FE0000
FE0000
FE0000
FE0000
FE0000
FE0000
FE0000
FE0000
FE0000
FE0000
FE0000
FE0000
FE0000
FE0000
FFFFE0
FFFFE0
FFFFE0
FFFFE0
FFFFE0
FFFFE0
ENDCHAR
STARTCHAR Ebreve
ENCODING 276
SWIDTH 363 0
DWIDTH 23 0
BBX 19 56 3 0
BITMAP
3C0780
3C0F80
3E1F80
3FFF00
1FFF00
1FFE00
0FFC00
03F000
000000
000000
000000
FFFFE0
FFFFE0
FFFFE0
FFFFE0
FFFFE0
FFFFE0
FE0000
FE0000
FE0000
FE0000
FE0000
FE0000
FE0000
FE0000
FE0000
FE0000
FE0000
FE0000
FFFF00
FFFF00
FFFF00
FFFF00
FFFF00
FFFF00
FE0000
FE0000
FE0000
FE0000
FE0000
FE0000
FE0000
FE0000
FE0000
FE0000
FE0000
FE0000
FE0000
FE0000
FE0000
FFFFE0
FFFFE0
FFFFE0
FFFFE0
FFFFE0
FFFFE0
ENDCHAR
STARTCHAR ebreve
ENCODING 277
SWIDTH 363 0
DWIDTH 23 0
BBX 19 56 3 0
BITMAP
3C0780
3C0F80
3E1F80
3FFF00
1FFF00
1FFE00
0FFC00
03F000
000000
000000
000000
FFFFE0
FFFFE0
FFFFE0
FFFFE0
FFFFE0
FFFFE0
FE0000
FE0000
FE0000
FE0000
FE0000
FE0000
FE0000
FE0000
FE0000
FE0000
FE0000
FE0000
FFFF00
FFFF00
FFFF00
FFFF00
FFFF00
FFFF00
FE0000
FE0000
FE0000
FE0000
FE0000
FE0000
FE0000
FE0000
FE0000
FE0000
FE0000
FE0000
FE0000
FE0000
FE0000
FFFFE0
FFFFE0
FFFFE0
FFFFE0
FFFFE0
FFFFE0
ENDCHAR
STARTCHAR Edotaccent
ENCODING 278
SWIDTH 363 0
DWIDTH 23 0
BBX 19 54 3 0
BITMAP
03F000
03F000
03F000
03F000
03F000
03F000
000000
000000
000000
FFFFE0
FFFFE0
FFFFE0
FFFFE0
FFFFE0
FFFFE0
FE0000
FE0000
FE0000
FE0000
FE0000
FE0000
FE0000
FE0000
FE0000
FE0000
FE0000
FE0000
FFFF00
FFFF00
FFFF00
FFFF00
FFFF00
FFFF00
FE0000
FE0000
FE0000
FE0000
FE0000
FE0000
FE0000
FE0000
FE0000
FE0000
FE0000
FE0000
FE0000
FE0000
FE0000
FFFFE0
FFFFE0
FFFFE0
FFFFE0
FFFFE0
FFFFE0
ENDCHAR
STARTCHAR edotaccent
ENCODING 279
SWIDTH 363 0
DWIDTH 23 0
BBX 19 54 3 0
BITMAP
03F000
03F000
03F000
03F000
03F000
03F000
000000
000000
000000
FFFFE0
FFFFE0
FFFFE0
FFFFE0
FFFFE0
FFFFE0
FE0000
FE0000
FE0000
FE0000
FE0000
FE0000
FE0000
FE0000
FE0000
FE0000
FE0000
FE0000
FFFF00
FFFF00
FFFF00
FFFF00
FFFF00
FFFF00
FE0000
FE0000
FE0000
FE0000
FE0000
FE0000
FE0000
FE0000
FE0000
FE0000
FE0000
FE0000
FE0000
FE0000
FE0000
FFFFE0
FFFFE0
FFFFE0
FFFFE0
FFFFE0
FFFFE0
ENDCHAR
STARTCHAR Eogonek
ENCODING 280
SWIDTH 363 0
DWIDTH 23 0
BBX 19 55 3 -10
BITMAP
FFFFE0
FFFFE0
FFFFE0
FFFFE0
FFFFE0
FFFFE0
FE0000
FE0000
FE0000
FE0000
FE0000
FE0000
FE0000
FE0000
FE0000
FE0000
FE0000
FE0000
FFFF00
FFFF00
FFFF00
FFFF00
FFFF00
FFFF00
FE0000
FE0000
FE0000
FE0000
FE0000
FE0000
FE0000
FE0000
FE0000
FE0000
FE0000
FE0000
FE0000
FE0000
FE0000
FFFFE0
FFFFE0
FFFFE0
FFFFE0
FFFFE0
FFFFE0
000F00
001E00
003E00
007C00
007C00
007E00
007FE0
007FE0
003FE0
001FC0
ENDCHAR
STARTCHAR eogonek
ENCODING 281
SWIDTH 363 0
DWIDTH 23 0
BBX 19 55 3 -10
BITMAP
FFFFE0
FFFFE0
FFFFE0
FFFFE0
FFFFE0
FFFFE0
FE0000
FE0000
FE0000
FE0000
FE0000
FE0000
FE0000
FE0000
FE0000
FE0000
FE0000
FE0000
FFFF00
FFFF00
FFFF00
FFFF00
FFFF00
FFFF00
FE0000
FE0000
FE0000
FE0000
FE0000
FE0000
FE0000
FE0000
FE0000
FE0000
FE0000
FE0000
FE0000
FE0000
FE0000
FFFFE0
FFFFE0
FFFFE0
FFFFE0
FFFFE0
FFFFE0
000F00
001E00
003E00
007C00
007C00
007E00
007FE0
007FE0
003FE0
001FC0
ENDCHAR
STARTCHAR Ecaron
ENCODING 282
SWIDTH 363 0
DWIDTH 23 0
BBX 19 56 3 0
BITMAP
7C0FC0
7E0F80
3F1F00
1FBF00
1FFE00
0FFC00
07FC00
03F800
000000
000000
000000
FFFFE0
FFFFE0
FFFFE0
FFFFE0
FFFFE0
FFFFE0
FE0000
FE0000
FE0000
FE0000
FE0000
FE0000
FE0000
FE0000
FE0000
FE0000
FE0000
FE0000
FFFF00
FFFF00
FFFF00
FFFF00
FFFF00
FFFF00
FE0000
FE0000
FE0000
FE0000
FE0000
FE0000
FE0000
FE0000
FE0000
FE0000
FE0000
FE0000
FE0000
FE0000
FE0000
FFFFE0
FFFFE0
FFFFE0
FFFFE0
FFFFE0
FFFFE0
ENDCHAR
STARTCHAR ecaron
ENCODING 283
SWIDTH 363 0
DWIDTH 23 0
BBX 19 56 3 0
BITMAP
7C0FC0
7E0F80
3F1F00
1FBF00
1FFE00
0FFC00
07FC00
03F800
000000
000000
000000
FFFFE0
FFFFE0
FFFFE0
FFFFE0
FFFFE0
FFFFE0
FE0000
FE0000
FE0000
FE0000
FE0000
FE0000
FE0000
FE0000
FE0000
FE0000
FE0000
FE0000
FFFF00
FFFF00
FFFF00
FFFF00
FFFF00
FFFF00
FE0000
FE0000
FE0000
FE0000
FE0000
FE0000
FE0000
FE0000
FE0000
FE0000
FE0000
FE0000
FE0000
FE0000
FE0000
FFFFE0
FFFFE0
FFFFE0
FFFFE0
FFFFE0
FFFFE0
ENDCHAR
STARTCHAR Gcircumflex
ENCODING 284
SWIDTH 391 0
DWIDTH 25 0
BBX 21 57 2 -1
BITMAP
01FC00
01FE00
03FE00
07FF00
0FFF80
0FCF80
1F87C0
3F07E0
000000
000000
002000
07FF00
0FFF80
1FFFE0
3FFFE0
7FFFF0
7FFFF0
7F87F8
FF03F8
FE03F8
FE03F8
FE03F8
FE03F8
FE03F8
FE03F8
FE03F8
FE0000
FE0000
FE0000
FE0000
FE0000
FE1FF8
FE1FF8
FE1FF8
FE1FF8
FE1FF8
FE1FF8
FE03F8
FE03F8
FE03F8
FE03F8
FE03F8
FE03F8
FE03F8
FE03F8
FE03F8
FE03F8
FE03F8
FF03F8
7F87F8
7FFFF0
7FFFF0
3FFFE0
1FFFC0
0FFF80
07FF00
002000
ENDCHAR
STARTCHAR gcircumflex
ENCODING 285
SWIDTH 391 0
DWIDTH 25 0
BBX 21 57 2 -1
BITMAP
01FC00
01FE00
03FE00
07FF00
0FFF80
0FCF80
1F87C0
3F07E0
000000
000000
002000
07FF00
0FFF80
1FFFE0
3FFFE0
7FFFF0
7FFFF0
7F87F8
FF03F8
FE03F8
FE03F8
FE03F8
FE03F8
FE03F8
FE03F8
FE03F8
FE0000
FE0000
FE0000
FE0000
FE0000
FE1FF8
FE1FF8
FE1FF8
FE1FF8
FE1FF8
FE1FF8
FE03F8
FE03F8
FE03F8
FE03F8
FE03F8
FE03F8
FE03F8
FE03F8
FE03F8
FE03F8
FE03F8
FF03F8
7F87F8
7FFFF0
7FFFF0
3FFFE0
1FFFC0
0FFF80
07FF00
002000
ENDCHAR
STARTCHAR Gbreve
ENCODING 286
SWIDTH 391 0
DWIDTH 25 0
BBX 21 57 2 -1
BITMAP
1E03C0
1F03C0
1F07C0
0FFFC0
0FFF80
07FF80
03FF00
01FC00
000000
000000
002000
07FF00
0FFF80
1FFFE0
3FFFE0
7FFFF0
7FFFF0
7F87F8
FF03F8
FE03F8
FE03F8
FE03F8
FE03F8
FE03F8
FE03F8
FE03F8
FE0000
FE0000
FE0000
FE0000
FE0000
FE1FF8
FE1FF8
FE1FF8
FE1FF8
FE1FF8
FE1FF8
FE03F8
FE03F8
FE03F8
FE03F8
FE03F8
FE03F8
FE03F8
FE03F8
FE03F8
FE03F8
FE03F8
FF03F8
7F87F8
7FFFF0
7FFFF0
3FFFE0
1FFFC0
0FFF80
07FF00
002000
ENDCHAR
STARTCHAR gbreve
ENCODING 287
SWIDTH 391 0
DWIDTH 25 0
BBX 21 57 2 -1
BITMAP
1E03C0
1F03C0
1F07C0
0FFFC0
0FFF80
07FF80
03FF00
01FC00
000000
000000
002000
07FF00
0FFF80
1FFFE0
3FFFE0
7FFFF0
7FFFF0
7F87F8
FF03F8
FE03F8
FE03F8
FE03F8
FE03F8
FE03F8
FE03F8
FE03F8
FE0000
FE0000
FE0000
FE0000
FE0000
FE1FF8
FE1FF8
FE1FF8
FE1FF8
FE1FF8
FE1FF8
FE03F8
FE03F8
FE03F8
FE03F8
FE03F8
FE03F8
FE03F8
FE03F8
FE03F8
FE03F8
FE03F8
FF03F8
7F87F8
7FFFF0
7FFFF0
3FFFE0
1FFFC0
0FFF80
07FF00
002000
ENDCHAR
STARTCHAR Gdotaccent
ENCODING 288
SWIDTH 391 0
DWIDTH 25 0
BBX 21 55 2 -1
BITMAP
01FC00
01FC00
01FC00
01FC00
01FC00
01FC00
000000
000000
002000
07FF00
0FFF80
1FFFE0
3FFFE0
7FFFF0
7FFFF0
7F87F8
FF03F8
FE03F8
FE03F8
FE03F8
FE03F8
FE03F8
FE03F8
FE03F8
FE0000
FE0000
FE0000
FE0000
FE0000
FE1FF8
FE1FF8
FE1FF8
FE1FF8
FE1FF8
FE1FF8
FE03F8
FE03F8
FE03F8
FE03F8
FE03F8
FE03F8
FE03F8
FE03F8
FE03F8
FE03F8
FE03F8
FF03F8
7F87F8
7FFFF0
7FFFF0
3FFFE0
1FFFC0
0FFF80
07FF00
002000
ENDCHAR
STARTCHAR gdotaccent
ENCODING 289
SWIDTH 391 0
DWIDTH 25 0
BBX 21 55 2 -1
BITMAP
01FC00
01FC00
01FC00
01FC00
01FC00
01FC00
000000
000000
002000
07FF00
0FFF80
1FFFE0
3FFFE0
7FFFF0
7FFFF0
7F87F8
FF03F8
FE03F8
FE03F8
FE03F8
FE03F8
FE03F8
FE03F8
FE03F8
FE0000
FE0000
FE0000
FE0000
FE0000
FE1FF8
FE1FF8
FE1FF8
FE1FF8
FE1FF8
FE1FF8
FE03F8
FE03F8
FE03F8
FE03F8
FE03F8
FE03F8
FE03F8
FE03F8
FE03F8
FE03F8
FE03F8
FF03F8
7F87F8
7FFFF0
7FFFF0
3FFFE0
1FFFC0
0FFF80
07FF00
002000
ENDCHAR
STARTCHAR uni0122
ENCODING 290
SWIDTH 391 0
DWIDTH 25 0
BBX 21 58 2 -12
BITMAP
002000
07FF00
0FFF80
1FFFE0
3FFFE0
7FFFF0
7FFFF0
7F87F8
FF03F8
FE03F8
FE03F8
FE03F8
FE03F8
FE03F8
FE03F8
FE03F8
FE0000
FE0000
FE0000
FE0000
FE0000
FE1FF8
FE1FF8
FE1FF8
FE1FF8
FE1FF8
FE1FF8
FE03F8
FE03F8
FE03F8
FE03F8
FE03F8
FE03F8
FE03F8
FE03F8
FE03F8
FE03F8
FE03F8
FF03F8
7F87F8
7FFFF0
7FFFF0
3FFFE0
1FFFC0
0FFF80
07FF00
002000
000000
000000
00F800
00F800
00F800
00F800
00F800
00F800
003800
007000
00E000
ENDCHAR
STARTCHAR uni0123
ENCODING 291
SWIDTH 391 0
DWIDTH 25 0
BBX 21 58 2 -12
BITMAP
002000
07FF00
0FFF80
1FFFE0
3FFFE0
7FFFF0
7FFFF0
7F87F8
FF03F8
FE03F8
FE03F8
FE03F8
FE03F8
FE03F8
FE03F8
FE03F8
FE0000
FE0000
FE0000
FE0000
FE0000
FE1FF8
FE1FF8
FE1FF8
FE1FF8
FE1FF8
FE1FF8
FE03F8
FE03F8
FE03F8
FE03F8
FE03F8
FE03F8
FE03F8
FE03F8
FE03F8
FE03F8
FE03F8
FF03F8
7F87F8
7FFFF0
7FFFF0
3FFFE0
1FFFC0
0FFF80
07FF00
002000
000000
000000
00F800
00F800
00F800
00F800
00F800
00F800
003800
007000
00E000
ENDCHAR
STARTCHAR Hcircumflex
ENCODING 292
SWIDTH 420 0
DWIDTH 27 0
BBX 21 56 3 0
BITMAP
01FC00
03FC00
03FE00
07FF00
0FFF80
0F9F80
1F8FC0
3F07E0
000000
000000
000000
FE03F8
FE03F8
FE03F8
FE03F8
FE03F8
FE03F8
FE03F8
FE03F8
FE03F8
FE03F8
FE03F8
FE03F8
FE03F8
FE03F8
FE03F8
FE03F8
FE03F8
FE03F8
FFFFF8
FFFFF8
FFFFF8
FFFFF8
FFFFF8
FFFFF8
FE03F8
FE03F8
FE03F8
FE03F8
FE03F8
FE03F8
FE03F8
FE03F8
FE03F8
FE03F8
FE03F8
FE03F8
FE03F8
FE03F8
FE03F8
FE03F8
FE03F8
FE03F8
FE03F8
FE03F8
FE03F8
ENDCHAR
STARTCHAR hcircumflex
ENCODING 293
SWIDTH 420 0
DWIDTH 27 0
BBX 21 56 3 0
BITMAP
01FC00
03FC00
03FE00
07FF00
0FFF80
0F9F80
1F8FC0
3F07E0
000000
000000
000000
FE03F8
FE03F8
FE03F8
FE03F8
FE03F8
FE03F8
FE03F8
FE03F8
FE03F8
FE03F8
FE03F8
FE03F8
FE03F8
FE03F8
FE03F8
FE03F8
FE03F8
FE03F8
FFFFF8
FFFFF8
FFFFF8
FFFFF8
FFFFF8
FFFFF8
FE03F8
FE03F8
FE03F8
FE03F8
FE03F8
FE03F8
FE03F8
FE03F8
FE03F8
FE03F8
FE03F8
FE03F8
FE03F8
FE03F8
FE03F8
FE03F8
FE03F8
FE03F8
FE03F8
FE03F8
FE03F8
ENDCHAR
STARTCHAR Hbar
ENCODING 294
SWIDTH 438 0
DWIDTH 28 0
BBX 26 45 1 0
BITMAP
3F807F00
3F807F00
3F807F00
3F807F00
3F807F00
3F807F00
FFFFFFC0
FFFFFFC0
FFFFFFC0
FFFFFFC0
FFFFFFC0
FFFFFFC0
3F807F00
3F807F00
3F807F00
3F807F00
3F807F00
3F807F00
3FFFFF00
3FFFFF00
3FFFFF00
3FFFFF00
3FFFFF00
3FFFFF00
3F807F00
3F807F00
3F807F00
3F807F00
3F807F00
3F807F00
3F807F00
3F807F00
3F807F00
3F807F00
3F807F00
3F807F00
3F807F00
3F807F00
3F807F00
3F807F00
3F807F00
3F807F00
3F807F00
3F807F00
3F807F00
ENDCHAR
STARTCHAR hbar
ENCODING 295
SWIDTH 438 0
DWIDTH 28 0
BBX 26 45 1 0
BITMAP
3F807F00
3F807F00
3F807F00
3F807F00
3F807F00
3F807F00
FFFFFFC0
FFFFFFC0
FFFFFFC0
FFFFFFC0
FFFFFFC0
FFFFFFC0
3F807F00
3F807F00
3F807F00
3F807F00
3F807F00
3F807F00
3FFFFF00
3FFFFF00
3FFFFF00
3FFFFF00
3FFFFF00
3FFFFF00
3F807F00
3F807F00
3F807F00
3F807F00
3F807F00
3F807F00
3F807F00
3F807F00
3F807F00
3F807F00
3F807F00
3F807F00
3F807F00
3F807F00
3F807F00
3F807F00
3F807F00
3F807F00
3F807F00
3F807F00
3F807F00
ENDCHAR
STARTCHAR Itilde
ENCODING 296
SWIDTH 192 0
DWIDTH 12 0
BBX 18 56 -3 0
BITMAP
0F8300
1FE7C0
3FFFC0
7FFF80
7FFF00
F8FF00
303C00
000000
000000
000000
000000
03F800
03F800
03F800
03F800
03F800
03F800
03F800
03F800
03F800
03F800
03F800
03F800
03F800
03F800
03F800
03F800
03F800
03F800
03F800
03F800
03F800
03F800
03F800
03F800
03F800
03F800
03F800
03F800
03F800
03F800
03F800
03F800
03F800
03F800
03F800
03F800
03F800
03F800
03F800
03F800
03F800
03F800
03F800
03F800
03F800
ENDCHAR
STARTCHAR itilde
ENCODING 297
SWIDTH 192 0
DWIDTH 12 0
BBX 18 56 -3 0
BITMAP
0F8300
1FE7C0
3FFFC0
7FFF80
7FFF00
F8FF00
303C00
000000
000000
000000
000000
03F800
03F800
03F800
03F800
03F800
03F800
03F800
03F800
03F800
03F800
03F800
03F800
03F800
03F800
03F800
03F800
03F800
03F800
03F800
03F800
03F800
03F800
03F800
03F800
03F800
03F800
03F800
03F800
03F800
03F800
03F800
03F800
03F800
03F800
03F800
03F800
03F800
03F800
03F800
03F800
03F800
03F800
03F800
03F800
03F800
ENDCHAR
STARTCHAR Imacron
ENCODING 298
SWIDTH 192 0
DWIDTH 12 0
BBX 15 54 -1 0
BITMAP
FFFE
FFFE
FFFE
FFFE
FFFE
0000
0000
0000
0000
0FE0
0FE0
0FE0
0FE0
0FE0
0FE0
0FE0
0FE0
0FE0
0FE0
0FE0
0FE0
0FE0
0FE0
0FE0
0FE0
0FE0
0FE0
0FE0
0FE0
0FE0
0FE0
0FE0
0FE0
0FE0
0FE0
0FE0
0FE0
0FE0
0FE0
0FE0
0FE0
0FE0
0FE0
0FE0
0FE0
0FE0
0FE0
0FE0
0FE0
0FE0
0FE0
0FE0
0FE0
0FE0
ENDCHAR
STARTCHAR imacron
ENCODING 299
SWIDTH 192 0
DWIDTH 12 0
BBX 15 54 -1 0
BITMAP
FFFE
FFFE
FFFE
FFFE
FFFE
0000
0000
0000
0000
0FE0
0FE0
0FE0
0FE0
0FE0
0FE0
0FE0
0FE0
0FE0
0FE0
0FE0
0FE0
0FE0
0FE0
0FE0
0FE0
0FE0
0FE0
0FE0
0FE0
0FE0
0FE0
0FE0
0FE0
0FE0
0FE0
0FE0
0FE0
0FE0
0FE0
0FE0
0FE0
0FE0
0FE0
0FE0
0FE0
0FE0
0FE0
0FE0
0FE0
0FE0
0FE0
0FE0
0FE0
0FE0
ENDCHAR
STARTCHAR Ibreve
ENCODING 300
SWIDTH 192 0
DWIDTH 12 0
BBX 15 56 -1 0
BITMAP
F01E
F03E
F87C
FFFC
FFFC
7FF8
3FF0
0FC0
0000
0000
0000
0FE0
0FE0
0FE0
0FE0
0FE0
0FE0
0FE0
0FE0
0FE0
0FE0
0FE0
0FE0
0FE0
0FE0
0FE0
0FE0
0FE0
0FE0
0FE0
0FE0
0FE0
0FE0
0FE0
0FE0
0FE0
0FE0
0FE0
0FE0
0FE0
0FE0
0FE0
0FE0
0FE0
0FE0
0FE0
0FE0
0FE0
0FE0
0FE0
0FE0
0FE0
0FE0
0FE0
0FE0
0FE0
ENDCHAR
STARTCHAR ibreve
ENCODING 301
SWIDTH 192 0
DWIDTH 12 0
BBX 15 56 -1 0
BITMAP
F01E
F03E
F87C
FFFC
FFFC
7FF8
3FF0
0FC0
0000
0000
0000
0FE0
0FE0
0FE0
0FE0
0FE0
0FE0
0FE0
0FE0
0FE0
0FE0
0FE0
0FE0
0FE0
0FE0
0FE0
0FE0
0FE0
0FE0
0FE0
0FE0
0FE0
0FE0
0FE0
0FE0
0FE0
0FE0
0FE0
0FE0
0FE0
0FE0
0FE0
0FE0
0FE0
0FE0
0FE0
0FE0
0FE0
0FE0
0FE0
0FE0
0FE0
0FE0
0FE0
0FE0
0FE0
ENDCHAR
STARTCHAR Iogonek
ENCODING 302
SWIDTH 192 0
DWIDTH 12 0
BBX 10 55 1 -10
BITMAP
3F80
3F80
3F80
3F80
3F80
3F80
3F80
3F80
3F80
3F80
3F80
3F80
3F80
3F80
3F80
3F80
3F80
3F80
3F80
3F80
3F80
3F80
3F80
3F80
3F80
3F80
3F80
3F80
3F80
3F80
3F80
3F80
3F80
3F80
3F80
3F80
3F80
3F80
3F80
3F80
3F80
3F80
3F80
3F80
3F80
0E00
3C00
7C00
7C00
FC00
FC00
FFC0
FFC0
7FC0
1F80
ENDCHAR
STARTCHAR iogonek
ENCODING 303
SWIDTH 192 0
DWIDTH 12 0
BBX 10 55 1 -10
BITMAP
3F80
3F80
3F80
3F80
3F80
3F80
3F80
3F80
3F80
3F80
3F80
3F80
3F80
3F80
3F80
3F80
3F80
3F80
3F80
3F80
3F80
3F80
3F80
3F80
3F80
3F80
3F80
3F80
3F80
3F80
3F80
3F80
3F80
3F80
3F80
3F80
3F80
3F80
3F80
3F80
3F80
3F80
3F80
3F80
3F80
0E00
3C00
7C00
7C00
FC00
FC00
FFC0
FFC0
7FC0
1F80
ENDCHAR
STARTCHAR Idotaccent
ENCODING 304
SWIDTH 192 0
DWIDTH 12 0
BBX 7 54 3 0
BITMAP
FC
FC
FC
FC
FC
FC
00
00
00
FE
FE
FE
FE
FE
FE
FE
FE
FE
FE
FE
FE
FE
FE
FE
FE
FE
FE
FE
FE
FE
FE
FE
FE
FE
FE
FE
FE
FE
FE
FE
FE
FE
FE
FE
FE
FE
FE
FE
FE
FE
FE
FE
FE
FE
ENDCHAR
STARTCHAR dotlessi
ENCODING 305
SWIDTH 192 0
DWIDTH 12 0
BBX 7 45 3 0
BITMAP
FE
FE
FE
FE
FE
FE
FE
FE
FE
FE
FE
FE
FE
FE
FE
FE
FE
FE
FE
FE
FE
FE
FE
FE
FE
FE
FE
FE
FE
FE
FE
FE
FE
FE
FE
FE
FE
FE
FE
FE
FE
FE
FE
FE
FE
ENDCHAR
STARTCHAR IJ
ENCODING 306
SWIDTH 457 0
DWIDTH 29 0
BBX 24 45 3 0
BITMAP
FE007F
FE007F
FE007F
FE007F
FE007F
FE007F
FE007F
FE007F
FE007F
FE007F
FE007F
FE007F
FE007F
FE007F
FE007F
FE007F
FE007F
FE007F
FE007F
FE007F
FE007F
FE007F
FE007F
FE007F
FE007F
FE007F
FE007F
FE007F
FE007F
FE007F
FE007F
FE007F
FE007F
FE007F
FE007F
FE007F
FE00FF
FE00FF
FE37FE
FE3FFE
FE3FFE
FE3FFC
FE3FF8
FE3FF0
FE3F80
ENDCHAR
STARTCHAR ij
ENCODING 307
SWIDTH 457 0
DWIDTH 29 0
BBX 24 45 3 0
BITMAP
FE007F
FE007F
FE007F
FE007F
FE007F
FE007F
FE007F
FE007F
FE007F
FE007F
FE007F
FE007F
FE007F
FE007F
FE007F
FE007F
FE007F
FE007F
FE007F
FE007F
FE007F
FE007F
FE007F
FE007F
FE007F
FE007F
FE007F
FE007F
FE007F
FE007F
FE007F
FE007F
FE007F
FE007F
FE007F
FE007F
FE00FF
FE00FF
FE37FE
FE3FFE
FE3FFE
FE3FFC
FE3FF8
FE3FF0
FE3F80
ENDCHAR
STARTCHAR Jcircumflex
ENCODING 308
SWIDTH 265 0
DWIDTH 17 0
BBX 18 56 1 0
BITMAP
03F000
07F800
0FFC00
0FFC00
1FFE00
3F3F00
7E1F80
FC0FC0
000000
000000
000000
03FC00
03FC00
03FC00
03FC00
03FC00
03FC00
03FC00
03FC00
03FC00
03FC00
03FC00
03FC00
03FC00
03FC00
03FC00
03FC00
03FC00
03FC00
03FC00
03FC00
03FC00
03FC00
03FC00
03FC00
03FC00
03FC00
03FC00
03FC00
03FC00
03FC00
03FC00
03FC00
03FC00
03FC00
03FC00
03F800
03F800
07F800
FFF800
FFF800
FFF000
FFF000
FFE000
FFC000
FE0000
ENDCHAR
STARTCHAR jcircumflex
ENCODING 309
SWIDTH 265 0
DWIDTH 17 0
BBX 18 56 1 0
BITMAP
03F000
07F800
0FFC00
0FFC00
1FFE00
3F3F00
7E1F80
FC0FC0
000000
000000
000000
03FC00
03FC00
03FC00
03FC00
03FC00
03FC00
03FC00
03FC00
03FC00
03FC00
03FC00
03FC00
03FC00
03FC00
03FC00
03FC00
03FC00
03FC00
03FC00
03FC00
03FC00
03FC00
03FC00
03FC00
03FC00
03FC00
03FC00
03FC00
03FC00
03FC00
03FC00
03FC00
03FC00
03FC00
03FC00
03F800
03F800
07F800
FFF800
FFF800
FFF000
FFF000
FFE000
FFC000
FE0000
ENDCHAR
STARTCHAR uni0136
ENCODING 310
SWIDTH 414 0
DWIDTH 27 0
BBX 23 57 3 -12
BITMAP
FE01FE
FE01FC
FE03F8
FE03F8
FE03F0
FE07F0
FE07E0
FE0FE0
FE0FC0
FE1FC0
FE1F80
FE3F80
FE3F00
FE7F00
FE7E00
FEFE00
FEFC00
FFFE00
FFFE00
FFFE00
FFFE00
FFFF00
FFFF00
FFFF00
FFFF80
FFBF80
FFBF80
FF3FC0
FF3FC0
FE1FC0
FE1FC0
FE1FE0
FE0FE0
FE0FE0
FE0FF0
FE07F0
FE07F0
FE07F8
FE07F8
FE03F8
FE03F8
FE03FC
FE01FC
FE01FC
FE01FE
000000
000000
000000
00FC00
00FC00
00FC00
00FC00
00FC00
00FC00
003800
003000
007000
ENDCHAR
STARTCHAR uni0137
ENCODING 311
SWIDTH 414 0
DWIDTH 27 0
BBX 23 57 3 -12
BITMAP
FE01FE
FE01FC
FE03F8
FE03F8
FE03F0
FE07F0
FE07E0
FE0FE0
FE0FC0
FE1FC0
FE1F80
FE3F80
FE3F00
FE7F00
FE7E00
FEFE00
FEFC00
FFFE00
FFFE00
FFFE00
FFFE00
FFFF00
FFFF00
FFFF00
FFFF80
FFBF80
FFBF80
FF3FC0
FF3FC0
FE1FC0
FE1FC0
FE1FE0
FE0FE0
FE0FE0
FE0FF0
FE07F0
FE07F0
FE07F8
FE07F8
FE03F8
FE03F8
FE03FC
FE01FC
FE01FC
FE01FE
000000
000000
000000
00FC00
00FC00
00FC00
00FC00
00FC00
00FC00
003800
003000
007000
ENDCHAR
STARTCHAR kgreenlandic
ENCODING 312
SWIDTH 414 0
DWIDTH 27 0
BBX 23 45 3 0
BITMAP
FE01FE
FE01FC
FE03F8
FE03F8
FE03F0
FE07F0
FE07E0
FE0FE0
FE0FC0
FE1FC0
FE1F80
FE3F80
FE3F00
FE7F00
FE7E00
FEFE00
FEFC00
FFFE00
FFFE00
FFFE00
FFFE00
FFFF00
FFFF00
FFFF00
FFFF80
FFBF80
FFBF80
FF3FC0
FF3FC0
FE1FC0
FE1FC0
FE1FE0
FE0FE0
FE0FE0
FE0FF0
FE07F0
FE07F0
FE07F8
FE07F8
FE03F8
FE03F8
FE03FC
FE01FC
FE01FC
FE01FE
ENDCHAR
STARTCHAR Lacute
ENCODING 313
SWIDTH 344 0
DWIDTH 22 0
BBX 18 55 3 0
BITMAP
0FF000
1FE000
1FC000
3F8000
3F0000
7E0000
FC0000
000000
000000
000000
FE0000
FE0000
FE0000
FE0000
FE0000
FE0000
FE0000
FE0000
FE0000
FE0000
FE0000
FE0000
FE0000
FE0000
FE0000
FE0000
FE0000
FE0000
FE0000
FE0000
FE0000
FE0000
FE0000
FE0000
FE0000
FE0000
FE0000
FE0000
FE0000
FE0000
FE0000
FE0000
FE0000
FE0000
FE0000
FE0000
FE0000
FE0000
FE0000
FFFFC0
FFFFC0
FFFFC0
FFFFC0
FFFFC0
FFFFC0
ENDCHAR
STARTCHAR lacute
ENCODING 314
SWIDTH 344 0
DWIDTH 22 0
BBX 18 55 3 0
BITMAP
0FF000
1FE000
1FC000
3F8000
3F0000
7E0000
FC0000
000000
000000
000000
FE0000
FE0000
FE0000
FE0000
FE0000
FE0000
FE0000
FE0000
FE0000
FE0000
FE0000
FE0000
FE0000
FE0000
FE0000
FE0000
FE0000
FE0000
FE0000
FE0000
FE0000
FE0000
FE0000
FE0000
FE0000
FE0000
FE0000
FE0000
FE0000
FE0000
FE0000
FE0000
FE0000
FE0000
FE0000
FE0000
FE0000
FE0000
FE0000
FFFFC0
FFFFC0
FFFFC0
FFFFC0
FFFFC0
FFFFC0
ENDCHAR
STARTCHAR uni013B
ENCODING 315
SWIDTH 344 0
DWIDTH 22 0
BBX 18 57 3 -12
BITMAP
FE0000
FE0000
FE0000
FE0000
FE0000
FE0000
FE0000
FE0000
FE0000
FE0000
FE0000
FE0000
FE0000
FE0000
FE0000
FE0000
FE0000
FE0000
FE0000
FE0000
FE0000
FE0000
FE0000
FE0000
FE0000
FE0000
FE0000
FE0000
FE0000
FE0000
FE0000
FE0000
FE0000
FE0000
FE0000
FE0000
FE0000
FE0000
FE0000
FFFFC0
FFFFC0
FFFFC0
FFFFC0
FFFFC0
FFFFC0
000000
000000
000000
03F000
03F000
03F000
03F000
03F000
03F000
00E000
00C000
01C000
ENDCHAR
STARTCHAR uni013C
ENCODING 316
SWIDTH 344 0
DWIDTH 22 0
BBX 18 57 3 -12
BITMAP
FE0000
FE0000
FE0000
FE0000
FE0000
FE0000
FE0000
FE0000
FE0000
FE0000
FE0000
FE0000
FE0000
FE0000
FE0000
FE0000
FE0000
FE0000
FE0000
FE0000
FE0000
FE0000
FE0000
FE0000
FE0000
FE0000
FE0000
FE0000
FE0000
FE0000
FE0000
FE0000
FE0000
FE0000
FE0000
FE0000
FE0000
FE0000
FE0000
FFFFC0
FFFFC0
FFFFC0
FFFFC0
FFFFC0
FFFFC0
000000
000000
000000
03F000
03F000
03F000
03F000
03F000
03F000
00E000
00C000
01C000
ENDCHAR
STARTCHAR Lcaron
ENCODING 317
SWIDTH 344 0
DWIDTH 22 0
BBX 18 45 3 0
BITMAP
FE3F80
FE3F80
FE3F80
FE3F80
FE3F80
FE3F80
FE0780
FE0700
FE0F00
FE0E00
FE0E00
FE1E00
FE1C00
FE0000
FE0000
FE0000
FE0000
FE0000
FE0000
FE0000
FE0000
FE0000
FE0000
FE0000
FE0000
FE0000
FE0000
FE0000
FE0000
FE0000
FE0000
FE0000
FE0000
FE0000
FE0000
FE0000
FE0000
FE0000
FE0000
FFFFC0
FFFFC0
FFFFC0
FFFFC0
FFFFC0
FFFFC0
ENDCHAR
STARTCHAR lcaron
ENCODING 318
SWIDTH 344 0
DWIDTH 22 0
BBX 18 45 3 0
BITMAP
FE3F80
FE3F80
FE3F80
FE3F80
FE3F80
FE3F80
FE0780
FE0700
FE0F00
FE0E00
FE0E00
FE1E00
FE1C00
FE0000
FE0000
FE0000
FE0000
FE0000
FE0000
FE0000
FE0000
FE0000
FE0000
FE0000
FE0000
FE0000
FE0000
FE0000
FE0000
FE0000
FE0000
FE0000
FE0000
FE0000
FE0000
FE0000
FE0000
FE0000
FE0000
FFFFC0
FFFFC0
FFFFC0
FFFFC0
FFFFC0
FFFFC0
ENDCHAR
STARTCHAR Ldot
ENCODING 319
SWIDTH 343 0
DWIDTH 22 0
BBX 18 45 3 0
BITMAP
FE0000
FE0000
FE0000
FE0000
FE0000
FE0000
FE0000
FE0000
FE0000
FE0000
FE0000
FE0000
FE0000
FE0000
FE0000
FE0000
FE0000
FE0000
FE0000
FE1F80
FE1F80
FE1F80
FE1F80
FE1F80
FE1F80
FE0000
FE0000
FE0000
FE0000
FE0000
FE0000
FE0000
FE0000
FE0000
FE0000
FE0000
FE0000
FE0000
FE0000
FFFFC0
FFFFC0
FFFFC0
FFFFC0
FFFFC0
FFFFC0
ENDCHAR
STARTCHAR ldot
ENCODING 320
SWIDTH 343 0
DWIDTH 22 0
BBX 18 45 3 0
BITMAP
FE0000
FE0000
FE0000
FE0000
FE0000
FE0000
FE0000
FE0000
FE0000
FE0000
FE0000
FE0000
FE0000
FE0000
FE0000
FE0000
FE0000
FE0000
FE0000
FE1F80
FE1F80
FE1F80
FE1F80
FE1F80
FE1F80
FE0000
FE0000
FE0000
FE0000
FE0000
FE0000
FE0000
FE0000
FE0000
FE0000
FE0000
FE0000
FE0000
FE0000
FFFFC0
FFFFC0
FFFFC0
FFFFC0
FFFFC0
FFFFC0
ENDCHAR
STARTCHAR Lslash
ENCODING 321
SWIDTH 364 0
DWIDTH 23 0
BBX 22 45 1 0
BITMAP
1FC000
1FC000
1FC000
1FC000
1FC000
1FC000
1FC000
1FC000
1FC000
1FC000
1FC000
1FC040
1FC040
1FC0C0
1FC1C0
1FC3C0
1FC7C0
1FCFC0
1FDFC0
1FFF80
1FFF00
1FFE00
1FFC00
1FF800
1FF000
1FF000
1FE000
3FC000
3FC000
7FC000
FFC000
FFC000
FFC000
FFC000
FFC000
DFC000
9FC000
9FC000
1FC000
1FFFFC
1FFFFC
1FFFFC
1FFFFC
1FFFFC
1FFFFC
ENDCHAR
STARTCHAR lslash
ENCODING 322
SWIDTH 364 0
DWIDTH 23 0
BBX 22 45 1 0
BITMAP
1FC000
1FC000
1FC000
1FC000
1FC000
1FC000
1FC000
1FC000
1FC000
1FC000
1FC000
1FC040
1FC040
1FC0C0
1FC1C0
1FC3C0
1FC7C0
1FCFC0
1FDFC0
1FFF80
1FFF00
1FFE00
1FFC00
1FF800
1FF000
1FF000
1FE000
3FC000
3FC000
7FC000
FFC000
FFC000
FFC000
FFC000
FFC000
DFC000
9FC000
9FC000
1FC000
1FFFFC
1FFFFC
1FFFFC
1FFFFC
1FFFFC
1FFFFC
ENDCHAR
STARTCHAR Nacute
ENCODING 323
SWIDTH 427 0
DWIDTH 27 0
BBX 22 55 3 0
BITMAP
001FE0
003FC0
003F80
007F00
00FE00
00FC00
01F800
000000
000000
000000
FF81FC
FF81FC
FF81FC
FF81FC
FFC1FC
FFC1FC
FFC1FC
FFC1FC
FFE1FC
FFE1FC
FFE1FC
FFE1FC
FFF1FC
FFF1FC
FDF1FC
FDF1FC
FDF9FC
FDF9FC
FCF9FC
FCF9FC
FCFDFC
FCFDFC
FC7DFC
FC7DFC
FC7FFC
FC7FFC
FC3FFC
FC3FFC
FC3FFC
FC3FFC
FC1FFC
FC1FFC
FC1FFC
FC1FFC
FC0FFC
FC0FFC
FC0FFC
FC07FC
FC07FC
FC07FC
FC07FC
FC03FC
FC03FC
FC03FC
FC03FC
ENDCHAR
STARTCHAR nacute
ENCODING 324
SWIDTH 427 0
DWIDTH 27 0
BBX 22 55 3 0
BITMAP
001FE0
003FC0
003F80
007F00
00FE00
00FC00
01F800
000000
000000
000000
FF81FC
FF81FC
FF81FC
FF81FC
FFC1FC
FFC1FC
FFC1FC
FFC1FC
FFE1FC
FFE1FC
FFE1FC
FFE1FC
FFF1FC
FFF1FC
FDF1FC
FDF1FC
FDF9FC
FDF9FC
FCF9FC
FCF9FC
FCFDFC
FCFDFC
FC7DFC
FC7DFC
FC7FFC
FC7FFC
FC3FFC
FC3FFC
FC3FFC
FC3FFC
FC1FFC
FC1FFC
FC1FFC
FC1FFC
FC0FFC
FC0FFC
FC0FFC
FC07FC
FC07FC
FC07FC
FC07FC
FC03FC
FC03FC
FC03FC
FC03FC
ENDCHAR
STARTCHAR uni0145
ENCODING 325
SWIDTH 427 0
DWIDTH 27 0
BBX 22 57 3 -12
BITMAP
FF81FC
FF81FC
FF81FC
FF81FC
FFC1FC
FFC1FC
FFC1FC
FFC1FC
FFE1FC
FFE1FC
FFE1FC
FFE1FC
FFF1FC
FFF1FC
FDF1FC
FDF1FC
FDF9FC
FDF9FC
FCF9FC
FCF9FC
FCFDFC
FCFDFC
FC7DFC
FC7DFC
FC7FFC
FC7FFC
FC3FFC
FC3FFC
FC3FFC
FC3FFC
FC1FFC
FC1FFC
FC1FFC
FC1FFC
FC0FFC
FC0FFC
FC0FFC
FC07FC
FC07FC
FC07FC
FC07FC
FC03FC
FC03FC
FC03FC
FC03FC
000000
000000
000000
00FC00
00FC00
00FC00
00FC00
00FC00
00FC00
003800
007000
00F000
ENDCHAR
STARTCHAR uni0146
ENCODING 326
SWIDTH 427 0
DWIDTH 27 0
BBX 22 57 3 -12
BITMAP
FF81FC
FF81FC
FF81FC
FF81FC
FFC1FC
FFC1FC
FFC1FC
FFC1FC
FFE1FC
FFE1FC
FFE1FC
FFE1FC
FFF1FC
FFF1FC
FDF1FC
FDF1FC
FDF9FC
FDF9FC
FCF9FC
FCF9FC
FCFDFC
FCFDFC
FC7DFC
FC7DFC
FC7FFC
FC7FFC
FC3FFC
FC3FFC
FC3FFC
FC3FFC
FC1FFC
FC1FFC
FC1FFC
FC1FFC
FC0FFC
FC0FFC
FC0FFC
FC07FC
FC07FC
FC07FC
FC07FC
FC03FC
FC03FC
FC03FC
FC03FC
000000
000000
000000
00FC00
00FC00
00FC00
00FC00
00FC00
00FC00
003800
007000
00F000
ENDCHAR
STARTCHAR Ncaron
ENCODING 327
SWIDTH 427 0
DWIDTH 27 0
BBX 22 56 3 0
BITMAP
3E03E0
1F07E0
0F8FC0
0FDF80
07FF00
03FF00
03FE00
01FC00
000000
000000
000000
FF81FC
FF81FC
FF81FC
FF81FC
FFC1FC
FFC1FC
FFC1FC
FFC1FC
FFE1FC
FFE1FC
FFE1FC
FFE1FC
FFF1FC
FFF1FC
FDF1FC
FDF1FC
FDF9FC
FDF9FC
FCF9FC
FCF9FC
FCFDFC
FCFDFC
FC7DFC
FC7DFC
FC7FFC
FC7FFC
FC3FFC
FC3FFC
FC3FFC
FC3FFC
FC1FFC
FC1FFC
FC1FFC
FC1FFC
FC0FFC
FC0FFC
FC0FFC
FC07FC
FC07FC
FC07FC
FC07FC
FC03FC
FC03FC
FC03FC
FC03FC
ENDCHAR
STARTCHAR ncaron
ENCODING 328
SWIDTH 427 0
DWIDTH 27 0
BBX 22 56 3 0
BITMAP
3E03E0
1F07E0
0F8FC0
0FDF80
07FF00
03FF00
03FE00
01FC00
000000
000000
000000
FF81FC
FF81FC
FF81FC
FF81FC
FFC1FC
FFC1FC
FFC1FC
FFC1FC
FFE1FC
FFE1FC
FFE1FC
FFE1FC
FFF1FC
FFF1FC
FDF1FC
FDF1FC
FDF9FC
FDF9FC
FCF9FC
FCF9FC
FCFDFC
FCFDFC
FC7DFC
FC7DFC
FC7FFC
FC7FFC
FC3FFC
FC3FFC
FC3FFC
FC3FFC
FC1FFC
FC1FFC
FC1FFC
FC1FFC
FC0FFC
FC0FFC
FC0FFC
FC07FC
FC07FC
FC07FC
FC07FC
FC03FC
FC03FC
FC03FC
FC03FC
ENDCHAR
STARTCHAR napostrophe
ENCODING 329
SWIDTH 542 0
DWIDTH 35 0
BBX 32 45 0 0
BITMAP
003FE03F
FE3FE03F
FE3FE03F
FE3FF03F
FE3FF03F
FE3FF03F
FE3FF03F
1E3FF83F
3C3FF83F
3C3FF83F
383FF83F
383FFC3F
703FFC3F
003F7C3F
003F7C3F
003F7E3F
003F7E3F
003F3E3F
003F3E3F
003F3F3F
003F3F3F
003F1F3F
003F1FBF
003F1FBF
003F0FBF
003F0FBF
003F0FFF
003F0FFF
003F07FF
003F07FF
003F07FF
003F07FF
003F03FF
003F03FF
003F03FF
003F03FF
003F01FF
003F01FF
003F01FF
003F01FF
003F00FF
003F00FF
003F00FF
003F00FF
003F007F
ENDCHAR
STARTCHAR Eng
ENCODING 330
SWIDTH 427 0
DWIDTH 27 0
BBX 22 56 3 -11
BITMAP
FF81FC
FF81FC
FF81FC
FF81FC
FFC1FC
FFC1FC
FFC1FC
FFC1FC
FFE1FC
FFE1FC
FFE1FC
FFF1FC
FFF1FC
FDF1FC
FDF1FC
FDF9FC
FDF9FC
FCF9FC
FCF9FC
FCFDFC
FCFDFC
FC7DFC
FC7DFC
FC7FFC
FC3FFC
FC3FFC
FC3FFC
FC3FFC
FC1FFC
FC1FFC
FC1FFC
FC1FFC
FC0FFC
FC0FFC
FC0FFC
FC07FC
FC07FC
FC07FC
FC07FC
FC03FC
FC03FC
FC03FC
FC03FC
FC01FC
FC01FC
0001FC
0001FC
0001FC
0003F8
006FF8
007FF8
007FF0
007FF0
007FE0
007FC0
007F00
ENDCHAR
STARTCHAR eng
ENCODING 331
SWIDTH 427 0
DWIDTH 27 0
BBX 22 56 3 -11
BITMAP
FF81FC
FF81FC
FF81FC
FF81FC
FFC1FC
FFC1FC
FFC1FC
FFC1FC
FFE1FC
FFE1FC
FFE1FC
FFF1FC
FFF1FC
FDF1FC
FDF1FC
FDF9FC
FDF9FC
FCF9FC
FCF9FC
FCFDFC
FCFDFC
FC7DFC
FC7DFC
FC7FFC
FC3FFC
FC3FFC
FC3FFC
FC3FFC
FC1FFC
FC1FFC
FC1FFC
FC1FFC
FC0FFC
FC0FFC
FC0FFC
FC07FC
FC07FC
FC07FC
FC07FC
FC03FC
FC03FC
FC03FC
FC03FC
FC01FC
FC01FC
0001FC
0001FC
0001FC
0003F8
006FF8
007FF8
007FF0
007FF0
007FE0
007FC0
007F00
ENDCHAR
STARTCHAR Omacron
ENCODING 332
SWIDTH 400 0
DWIDTH 26 0
BBX 21 55 2 -1
BITMAP
1FFFC0
1FFFC0
1FFFC0
1FFFC0
1FFFC0
000000
000000
000000
002000
03FF00
0FFFC0
1FFFE0
3FFFF0
7FFFF0
7FFFF8
7F87F8
FF03F8
FE03F8
FE03F8
FE03F8
FE03F8
FE03F8
FE03F8
FE03F8
FE03F8
FE03F8
FE03F8
FE03F8
FE03F8
FE03F8
FE03F8
FE03F8
FE03F8
FE03F8
FE03F8
FE03F8
FE03F8
FE03F8
FE03F8
FE03F8
FE03F8
FE03F8
FE03F8
FE03F8
FE03F8
FE03F8
FF03F8
7F87F8
7FFFF8
7FFFF0
3FFFF0
1FFFE0
0FFFC0
03FF00
002000
ENDCHAR
STARTCHAR omacron
ENCODING 333
SWIDTH 400 0
DWIDTH 26 0
BBX 21 55 2 -1
BITMAP
1FFFC0
1FFFC0
1FFFC0
1FFFC0
1FFFC0
000000
000000
000000
002000
03FF00
0FFFC0
1FFFE0
3FFFF0
7FFFF0
7FFFF8
7F87F8
FF03F8
FE03F8
FE03F8
FE03F8
FE03F8
FE03F8
FE03F8
FE03F8
FE03F8
FE03F8
FE03F8
FE03F8
FE03F8
FE03F8
FE03F8
FE03F8
FE03F8
FE03F8
FE03F8
FE03F8
FE03F8
FE03F8
FE03F8
FE03F8
FE03F8
FE03F8
FE03F8
FE03F8
FE03F8
FE03F8
FF03F8
7F87F8
7FFFF8
7FFFF0
3FFFF0
1FFFE0
0FFFC0
03FF00
002000
ENDCHAR
STARTCHAR Obreve
ENCODING 334
SWIDTH 400 0
DWIDTH 26 0
BBX 21 57 2 -1
BITMAP
1E03C0
1F03C0
1F87C0
0FFFC0
0FFF80
07FF80
03FF00
00FC00
000000
000000
002000
03FF00
0FFFC0
1FFFE0
3FFFF0
7FFFF0
7FFFF8
7F87F8
FF03F8
FE03F8
FE03F8
FE03F8
FE03F8
FE03F8
FE03F8
FE03F8
FE03F8
FE03F8
FE03F8
FE03F8
FE03F8
FE03F8
FE03F8
FE03F8
FE03F8
FE03F8
FE03F8
FE03F8
FE03F8
FE03F8
FE03F8
FE03F8
FE03F8
FE03F8
FE03F8
FE03F8
FE03F8
FE03F8
FF03F8
7F87F8
7FFFF8
7FFFF0
3FFFF0
1FFFE0
0FFFC0
03FF00
002000
ENDCHAR
STARTCHAR obreve
ENCODING 335
SWIDTH 400 0
DWIDTH 26 0
BBX 21 57 2 -1
BITMAP
1E03C0
1F03C0
1F87C0
0FFFC0
0FFF80
07FF80
03FF00
00FC00
000000
000000
002000
03FF00
0FFFC0
1FFFE0
3FFFF0
7FFFF0
7FFFF8
7F87F8
FF03F8
FE03F8
FE03F8
FE03F8
FE03F8
FE03F8
FE03F8
FE03F8
FE03F8
FE03F8
FE03F8
FE03F8
FE03F8
FE03F8
FE03F8
FE03F8
FE03F8
FE03F8
FE03F8
FE03F8
FE03F8
FE03F8
FE03F8
FE03F8
FE03F8
FE03F8
FE03F8
FE03F8
FE03F8
FE03F8
FF03F8
7F87F8
7FFFF8
7FFFF0
3FFFF0
1FFFE0
0FFFC0
03FF00
002000
ENDCHAR
STARTCHAR Ohungarumlaut
ENCODING 336
SWIDTH 400 0
DWIDTH 26 0
BBX 23 56 2 -1
BITMAP
03FCFE
03F1FC
07E1F8
0FE3F0
0FC7E0
1F87C0
3F0F80
000000
000000
002000
03FF00
0FFFC0
1FFFE0
3FFFF0
7FFFF0
7FFFF8
7F87F8
FF03F8
FE03F8
FE03F8
FE03F8
FE03F8
FE03F8
FE03F8
FE03F8
FE03F8
FE03F8
FE03F8
FE03F8
FE03F8
FE03F8
FE03F8
FE03F8
FE03F8
FE03F8
FE03F8
FE03F8
FE03F8
FE03F8
FE03F8
FE03F8
FE03F8
FE03F8
FE03F8
FE03F8
FE03F8
FE03F8
FF03F8
7F87F8
7FFFF8
7FFFF0
3FFFF0
1FFFE0
0FFFC0
03FF00
002000
ENDCHAR
STARTCHAR ohungarumlaut
ENCODING 337
SWIDTH 400 0
DWIDTH 26 0
BBX 23 56 2 -1
BITMAP
03FCFE
03F1FC
07E1F8
0FE3F0
0FC7E0
1F87C0
3F0F80
000000
000000
002000
03FF00
0FFFC0
1FFFE0
3FFFF0
7FFFF0
7FFFF8
7F87F8
FF03F8
FE03F8
FE03F8
FE03F8
FE03F8
FE03F8
FE03F8
FE03F8
FE03F8
FE03F8
FE03F8
FE03F8
FE03F8
FE03F8
FE03F8
FE03F8
FE03F8
FE03F8
FE03F8
FE03F8
FE03F8
FE03F8
FE03F8
FE03F8
FE03F8
FE03F8
FE03F8
FE03F8
FE03F8
FE03F8
FF03F8
7F87F8
7FFFF8
7FFFF0
3FFFF0
1FFFE0
0FFFC0
03FF00
002000
ENDCHAR
STARTCHAR OE
ENCODING 338
SWIDTH 577 0
DWIDTH 37 0
BBX 34 45 2 0
BITMAP
01FFFFFFC0
0FFFFFFFC0
1FFFFFFFC0
3FFFFFFFC0
3FFFFFFFC0
7FFFFFFFC0
7FE3F80000
FF03F80000
FE03F80000
FE03F80000
FE03F80000
FE03F80000
FE03F80000
FE03F80000
FE03F80000
FE03F80000
FE03F80000
FE03F80000
FE03FFFE00
FE03FFFE00
FE03FFFE00
FE03FFFE00
FE03FFFE00
FE03FFFE00
FE03F80000
FE03F80000
FE03F80000
FE03F80000
FE03F80000
FE03F80000
FE03F80000
FE03F80000
FE03F80000
FE03F80000
FE03F80000
FE03F80000
FE03F80000
FF03F80000
7FE3F80000
7FFFFFFFC0
3FFFFFFFC0
3FFFFFFFC0
1FFFFFFFC0
0FFFFFFFC0
01FFFFFFC0
ENDCHAR
STARTCHAR oe
ENCODING 339
SWIDTH 577 0
DWIDTH 37 0
BBX 34 45 2 0
BITMAP
01FFFFFFC0
0FFFFFFFC0
1FFFFFFFC0
3FFFFFFFC0
3FFFFFFFC0
7FFFFFFFC0
7FE3F80000
FF03F80000
FE03F80000
FE03F80000
FE03F80000
FE03F80000
FE03F80000
FE03F80000
FE03F80000
FE03F80000
FE03F80000
FE03F80000
FE03FFFE00
FE03FFFE00
FE03FFFE00
FE03FFFE00
FE03FFFE00
FE03FFFE00
FE03F80000
FE03F80000
FE03F80000
FE03F80000
FE03F80000
FE03F80000
FE03F80000
FE03F80000
FE03F80000
FE03F80000
FE03F80000
FE03F80000
FE03F80000
FF03F80000
7FE3F80000
7FFFFFFFC0
3FFFFFFFC0
3FFFFFFFC0
1FFFFFFFC0
0FFFFFFFC0
01FFFFFFC0
ENDCHAR
STARTCHAR Racute
ENCODING 340
SWIDTH 403 0
DWIDTH 26 0
BBX 21 55 3 0
BITMAP
003FC0
007F00
00FE00
00FC00
01F800
03F000
03E000
000000
000000
000000
FFFC00
FFFF80
FFFFC0
FFFFE0
FFFFE0
FFFFF0
FE3FF0
FE07F0
FE07F0
FE07F0
FE07F0
FE07F0
FE07F0
FE07F0
FE07F0
FE07F0
FE07F0
FE07F0
FE0FE0
FFFFE0
FFFFC0
FFFF00
FFFF80
FFFFE0
FFFFE0
FE7FF0
FE0FF0
FE07F0
FE07F0
FE07F0
FE07F8
FE03F8
FE03F8
FE03F8
FE03F8
FE03F8
FE03F8
FE03F8
FE03F8
FE03F8
FE03F8
FE03F8
FE03F8
FE03F8
FE03F8
ENDCHAR
STARTCHAR racute
ENCODING 341
SWIDTH 403 0
DWIDTH 26 0
BBX 21 55 3 0
BITMAP
003FC0
007F00
00FE00
00FC00
01F800
03F000
03E000
000000
000000
000000
FFFC00
FFFF80
FFFFC0
FFFFE0
FFFFE0
FFFFF0
FE3FF0
FE07F0
FE07F0
FE07F0
FE07F0
FE07F0
FE07F0
FE07F0
FE07F0
FE07F0
FE07F0
FE07F0
FE0FE0
FFFFE0
FFFFC0
FFFF00
FFFF80
FFFFE0
FFFFE0
FE7FF0
FE0FF0
FE07F0
FE07F0
FE07F0
FE07F8
FE03F8
FE03F8
FE03F8
FE03F8
FE03F8
FE03F8
FE03F8
FE03F8
FE03F8
FE03F8
FE03F8
FE03F8
FE03F8
FE03F8
ENDCHAR
STARTCHAR uni0156
ENCODING 342
SWIDTH 403 0
DWIDTH 26 0
BBX 21 57 3 -12
BITMAP
FFFC00
FFFF80
FFFFC0
FFFFE0
FFFFE0
FFFFF0
FE3FF0
FE07F0
FE07F0
FE07F0
FE07F0
FE07F0
FE07F0
FE07F0
FE07F0
FE07F0
FE07F0
FE07F0
FE0FE0
FFFFE0
FFFFC0
FFFF00
FFFF80
FFFFE0
FFFFE0
FE7FF0
FE0FF0
FE07F0
FE07F0
FE07F0
FE07F8
FE03F8
FE03F8
FE03F8
FE03F8
FE03F8
FE03F8
FE03F8
FE03F8
FE03F8
FE03F8
FE03F8
FE03F8
FE03F8
FE03F8
000000
000000
000000
01F800
01F800
01F800
01F800
01F800
01F800
007000
007000
00E000
ENDCHAR
STARTCHAR uni0157
ENCODING 343
SWIDTH 403 0
DWIDTH 26 0
BBX 21 57 3 -12
BITMAP
FFFC00
FFFF80
FFFFC0
FFFFE0
FFFFE0
FFFFF0
FE3FF0
FE07F0
FE07F0
FE07F0
FE07F0
FE07F0
FE07F0
FE07F0
FE07F0
FE07F0
FE07F0
FE07F0
FE0FE0
FFFFE0
FFFFC0
FFFF00
FFFF80
FFFFE0
FFFFE0
FE7FF0
FE0FF0
FE07F0
FE07F0
FE07F0
FE07F8
FE03F8
FE03F8
FE03F8
FE03F8
FE03F8
FE03F8
FE03F8
FE03F8
FE03F8
FE03F8
FE03F8
FE03F8
FE03F8
FE03F8
000000
000000
000000
01F800
01F800
01F800
01F800
01F800
01F800
007000
007000
00E000
ENDCHAR
STARTCHAR Rcaron
ENCODING 344
SWIDTH 403 0
DWIDTH 26 0
BBX 21 56 3 0
BITMAP
7C07C0
7E0F80
3F1F80
1FBF00
0FFE00
0FFC00
07FC00
03F800
000000
000000
000000
FFFC00
FFFF80
FFFFC0
FFFFE0
FFFFE0
FFFFF0
FE3FF0
FE07F0
FE07F0
FE07F0
FE07F0
FE07F0
FE07F0
FE07F0
FE07F0
FE07F0
FE07F0
FE07F0
FE0FE0
FFFFE0
FFFFC0
FFFF00
FFFF80
FFFFE0
FFFFE0
FE7FF0
FE0FF0
FE07F0
FE07F0
FE07F0
FE07F8
FE03F8
FE03F8
FE03F8
FE03F8
FE03F8
FE03F8
FE03F8
FE03F8
FE03F8
FE03F8
FE03F8
FE03F8
FE03F8
FE03F8
ENDCHAR
STARTCHAR rcaron
ENCODING 345
SWIDTH 403 0
DWIDTH 26 0
BBX 21 56 3 0
BITMAP
7C07C0
7E0F80
3F1F80
1FBF00
0FFE00
0FFC00
07FC00
03F800
000000
000000
000000
FFFC00
FFFF80
FFFFC0
FFFFE0
FFFFE0
FFFFF0
FE3FF0
FE07F0
FE07F0
FE07F0
FE07F0
FE07F0
FE07F0
FE07F0
FE07F0
FE07F0
FE07F0
FE07F0
FE0FE0
FFFFE0
FFFFC0
FFFF00
FFFF80
FFFFE0
FFFFE0
FE7FF0
FE0FF0
FE07F0
FE07F0
FE07F0
FE07F8
FE03F8
FE03F8
FE03F8
FE03F8
FE03F8
FE03F8
FE03F8
FE03F8
FE03F8
FE03F8
FE03F8
FE03F8
FE03F8
FE03F8
ENDCHAR
STARTCHAR Sacute
ENCODING 346
SWIDTH 372 0
DWIDTH 24 0
BBX 21 56 1 -1
BITMAP
001FE0
001FC0
003F80
007F00
007E00
00FC00
01F800
000000
000000
001000
03FF00
0FFFC0
1FFFE0
3FFFE0
3FFFF0
7FFFF0
7F87F8
7F03F8
7F03F8
7F01F8
7F01F8
7F01F8
7F01F8
7F0000
7F8000
7F8000
3FC000
3FE000
1FF000
1FF800
0FFC00
07FE00
03FF00
01FF80
00FFC0
007FE0
003FF0
001FF0
000FF0
0007F8
0003F8
0003F8
FE03F8
FE03F8
FE03F8
FE03F8
7E03F8
7F03F8
7F87F8
7FFFF8
3FFFF0
3FFFF0
1FFFE0
0FFFC0
03FF00
002000
ENDCHAR
STARTCHAR sacute
ENCODING 347
SWIDTH 372 0
DWIDTH 24 0
BBX 21 56 1 -1
BITMAP
001FE0
001FC0
003F80
007F00
007E00
00FC00
01F800
000000
000000
001000
03FF00
0FFFC0
1FFFE0
3FFFE0
3FFFF0
7FFFF0
7F87F8
7F03F8
7F03F8
7F01F8
7F01F8
7F01F8
7F01F8
7F0000
7F8000
7F8000
3FC000
3FE000
1FF000
1FF800
0FFC00
07FE00
03FF00
01FF80
00FFC0
007FE0
003FF0
001FF0
000FF0
0007F8
0003F8
0003F8
FE03F8
FE03F8
FE03F8
FE03F8
7E03F8
7F03F8
7F87F8
7FFFF8
3FFFF0
3FFFF0
1FFFE0
0FFFC0
03FF00
002000
ENDCHAR
STARTCHAR Scircumflex
ENCODING 348
SWIDTH 372 0
DWIDTH 24 0
BBX 21 57 1 -1
BITMAP
00FC00
01FE00
03FF00
07FF00
07FF80
0FCFC0
1F87C0
3F03E0
000000
000000
001000
03FF00
0FFFC0
1FFFE0
3FFFE0
3FFFF0
7FFFF0
7F87F8
7F03F8
7F03F8
7F01F8
7F01F8
7F01F8
7F01F8
7F0000
7F8000
7F8000
3FC000
3FE000
1FF000
1FF800
0FFC00
07FE00
03FF00
01FF80
00FFC0
007FE0
003FF0
001FF0
000FF0
0007F8
0003F8
0003F8
FE03F8
FE03F8
FE03F8
FE03F8
7E03F8
7F03F8
7F87F8
7FFFF8
3FFFF0
3FFFF0
1FFFE0
0FFFC0
03FF00
002000
ENDCHAR
STARTCHAR scircumflex
ENCODING 349
SWIDTH 372 0
DWIDTH 24 0
BBX 21 57 1 -1
BITMAP
00FC00
01FE00
03FF00
07FF00
07FF80
0FCFC0
1F87C0
3F03E0
000000
000000
001000
03FF00
0FFFC0
1FFFE0
3FFFE0
3FFFF0
7FFFF0
7F87F8
7F03F8
7F03F8
7F01F8
7F01F8
7F01F8
7F01F8
7F0000
7F8000
7F8000
3FC000
3FE000
1FF000
1FF800
0FFC00
07FE00
03FF00
01FF80
00FFC0
007FE0
003FF0
001FF0
000FF0
0007F8
0003F8
0003F8
FE03F8
FE03F8
FE03F8
FE03F8
7E03F8
7F03F8
7F87F8
7FFFF8
3FFFF0
3FFFF0
1FFFE0
0FFFC0
03FF00
002000
ENDCHAR
STARTCHAR Scedilla
ENCODING 350
SWIDTH 372 0
DWIDTH 24 0
BBX 21 56 1 -10
BITMAP
001000
03FF00
0FFFC0
1FFFE0
3FFFE0
3FFFF0
7FFFF0
7F87F8
7F03F8
7F03F8
7F03F8
7F01F8
7F01F8
7F01F8
7F0000
7F8000
7F8000
3FC000
3FE000
1FF000
1FF800
0FFC00
07FE00
03FF00
01FF80
00FFC0
007FE0
003FE0
001FF0
000FF0
000FF8
0007F8
0003F8
FE03F8
FE03F8
FE03F8
FE03F8
FE03F8
7E03F8
7F03F8
7F87F8
7FFFF0
3FFFF0
3FFFE0
1FFFC0
07FF80
01FE00
007800
007800
007F00
000F80
000F80
0F8F80
0FDF80
07FF00
03FE00
ENDCHAR
STARTCHAR scedilla
ENCODING 351
SWIDTH 372 0
DWIDTH 24 0
BBX 21 56 1 -10
BITMAP
001000
03FF00
0FFFC0
1FFFE0
3FFFE0
3FFFF0
7FFFF0
7F87F8
7F03F8
7F03F8
7F03F8
7F01F8
7F01F8
7F01F8
7F0000
7F8000
7F8000
3FC000
3FE000
1FF000
1FF800
0FFC00
07FE00
03FF00
01FF80
00FFC0
007FE0
003FE0
001FF0
000FF0
000FF8
0007F8
0003F8
FE03F8
FE03F8
FE03F8
FE03F8
FE03F8
7E03F8
7F03F8
7F87F8
7FFFF0
3FFFF0
3FFFE0
1FFFC0
07FF80
01FE00
007800
007800
007F00
000F80
000F80
0F8F80
0FDF80
07FF00
03FE00
ENDCHAR
STARTCHAR Scaron
ENCODING 352
SWIDTH 372 0
DWIDTH 24 0
BBX 21 57 1 -1
BITMAP
3F03E0
1F87E0
0F8FC0
0FDF80
07FF80
03FF00
01FE00
01FE00
000000
000000
001000
03FF00
0FFFC0
1FFFE0
3FFFE0
3FFFF0
7FFFF0
7F87F8
7F03F8
7F03F8
7F01F8
7F01F8
7F01F8
7F01F8
7F0000
7F8000
7F8000
3FC000
3FE000
1FF000
1FF800
0FFC00
07FE00
03FF00
01FF80
00FFC0
007FE0
003FF0
001FF0
000FF0
0007F8
0003F8
0003F8
FE03F8
FE03F8
FE03F8
FE03F8
7E03F8
7F03F8
7F87F8
7FFFF8
3FFFF0
3FFFF0
1FFFE0
0FFFC0
03FF00
002000
ENDCHAR
STARTCHAR scaron
ENCODING 353
SWIDTH 372 0
DWIDTH 24 0
BBX 21 57 1 -1
BITMAP
3F03E0
1F87E0
0F8FC0
0FDF80
07FF80
03FF00
01FE00
01FE00
000000
000000
001000
03FF00
0FFFC0
1FFFE0
3FFFE0
3FFFF0
7FFFF0
7F87F8
7F03F8
7F03F8
7F01F8
7F01F8
7F01F8
7F01F8
7F0000
7F8000
7F8000
3FC000
3FE000
1FF000
1FF800
0FFC00
07FE00
03FF00
01FF80
00FFC0
007FE0
003FF0
001FF0
000FF0
0007F8
0003F8
0003F8
FE03F8
FE03F8
FE03F8
FE03F8
7E03F8
7F03F8
7F87F8
7FFFF8
3FFFF0
3FFFF0
1FFFE0
0FFFC0
03FF00
002000
ENDCHAR
STARTCHAR uni0162
ENCODING 354
SWIDTH 364 0
DWIDTH 23 0
BBX 22 54 1 -9
BITMAP
FFFFFC
FFFFFC
FFFFFC
FFFFFC
FFFFFC
FFFFFC
01FC00
01FC00
01FC00
01FC00
01FC00
01FC00
01FC00
01FC00
01FC00
01FC00
01FC00
01FC00
01FC00
01FC00
01FC00
01FC00
01FC00
01FC00
01FC00
01FC00
01FC00
01FC00
01FC00
01FC00
01FC00
01FC00
01FC00
01FC00
01FC00
01FC00
01FC00
01FC00
01FC00
01FC00
01FC00
01FC00
01FC00
01FC00
01FC00
007000
007000
007800
007F00
000F80
0F8F80
0FDF80
07FF00
03FE00
ENDCHAR
STARTCHAR uni0163
ENCODING 355
SWIDTH 364 0
DWIDTH 23 0
BBX 22 54 1 -9
BITMAP
FFFFFC
FFFFFC
FFFFFC
FFFFFC
FFFFFC
FFFFFC
01FC00
01FC00
01FC00
01FC00
01FC00
01FC00
01FC00
01FC00
01FC00
01FC00
01FC00
01FC00
01FC00
01FC00
01FC00
01FC00
01FC00
01FC00
01FC00
01FC00
01FC00
01FC00
01FC00
01FC00
01FC00
01FC00
01FC00
01FC00
01FC00
01FC00
01FC00
01FC00
01FC00
01FC00
01FC00
01FC00
01FC00
01FC00
01FC00
007000
007000
007800
007F00
000F80
0F8F80
0FDF80
07FF00
03FE00
ENDCHAR
STARTCHAR Tcaron
ENCODING 356
SWIDTH 364 0
DWIDTH 23 0
BBX 22 56 1 0
BITMAP
3E03E0
1F07E0
1F8FC0
0FDF80
07FF00
03FF00
03FE00
01FC00
000000
000000
000000
FFFFFC
FFFFFC
FFFFFC
FFFFFC
FFFFFC
FFFFFC
01FC00
01FC00
01FC00
01FC00
01FC00
01FC00
01FC00
01FC00
01FC00
01FC00
01FC00
01FC00
01FC00
01FC00
01FC00
01FC00
01FC00
01FC00
01FC00
01FC00
01FC00
01FC00
01FC00
01FC00
01FC00
01FC00
01FC00
01FC00
01FC00
01FC00
01FC00
01FC00
01FC00
01FC00
01FC00
01FC00
01FC00
01FC00
01FC00
ENDCHAR
STARTCHAR tcaron
ENCODING 357
SWIDTH 364 0
DWIDTH 23 0
BBX 22 56 1 0
BITMAP
3E03E0
1F07E0
1F8FC0
0FDF80
07FF00
03FF00
03FE00
01FC00
000000
000000
000000
FFFFFC
FFFFFC
FFFFFC
FFFFFC
FFFFFC
FFFFFC
01FC00
01FC00
01FC00
01FC00
01FC00
01FC00
01FC00
01FC00
01FC00
01FC00
01FC00
01FC00
01FC00
01FC00
01FC00
01FC00
01FC00
01FC00
01FC00
01FC00
01FC00
01FC00
01FC00
01FC00
01FC00
01FC00
01FC00
01FC00
01FC00
01FC00
01FC00
01FC00
01FC00
01FC00
01FC00
01FC00
01FC00
01FC00
01FC00
ENDCHAR
STARTCHAR Tbar
ENCODING 358
SWIDTH 364 0
DWIDTH 23 0
BBX 22 45 1 0
BITMAP
FFFFFC
FFFFFC
FFFFFC
FFFFFC
FFFFFC
FFFFFC
01FC00
01FC00
01FC00
01FC00
01FC00
01FC00
01FC00
01FC00
01FC00
01FC00
01FC00
01FC00
3FFFE0
3FFFE0
3FFFE0
3FFFE0
3FFFE0
3FFFE0
01FC00
01FC00
01FC00
01FC00
01FC00
01FC00
01FC00
01FC00
01FC00
01FC00
01FC00
01FC00
01FC00
01FC00
01FC00
01FC00
01FC00
01FC00
01FC00
01FC00
01FC00
ENDCHAR
STARTCHAR tbar
ENCODING 359
SWIDTH 364 0
DWIDTH 23 0
BBX 22 45 1 0
BITMAP
FFFFFC
FFFFFC
FFFFFC
FFFFFC
FFFFFC
FFFFFC
01FC00
01FC00
01FC00
01FC00
01FC00
01FC00
01FC00
01FC00
01FC00
01FC00
01FC00
01FC00
3FFFE0
3FFFE0
3FFFE0
3FFFE0
3FFFE0
3FFFE0
01FC00
01FC00
01FC00
01FC00
01FC00
01FC00
01FC00
01FC00
01FC00
01FC00
01FC00
01FC00
01FC00
01FC00
01FC00
01FC00
01FC00
01FC00
01FC00
01FC00
01FC00
ENDCHAR
STARTCHAR Utilde
ENCODING 360
SWIDTH 402 0
DWIDTH 26 0
BBX 21 57 2 -1
BITMAP
03C0C0
0FF1F0
0FFFE0
1FFFE0
3FFFC0
3E7F80
0C1F00
000000
000000
000000
000000
FE01F8
FE01F8
FE01F8
FE01F8
FE01F8
FE01F8
FE01F8
FE01F8
FE01F8
FE01F8
FE01F8
FE01F8
FE01F8
FE01F8
FE01F8
FE01F8
FE01F8
FE01F8
FE01F8
FE01F8
FE01F8
FE01F8
FE01F8
FE01F8
FE01F8
FE01F8
FE01F8
FE01F8
FE01F8
FE01F8
FE01F8
FE01F8
FE01F8
FE01F8
FE01F8
FE01F8
FF03F8
7F03F8
7F87F8
7FFFF8
3FFFF0
3FFFF0
1FFFE0
0FFFC0
03FF00
003000
ENDCHAR
STARTCHAR utilde
ENCODING 361
SWIDTH 402 0
DWIDTH 26 0
BBX 21 57 2 -1
BITMAP
03C0C0
0FF1F0
0FFFE0
1FFFE0
3FFFC0
3E7F80
0C1F00
000000
000000
000000
000000
FE01F8
FE01F8
FE01F8
FE01F8
FE01F8
FE01F8
FE01F8
FE01F8
FE01F8
FE01F8
FE01F8
FE01F8
FE01F8
FE01F8
FE01F8
FE01F8
FE01F8
FE01F8
FE01F8
FE01F8
FE01F8
FE01F8
FE01F8
FE01F8
FE01F8
FE01F8
FE01F8
FE01F8
FE01F8
FE01F8
FE01F8
FE01F8
FE01F8
FE01F8
FE01F8
FE01F8
FF03F8
7F03F8
7F87F8
7FFFF8
3FFFF0
3FFFF0
1FFFE0
0FFFC0
03FF00
003000
ENDCHAR
STARTCHAR Umacron
ENCODING 362
SWIDTH 402 0
DWIDTH 26 0
BBX 21 55 2 -1
BITMAP
1FFFC0
1FFFC0
1FFFC0
1FFFC0
1FFFC0
000000
000000
000000
000000
FE01F8
FE01F8
FE01F8
FE01F8
FE01F8
FE01F8
FE01F8
FE01F8
FE01F8
FE01F8
FE01F8
FE01F8
FE01F8
FE01F8
FE01F8
FE01F8
FE01F8
FE01F8
FE01F8
FE01F8
FE01F8
FE01F8
FE01F8
FE01F8
FE01F8
FE01F8
FE01F8
FE01F8
FE01F8
FE01F8
FE01F8
FE01F8
FE01F8
FE01F8
FE01F8
FE01F8
FF03F8
7F03F8
7F87F8
7FFFF8
3FFFF0
3FFFF0
1FFFE0
0FFFC0
03FF00
003000
ENDCHAR
STARTCHAR umacron
ENCODING 363
SWIDTH 402 0
DWIDTH 26 0
BBX 21 55 2 -1
BITMAP
1FFFC0
1FFFC0
1FFFC0
1FFFC0
1FFFC0
000000
000000
000000
000000
FE01F8
FE01F8
FE01F8
FE01F8
FE01F8
FE01F8
FE01F8
FE01F8
FE01F8
FE01F8
FE01F8
FE01F8
FE01F8
FE01F8
FE01F8
FE01F8
FE01F8
FE01F8
FE01F8
FE01F8
FE01F8
FE01F8
FE01F8
FE01F8
FE01F8
FE01F8
FE01F8
FE01F8
FE01F8
FE01F8
FE01F8
FE01F8
FE01F8
FE01F8
FE01F8
FE01F8
FF03F8
7F03F8
7F87F8
7FFFF8
3FFFF0
3FFFF0
1FFFE0
0FFFC0
03FF00
003000
ENDCHAR
STARTCHAR Ubreve
ENCODING 364
SWIDTH 402 0
DWIDTH 26 0
BBX 21 57 2 -1
BITMAP
1E03C0
1F03C0
0F87C0
0FFFC0
0FFF80
07FF80
03FF00
00FC00
000000
000000
000000
FE01F8
FE01F8
FE01F8
FE01F8
FE01F8
FE01F8
FE01F8
FE01F8
FE01F8
FE01F8
FE01F8
FE01F8
FE01F8
FE01F8
FE01F8
FE01F8
FE01F8
FE01F8
FE01F8
FE01F8
FE01F8
FE01F8
FE01F8
FE01F8
FE01F8
FE01F8
FE01F8
FE01F8
FE01F8
FE01F8
FE01F8
FE01F8
FE01F8
FE01F8
FE01F8
FE01F8
FF03F8
7F03F8
7F87F8
7FFFF8
3FFFF0
3FFFF0
1FFFE0
0FFFC0
03FF00
003000
ENDCHAR
STARTCHAR ubreve
ENCODING 365
SWIDTH 402 0
DWIDTH 26 0
BBX 21 57 2 -1
BITMAP
1E03C0
1F03C0
0F87C0
0FFFC0
0FFF80
07FF80
03FF00
00FC00
000000
000000
000000
FE01F8
FE01F8
FE01F8
FE01F8
FE01F8
FE01F8
FE01F8
FE01F8
FE01F8
FE01F8
FE01F8
FE01F8
FE01F8
FE01F8
FE01F8
FE01F8
FE01F8
FE01F8
FE01F8
FE01F8
FE01F8
FE01F8
FE01F8
FE01F8
FE01F8
FE01F8
FE01F8
FE01F8
FE01F8
FE01F8
FE01F8
FE01F8
FE01F8
FE01F8
FE01F8
FE01F8
FF03F8
7F03F8
7F87F8
7FFFF8
3FFFF0
3FFFF0
1FFFE0
0FFFC0
03FF00
003000
ENDCHAR
STARTCHAR Uring
ENCODING 366
SWIDTH 402 0
DWIDTH 26 0
BBX 21 60 2 -1
BITMAP
00F800
01FE00
03FF00
07CF00
078700
078780
078700
03CF00
03FF00
01FE00
00F800
000000
000000
000000
FE01F8
FE01F8
FE01F8
FE01F8
FE01F8
FE01F8
FE01F8
FE01F8
FE01F8
FE01F8
FE01F8
FE01F8
FE01F8
FE01F8
FE01F8
FE01F8
FE01F8
FE01F8
FE01F8
FE01F8
FE01F8
FE01F8
FE01F8
FE01F8
FE01F8
FE01F8
FE01F8
FE01F8
FE01F8
FE01F8
FE01F8
FE01F8
FE01F8
FE01F8
FE01F8
FE01F8
FF03F8
7F03F8
7F87F8
7FFFF8
3FFFF0
3FFFF0
1FFFE0
0FFFC0
03FF00
003000
ENDCHAR
STARTCHAR uring
ENCODING 367
SWIDTH 402 0
DWIDTH 26 0
BBX 21 60 2 -1
BITMAP
00F800
01FE00
03FF00
07CF00
078700
078780
078700
03CF00
03FF00
01FE00
00F800
000000
000000
000000
FE01F8
FE01F8
FE01F8
FE01F8
FE01F8
FE01F8
FE01F8
FE01F8
FE01F8
FE01F8
FE01F8
FE01F8
FE01F8
FE01F8
FE01F8
FE01F8
FE01F8
FE01F8
FE01F8
FE01F8
FE01F8
FE01F8
FE01F8
FE01F8
FE01F8
FE01F8
FE01F8
FE01F8
FE01F8
FE01F8
FE01F8
FE01F8
FE01F8
FE01F8
FE01F8
FE01F8
FF03F8
7F03F8
7F87F8
7FFFF8
3FFFF0
3FFFF0
1FFFE0
0FFFC0
03FF00
003000
ENDCHAR
STARTCHAR Uhungarumlaut
ENCODING 368
SWIDTH 402 0
DWIDTH 26 0
BBX 23 56 2 -1
BITMAP
03FCFE
03F1FC
07F1F8
07E3F0
0FC7E0
1F87C0
3F0F80
000000
000000
000000
FE01F8
FE01F8
FE01F8
FE01F8
FE01F8
FE01F8
FE01F8
FE01F8
FE01F8
FE01F8
FE01F8
FE01F8
FE01F8
FE01F8
FE01F8
FE01F8
FE01F8
FE01F8
FE01F8
FE01F8
FE01F8
FE01F8
FE01F8
FE01F8
FE01F8
FE01F8
FE01F8
FE01F8
FE01F8
FE01F8
FE01F8
FE01F8
FE01F8
FE01F8
FE01F8
FE01F8
FF03F8
7F03F8
7F87F8
7FFFF8
3FFFF0
3FFFF0
1FFFE0
0FFFC0
03FF00
003000
ENDCHAR
STARTCHAR uhungarumlaut
ENCODING 369
SWIDTH 402 0
DWIDTH 26 0
BBX 23 56 2 -1
BITMAP
03FCFE
03F1FC
07F1F8
07E3F0
0FC7E0
1F87C0
3F0F80
000000
000000
000000
FE01F8
FE01F8
FE01F8
FE01F8
FE01F8
FE01F8
FE01F8
FE01F8
FE01F8
FE01F8
FE01F8
FE01F8
FE01F8
FE01F8
FE01F8
FE01F8
FE01F8
FE01F8
FE01F8
FE01F8
FE01F8
FE01F8
FE01F8
FE01F8
FE01F8
FE01F8
FE01F8
FE01F8
FE01F8
FE01F8
FE01F8
FE01F8
FE01F8
FE01F8
FE01F8
FE01F8
FF03F8
7F03F8
7F87F8
7FFFF8
3FFFF0
3FFFF0
1FFFE0
0FFFC0
03FF00
003000
ENDCHAR
STARTCHAR Uogonek
ENCODING 370
SWIDTH 402 0
DWIDTH 26 0
BBX 21 55 2 -10
BITMAP
FE01F8
FE01F8
FE01F8
FE01F8
FE01F8
FE01F8
FE01F8
FE01F8
FE01F8
FE01F8
FE01F8
FE01F8
FE01F8
FE01F8
FE01F8
FE01F8
FE01F8
FE01F8
FE01F8
FE01F8
FE01F8
FE01F8
FE01F8
FE01F8
FE01F8
FE01F8
FE01F8
FE01F8
FE01F8
FE01F8
FE01F8
FE01F8
FE01F8
FE01F8
FE01F8
FE01F8
FF03F8
7F03F8
7F87F8
7FFFF8
3FFFF0
3FFFF0
1FFFE0
0FFFC0
07FF80
007E00
007800
00F800
00F800
01F000
01F800
01FF80
01FF80
00FF80
003F80
ENDCHAR
STARTCHAR uogonek
ENCODING 371
SWIDTH 402 0
DWIDTH 26 0
BBX 21 55 2 -10
BITMAP
FE01F8
FE01F8
FE01F8
FE01F8
FE01F8
FE01F8
FE01F8
FE01F8
FE01F8
FE01F8
FE01F8
FE01F8
FE01F8
FE01F8
FE01F8
FE01F8
FE01F8
FE01F8
FE01F8
FE01F8
FE01F8
FE01F8
FE01F8
FE01F8
FE01F8
FE01F8
FE01F8
FE01F8
FE01F8
FE01F8
FE01F8
FE01F8
FE01F8
FE01F8
FE01F8
FE01F8
FF03F8
7F03F8
7F87F8
7FFFF8
3FFFF0
3FFFF0
1FFFE0
0FFFC0
07FF80
007E00
007800
00F800
00F800
01F000
01F800
01FF80
01FF80
00FF80
003F80
ENDCHAR
STARTCHAR Wcircumflex
ENCODING 372
SWIDTH 557 0
DWIDTH 36 0
BBX 34 56 1 0
BITMAP
0003F00000
0007F80000
000FFC0000
001FFC0000
001FFE0000
003F3F0000
007E1F0000
00FC0F8000
0000000000
0000000000
0000000000
FE07F80FC0
FE07F81FC0
FE07F81F80
FE07F81F80
FE07F81F80
7E07FC1F80
7E07FC1F80
7E07FC1F80
7F07FC1F80
7F0FFC1F80
7F0FFC1F80
7F0FFC1F80
7F0FFC3F00
7F0FFC3F00
7F0FFC3F00
3F0FFE3F00
3F0FFE3F00
3F0FFE3F00
3F0FBE3F00
3F9FBE3F00
3F9F3E3F00
3F9F3E3F00
3F9F3E3E00
3F9F3E7E00
3F9F3E7E00
1F9F3E7E00
1F9F3F7E00
1F9F1F7E00
1F9F1F7E00
1FBF1F7E00
1FFE1F7E00
1FFE1F7E00
1FFE1F7C00
1FFE1F7C00
1FFE1FFC00
0FFE1FFC00
0FFE1FFC00
0FFE0FFC00
0FFE0FFC00
0FFC0FFC00
0FFC0FFC00
0FFC0FFC00
0FFC0FF800
0FFC0FF800
0FFC0FF800
ENDCHAR
STARTCHAR wcircumflex
ENCODING 373
SWIDTH 557 0
DWIDTH 36 0
BBX 34 56 1 0
BITMAP
0003F00000
0007F80000
000FFC0000
001FFC0000
001FFE0000
003F3F0000
007E1F0000
00FC0F8000
0000000000
0000000000
0000000000
FE07F80FC0
FE07F81FC0
FE07F81F80
FE07F81F80
FE07F81F80
7E07FC1F80
7E07FC1F80
7E07FC1F80
7F07FC1F80
7F0FFC1F80
7F0FFC1F80
7F0FFC1F80
7F0FFC3F00
7F0FFC3F00
7F0FFC3F00
3F0FFE3F00
3F0FFE3F00
3F0FFE3F00
3F0FBE3F00
3F9FBE3F00
3F9F3E3F00
3F9F3E3F00
3F9F3E3E00
3F9F3E7E00
3F9F3E7E00
1F9F3E7E00
1F9F3F7E00
1F9F1F7E00
1F9F1F7E00
1FBF1F7E00
1FFE1F7E00
1FFE1F7E00
1FFE1F7C00
1FFE1F7C00
1FFE1FFC00
0FFE1FFC00
0FFE1FFC00
0FFE0FFC00
0FFE0FFC00
0FFC0FFC00
0FFC0FFC00
0FFC0FFC00
0FFC0FF800
0FFC0FF800
0FFC0FF800
ENDCHAR
STARTCHAR Ycircumflex
ENCODING 374
SWIDTH 394 0
DWIDTH 25 0
BBX 24 56 1 0
BITMAP
00FE00
00FF00
01FF00
03FF80
07FFC0
07E7C0
0FC3E0
1F83F0
000000
000000
000000
FE007F
FE00FE
FF00FE
7F00FE
7F01FC
7F81FC
3F81FC
3F81F8
3FC3F8
1FC3F8
1FC3F0
1FC7F0
0FE7F0
0FE7E0
0FE7E0
07EFE0
07FFC0
07FFC0
03FFC0
03FF80
03FF80
01FF80
01FF00
01FF00
00FF00
00FE00
00FE00
00FE00
00FE00
00FE00
00FE00
00FE00
00FE00
00FE00
00FE00
00FE00
00FE00
00FE00
00FE00
00FE00
00FE00
00FE00
00FE00
00FE00
00FE00
ENDCHAR
STARTCHAR ycircumflex
ENCODING 375
SWIDTH 394 0
DWIDTH 25 0
BBX 24 56 1 0
BITMAP
00FE00
00FF00
01FF00
03FF80
07FFC0
07E7C0
0FC3E0
1F83F0
000000
000000
000000
FE007F
FE00FE
FF00FE
7F00FE
7F01FC
7F81FC
3F81FC
3F81F8
3FC3F8
1FC3F8
1FC3F0
1FC7F0
0FE7F0
0FE7E0
0FE7E0
07EFE0
07FFC0
07FFC0
03FFC0
03FF80
03FF80
01FF80
01FF00
01FF00
00FF00
00FE00
00FE00
00FE00
00FE00
00FE00
00FE00
00FE00
00FE00
00FE00
00FE00
00FE00
00FE00
00FE00
00FE00
00FE00
00FE00
00FE00
00FE00
00FE00
00FE00
ENDCHAR
STARTCHAR Ydieresis
ENCODING 376
SWIDTH 394 0
DWIDTH 25 0
BBX 24 54 1 0
BITMAP
0FC7F0
0FC7F0
0FC7F0
0FC7F0
0FC7F0
0FC7F0
000000
000000
000000
FE007F
FE00FE
FF00FE
7F00FE
7F01FC
7F81FC
3F81FC
3F81F8
3FC3F8
1FC3F8
1FC3F0
1FC7F0
0FE7F0
0FE7E0
0FE7E0
07EFE0
07FFC0
07FFC0
03FFC0
03FF80
03FF80
01FF80
01FF00
01FF00
00FF00
00FE00
00FE00
00FE00
00FE00
00FE00
00FE00
00FE00
00FE00
00FE00
00FE00
00FE00
00FE00
00FE00
00FE00
00FE00
00FE00
00FE00
00FE00
00FE00
00FE00
ENDCHAR
STARTCHAR Zacute
ENCODING 377
SWIDTH 362 0
DWIDTH 23 0
BBX 21 55 1 0
BITMAP
001FE0
001FC0
003F80
007F00
007E00
00FC00
01F800
000000
000000
000000
7FFFF8
7FFFF8
7FFFF8
7FFFF8
7FFFF8
7FFFF8
0007F8
0007F0
000FF0
000FF0
000FE0
001FE0
001FC0
003FC0
003FC0
003F80
007F80
007F00
00FF00
00FF00
00FE00
01FE00
01FC00
03FC00
03F800
03F800
07F800
07F000
0FF000
0FE000
0FE000
1FE000
1FC000
3FC000
3F8000
7F8000
7F8000
7F0000
FF0000
FFFFF8
FFFFF8
FFFFF8
FFFFF8
FFFFF8
FFFFF8
ENDCHAR
STARTCHAR zacute
ENCODING 378
SWIDTH 362 0
DWIDTH 23 0
BBX 21 55 1 0
BITMAP
001FE0
001FC0
003F80
007F00
007E00
00FC00
01F800
000000
000000
000000
7FFFF8
7FFFF8
7FFFF8
7FFFF8
7FFFF8
7FFFF8
0007F8
0007F0
000FF0
000FF0
000FE0
001FE0
001FC0
003FC0
003FC0
003F80
007F80
007F00
00FF00
00FF00
00FE00
01FE00
01FC00
03FC00
03F800
03F800
07F800
07F000
0FF000
0FE000
0FE000
1FE000
1FC000
3FC000
3F8000
7F8000
7F8000
7F0000
FF0000
FFFFF8
FFFFF8
FFFFF8
FFFFF8
FFFFF8
FFFFF8
ENDCHAR
STARTCHAR Zdotaccent
ENCODING 379
SWIDTH 362 0
DWIDTH 23 0
BBX 21 54 1 0
BITMAP
00FC00
00FC00
00FC00
00FC00
00FC00
00FC00
000000
000000
000000
7FFFF8
7FFFF8
7FFFF8
7FFFF8
7FFFF8
7FFFF8
0007F8
0007F0
000FF0
000FF0
000FE0
001FE0
001FC0
003FC0
003FC0
003F80
007F80
007F00
00FF00
00FF00
00FE00
01FE00
01FC00
03FC00
03F800
03F800
07F800
07F000
0FF000
0FE000
0FE000
1FE000
1FC000
3FC000
3F8000
7F8000
7F8000
7F0000
FF0000
FFFFF8
FFFFF8
FFFFF8
FFFFF8
FFFFF8
FFFFF8
ENDCHAR
STARTCHAR zdotaccent
ENCODING 380
SWIDTH 362 0
DWIDTH 23 0
BBX 21 54 1 0
BITMAP
00FC00
00FC00
00FC00
00FC00
00FC00
00FC00
000000
000000
000000
7FFFF8
7FFFF8
7FFFF8
7FFFF8
7FFFF8
7FFFF8
0007F8
0007F0
000FF0
000FF0
000FE0
001FE0
001FC0
003FC0
003FC0
003F80
007F80
007F00
00FF00
00FF00
00FE00
01FE00
01FC00
03FC00
03F800
03F800
07F800
07F000
0FF000
0FE000
0FE000
1FE000
1FC000
3FC000
3F8000
7F8000
7F8000
7F0000
FF0000
FFFFF8
FFFFF8
FFFFF8
FFFFF8
FFFFF8
FFFFF8
ENDCHAR
STARTCHAR Zcaron
ENCODING 381
SWIDTH 362 0
DWIDTH 23 0
BBX 21 56 1 0
BITMAP
3F03E0
1F07E0
0F8FC0
0FDF80
07FF80
03FF00
03FE00
01FE00
000000
000000
000000
7FFFF8
7FFFF8
7FFFF8
7FFFF8
7FFFF8
7FFFF8
0007F8
0007F0
000FF0
000FF0
000FE0
001FE0
001FC0
003FC0
003FC0
003F80
007F80
007F00
00FF00
00FF00
00FE00
01FE00
01FC00
03FC00
03F800
03F800
07F800
07F000
0FF000
0FE000
0FE000
1FE000
1FC000
3FC000
3F8000
7F8000
7F8000
7F0000
FF0000
FFFFF8
FFFFF8
FFFFF8
FFFFF8
FFFFF8
FFFFF8
ENDCHAR
STARTCHAR zcaron
ENCODING 382
SWIDTH 362 0
DWIDTH 23 0
BBX 21 56 1 0
BITMAP
3F03E0
1F07E0
0F8FC0
0FDF80
07FF80
03FF00
03FE00
01FE00
000000
000000
000000
7FFFF8
7FFFF8
7FFFF8
7FFFF8
7FFFF8
7FFFF8
0007F8
0007F0
000FF0
000FF0
000FE0
001FE0
001FC0
003FC0
003FC0
003F80
007F80
007F00
00FF00
00FF00
00FE00
01FE00
01FC00
03FC00
03F800
03F800
07F800
07F000
0FF000
0FE000
0FE000
1FE000
1FC000
3FC000
3F8000
7F8000
7F8000
7F0000
FF0000
FFFFF8
FFFFF8
FFFFF8
FFFFF8
FFFFF8
FFFFF8
ENDCHAR
STARTCHAR florin
ENCODING 402
SWIDTH 400 0
DWIDTH 26 0
BBX 23 52 1 -4
BITMAP
078F00
078F00
078F00
078F00
078F00
FFFFC0
FFFFE0
FFFFF0
FFFFF8
FFFFFC
FFFFFC
1FC3FC
1FC1FC
1FC1FE
1FC1FE
1FC0FE
1FC0FE
1FC1FC
1FC1FC
1FC1FC
1FC1FC
1FC3F8
1FFFF8
1FFFF0
1FFFC0
1FFFE0
1FFFF8
1FFFF8
1FCFFC
1FC1FC
1FC0FE
1FC0FE
1FC0FE
1FC0FE
1FC0FE
1FC0FE
1FC0FE
1FC0FE
1FC0FE
1FC1FE
1FC7FE
FFFFFC
FFFFFC
FFFFF8
FFFFF0
FFFFE0
FFFF80
078F00
078F00
078F00
078F00
078F00
ENDCHAR
STARTCHAR AEacute
ENCODING 508
SWIDTH 580 0
DWIDTH 37 0
BBX 35 55 1 0
BITMAP
00003FC000
00007F0000
0000FE0000
0000FC0000
0001F80000
0001F00000
0003E00000
0000000000
0000000000
0000000000
001FFFFFE0
001FFFFFE0
001FFFFFE0
001FFFFFE0
003FFFFFE0
003FFFFFE0
003FFE0000
003FFE0000
007FFE0000
007EFE0000
007EFE0000
007EFE0000
00FCFE0000
00FCFE0000
00FCFE0000
01FCFE0000
01F8FE0000
01F8FE0000
01F8FFFF00
03F8FFFF00
03F8FFFF00
03F0FFFF00
03F0FFFF00
07F0FFFF00
07F0FE0000
07E0FE0000
07E0FE0000
0FE0FE0000
0FE0FE0000
0FC0FE0000
1FFFFE0000
1FFFFE0000
1FFFFE0000
1FFFFE0000
3FFFFE0000
3FFFFE0000
3F80FE0000
3F00FE0000
7F00FE0000
7F00FFFFE0
7F00FFFFE0
7E00FFFFE0
FE00FFFFE0
FE00FFFFE0
FE00FFFFE0
ENDCHAR
STARTCHAR aeacute
ENCODING 509
SWIDTH 580 0
DWIDTH 37 0
BBX 35 55 1 0
BITMAP
00003FC000
00007F0000
0000FE0000
0000FC0000
0001F80000
0001F00000
0003E00000
0000000000
0000000000
0000000000
001FFFFFE0
001FFFFFE0
001FFFFFE0
001FFFFFE0
003FFFFFE0
003FFFFFE0
003FFE0000
003FFE0000
007FFE0000
007EFE0000
007EFE0000
007EFE0000
00FCFE0000
00FCFE0000
00FCFE0000
01FCFE0000
01F8FE0000
01F8FE0000
01F8FFFF00
03F8FFFF00
03F8FFFF00
03F0FFFF00
03F0FFFF00
07F0FFFF00
07F0FE0000
07E0FE0000
07E0FE0000
0FE0FE0000
0FE0FE0000
0FC0FE0000
1FFFFE0000
1FFFFE0000
1FFFFE0000
1FFFFE0000
3FFFFE0000
3FFFFE0000
3F80FE0000
3F00FE0000
7F00FE0000
7F00FFFFE0
7F00FFFFE0
7E00FFFFE0
FE00FFFFE0
FE00FFFFE0
FE00FFFFE0
ENDCHAR
STARTCHAR Oslashacute
ENCODING 510
SWIDTH 400 0
DWIDTH 26 0
BBX 23 57 1 -2
BITMAP
000FF0
001FE0
001FC0
003F80
003F00
007E00
00FC00
000000
000010
00101C
01FFBE
07FFFE
0FFFFC
1FFFFC
3FFFF8
3FFFFC
3FC3FC
7F81FC
7F01FC
7F01FC
7F03FC
7F03FC
7F03FC
7F07FC
7F07FC
7F0FFC
7F0FFC
7F0FFC
7F1FFC
7F1FFC
7F3FFC
7F3FFC
7F3DFC
7F7DFC
7F79FC
7FF9FC
7FF1FC
7FF1FC
7FF1FC
7FE1FC
7FE1FC
7FC1FC
7FC1FC
7FC1FC
7F81FC
7F81FC
7F01FC
7F81FC
3FC3FC
3FFFFC
3FFFF8
3FFFF8
7FFFF0
7FFFE0
F9FF80
381000
080000
ENDCHAR
STARTCHAR oslashacute
ENCODING 511
SWIDTH 400 0
DWIDTH 26 0
BBX 23 57 1 -2
BITMAP
000FF0
001FE0
001FC0
003F80
003F00
007E00
00FC00
000000
000010
00101C
01FFBE
07FFFE
0FFFFC
1FFFFC
3FFFF8
3FFFFC
3FC3FC
7F81FC
7F01FC
7F01FC
7F03FC
7F03FC
7F03FC
7F07FC
7F07FC
7F0FFC
7F0FFC
7F0FFC
7F1FFC
7F1FFC
7F3FFC
7F3FFC
7F3DFC
7F7DFC
7F79FC
7FF9FC
7FF1FC
7FF1FC
7FF1FC
7FE1FC
7FE1FC
7FC1FC
7FC1FC
7FC1FC
7F81FC
7F81FC
7F01FC
7F81FC
3FC3FC
3FFFFC
3FFFF8
3FFFF8
7FFFF0
7FFFE0
F9FF80
381000
080000
ENDCHAR
STARTCHAR uni0218
ENCODING 536
SWIDTH 372 0
DWIDTH 24 0
BBX 21 58 1 -12
BITMAP
001000
03FF00
0FFFC0
1FFFE0
3FFFE0
3FFFF0
7FFFF0
7F87F8
7F03F8
7F03F8
7F01F8
7F01F8
7F01F8
7F01F8
7F0000
7F8000
7F8000
3FC000
3FE000
1FF000
1FF800
0FFC00
07FE00
03FF00
01FF80
00FFC0
007FE0
003FF0
001FF0
000FF0
0007F8
0003F8
0003F8
FE03F8
FE03F8
FE03F8
FE03F8
7E03F8
7F03F8
7F87F8
7FFFF8
3FFFF0
3FFFF0
1FFFE0
0FFFC0
03FF00
002000
000000
000000
00FC00
00FC00
00FC00
00FC00
00FC00
00FC00
003800
003000
007000
ENDCHAR
STARTCHAR uni0219
ENCODING 537
SWIDTH 372 0
DWIDTH 24 0
BBX 21 58 1 -12
BITMAP
001000
03FF00
0FFFC0
1FFFE0
3FFFE0
3FFFF0
7FFFF0
7F87F8
7F03F8
7F03F8
7F01F8
7F01F8
7F01F8
7F01F8
7F0000
7F8000
7F8000
3FC000
3FE000
1FF000
1FF800
0FFC00
07FE00
03FF00
01FF80
00FFC0
007FE0
003FF0
001FF0
000FF0
0007F8
0003F8
0003F8
FE03F8
FE03F8
FE03F8
FE03F8
7E03F8
7F03F8
7F87F8
7FFFF8
3FFFF0
3FFFF0
1FFFE0
0FFFC0
03FF00
002000
000000
000000
00FC00
00FC00
00FC00
00FC00
00FC00
00FC00
003800
003000
007000
ENDCHAR
STARTCHAR uni021A
ENCODING 538
SWIDTH 364 0
DWIDTH 23 0
BBX 22 57 1 -12
BITMAP
FFFFFC
FFFFFC
FFFFFC
FFFFFC
FFFFFC
FFFFFC
01FC00
01FC00
01FC00
01FC00
01FC00
01FC00
01FC00
01FC00
01FC00
01FC00
01FC00
01FC00
01FC00
01FC00
01FC00
01FC00
01FC00
01FC00
01FC00
01FC00
01FC00
01FC00
01FC00
01FC00
01FC00
01FC00
01FC00
01FC00
01FC00
01FC00
01FC00
01FC00
01FC00
01FC00
01FC00
01FC00
01FC00
01FC00
01FC00
000000
000000
000000
00FC00
00FC00
00FC00
00FC00
00FC00
00F800
003800
007000
00E000
ENDCHAR
STARTCHAR uni021B
ENCODING 539
SWIDTH 364 0
DWIDTH 23 0
BBX 22 57 1 -12
BITMAP
FFFFFC
FFFFFC
FFFFFC
FFFFFC
FFFFFC
FFFFFC
01FC00
01FC00
01FC00
01FC00
01FC00
01FC00
01FC00
01FC00
01FC00
01FC00
01FC00
01FC00
01FC00
01FC00
01FC00
01FC00
01FC00
01FC00
01FC00
01FC00
01FC00
01FC00
01FC00
01FC00
01FC00
01FC00
01FC00
01FC00
01FC00
01FC00
01FC00
01FC00
01FC00
01FC00
01FC00
01FC00
01FC00
01FC00
01FC00
000000
000000
000000
00FC00
00FC00
00FC00
00FC00
00FC00
00F800
003800
007000
00E000
ENDCHAR
STARTCHAR uni0237
ENCODING 567
SWIDTH 265 0
DWIDTH 17 0
BBX 14 45 1 0
BITMAP
03FC
03FC
03FC
03FC
03FC
03FC
03FC
03FC
03FC
03FC
03FC
03FC
03FC
03FC
03FC
03FC
03FC
03FC
03FC
03FC
03FC
03FC
03FC
03FC
03FC
03FC
03FC
03FC
03FC
03FC
03FC
03FC
03FC
03FC
03FC
03F8
03F8
07F8
FFF8
FFF8
FFF0
FFF0
FFE0
FFC0
FE00
ENDCHAR
STARTCHAR uni02BC
ENCODING 700
SWIDTH 0 0
DWIDTH 0 0
BBX 6 12 -3 32
BITMAP
FC
FC
FC
FC
FC
FC
3C
38
38
78
70
F0
ENDCHAR
STARTCHAR circumflex
ENCODING 710
SWIDTH 500 0
DWIDTH 32 0
BBX 18 8 7 48
BITMAP
03F000
07F800
0FFC00
0FFC00
1FFE00
3F3F00
7E1F80
FC0FC0
ENDCHAR
STARTCHAR caron
ENCODING 711
SWIDTH 500 0
DWIDTH 32 0
BBX 18 8 7 48
BITMAP
FC0FC0
7E1F80
3F3F00
1F3E00
1FFE00
0FFC00
07F800
07F800
ENDCHAR
STARTCHAR uni02C9
ENCODING 713
SWIDTH 500 0
DWIDTH 32 0
BBX 14 5 9 49
BITMAP
FFFC
FFFC
FFFC
FFFC
FFFC
ENDCHAR
STARTCHAR breve
ENCODING 728
SWIDTH 500 0
DWIDTH 32 0
BBX 16 8 8 48
BITMAP
F81F
781E
7C3E
7FFE
7FFE
3FFC
1FF8
07E0
ENDCHAR
STARTCHAR dotaccent
ENCODING 729
SWIDTH 500 0
DWIDTH 32 0
BBX 6 6 13 48
BITMAP
FC
FC
FC
FC
FC
FC
ENDCHAR
STARTCHAR ring
ENCODING 730
SWIDTH 500 0
DWIDTH 32 0
BBX 12 11 10 48
BITMAP
0F00
3FC0
7FE0
79E0
F0F0
F0F0
F0F0
79E0
7FE0
3FC0
1F00
ENDCHAR
STARTCHAR ogonek
ENCODING 731
SWIDTH 500 0
DWIDTH 32 0
BBX 10 10 11 -9
BITMAP
0F00
3C00
7C00
7C00
F800
FC00
FFC0
FFC0
7FC0
1F80
ENDCHAR
STARTCHAR tilde
ENCODING 732
SWIDTH 500 0
DWIDTH 32 0
BBX 18 7 7 49
BITMAP
0F0300
1FC7C0
3FFF80
7FFF80
7FFF00
F8FE00
303C00
ENDCHAR
STARTCHAR hungarumlaut
ENCODING 733
SWIDTH 500 0
DWIDTH 32 0
BBX 21 7 8 48
BITMAP
0FE7F8
1FC7E0
1F8FC0
3F1F80
7E1F80
7C3F00
F87E00
ENDCHAR
STARTCHAR gravecomb
ENCODING 768
SWIDTH 0 0
DWIDTH 0 0
BBX 12 7 -8 48
BITMAP
FF00
7F00
3F80
1FC0
0FC0
07E0
03F0
ENDCHAR
STARTCHAR acutecomb
ENCODING 769
SWIDTH 0 0
DWIDTH 0 0
BBX 12 7 -4 48
BITMAP
0FF0
0FE0
1FC0
3F80
3F00
7E00
FC00
ENDCHAR
STARTCHAR uni0302
ENCODING 770
SWIDTH 0 0
DWIDTH 0 0
BBX 18 8 -9 48
BITMAP
03F000
07F800
0FFC00
0FFC00
1FFE00
3F3F00
7E1F80
FC0FC0
ENDCHAR
STARTCHAR tildecomb
ENCODING 771
SWIDTH 0 0
DWIDTH 0 0
BBX 18 7 -9 49
BITMAP
0F0300
1FC7C0
3FFF80
7FFF80
7FFF00
F8FE00
303C00
ENDCHAR
STARTCHAR uni0304
ENCODING 772
SWIDTH 0 0
DWIDTH 0 0
BBX 14 5 -7 49
BITMAP
FFFC
FFFC
FFFC
FFFC
FFFC
ENDCHAR
STARTCHAR uni0306
ENCODING 774
SWIDTH 0 0
DWIDTH 0 0
BBX 16 8 -8 48
BITMAP
F81F
781E
7C3E
7FFE
7FFE
3FFC
1FF8
07E0
ENDCHAR
STARTCHAR uni0307
ENCODING 775
SWIDTH 0 0
DWIDTH 0 0
BBX 6 6 -3 48
BITMAP
FC
FC
FC
FC
FC
FC
ENDCHAR
STARTCHAR uni0308
ENCODING 776
SWIDTH 0 0
DWIDTH 0 0
BBX 16 6 -8 48
BITMAP
FC3F
FC3F
FC3F
FC3F
FC3F
FC3F
ENDCHAR
STARTCHAR uni030A
ENCODING 778
SWIDTH 0 0
DWIDTH 0 0
BBX 12 11 -6 48
BITMAP
0F00
3FC0
7FE0
79E0
F0F0
F0F0
F0F0
79E0
7FE0
3FC0
1F00
ENDCHAR
STARTCHAR uni030B
ENCODING 779
SWIDTH 0 0
DWIDTH 0 0
BBX 21 7 -8 48
BITMAP
0FE7F8
1FC7E0
1F8FC0
3F1F80
7E1F80
7C3F00
F87E00
ENDCHAR
STARTCHAR uni030C
ENCODING 780
SWIDTH 0 0
DWIDTH 0 0
BBX 18 8 -9 48
BITMAP
FC0FC0
7E1F80
3F3F00
1F3E00
1FFE00
0FFC00
07F800
07F800
ENDCHAR
STARTCHAR uni0312
ENCODING 786
SWIDTH 0 0
DWIDTH 0 0
BBX 6 10 -3 48
BITMAP
18
38
70
70
FC
FC
FC
FC
FC
FC
ENDCHAR
STARTCHAR uni0326
ENCODING 806
SWIDTH 0 0
DWIDTH 0 0
BBX 6 9 -3 -12
BITMAP
FC
FC
FC
FC
FC
FC
38
38
70
ENDCHAR
STARTCHAR uni0327
ENCODING 807
SWIDTH 0 0
DWIDTH 0 0
BBX 13 11 -7 -9
BITMAP
0780
0780
0780
0780
07F0
00F8
00F8
F8F8
FDF8
7FF0
1FE0
ENDCHAR
STARTCHAR uni0328
ENCODING 808
SWIDTH 0 0
DWIDTH 0 0
BBX 10 10 -5 -9
BITMAP
0F00
3C00
7C00
7C00
F800
FC00
FFC0
FFC0
7FC0
1F80
ENDCHAR
STARTCHAR uni0335
ENCODING 821
SWIDTH 0 0
DWIDTH 0 0
BBX 14 6 -7 20
BITMAP
FFFC
FFFC
FFFC
FFFC
FFFC
FFFC
ENDCHAR
STARTCHAR uni0336
ENCODING 822
SWIDTH 0 0
DWIDTH 0 0
BBX 26 6 -13 20
BITMAP
FFFFFFC0
FFFFFFC0
FFFFFFC0
FFFFFFC0
FFFFFFC0
FFFFFFC0
ENDCHAR
STARTCHAR uni0337
ENCODING 823
SWIDTH 0 0
DWIDTH 0 0
BBX 22 49 -11 -2
BITMAP
000020
00003C
000038
000078
000078
000070
0000F0
0000E0
0001E0
0001E0
0001C0
0003C0
0003C0
000780
000780
000700
000F00
000F00
001E00
001E00
001C00
003C00
003C00
003800
007800
007800
00F000
00F000
00E000
01E000
01E000
03C000
03C000
038000
078000
078000
070000
0F0000
0F0000
1E0000
1E0000
1C0000
3C0000
3C0000
780000
780000
700000
F00000
100000
ENDCHAR
STARTCHAR uni0338
ENCODING 824
SWIDTH 0 0
DWIDTH 0 0
BBX 22 48 -11 -2
BITMAP
000038
00003C
00007C
000078
0000F8
0000F8
0000F0
0001F0
0001E0
0003E0
0003E0
0003C0
0007C0
000780
000F80
000F80
000F00
001F00
001E00
003E00
003E00
003C00
007C00
007800
00F800
00F800
00F000
01F000
01E000
03E000
03C000
03C000
07C000
078000
0F8000
0F0000
0F0000
1F0000
1E0000
3E0000
3C0000
7C0000
7C0000
780000
F80000
F00000
700000
100000
ENDCHAR
STARTCHAR uni0394
ENCODING 916
SWIDTH 401 0
DWIDTH 26 0
BBX 24 45 1 0
BITMAP
01FF80
01FF80
01FF80
03FF80
03FF80
03FF80
03FFC0
03FFC0
03FFC0
03EFC0
07EFC0
07EFC0
07EFE0
07EFE0
07EFE0
07E7E0
0FC7E0
0FC7E0
0FC7F0
0FC7F0
0FC7F0
0FC7F0
1FC3F0
1F83F0
1F83F8
1F83F8
1F83F8
1F83F8
3F83F8
3F81F8
3F01FC
3F01FC
3F01FC
3F01FC
7F01FC
7F01FC
7F00FE
7E00FE
7E00FE
7FFFFE
FFFFFE
FFFFFE
FFFFFE
FFFFFF
FFFFFF
ENDCHAR
STARTCHAR uni03A9
ENCODING 937
SWIDTH 402 0
DWIDTH 26 0
BBX 22 45 2 0
BITMAP
01FE00
07FF80
1FFFC0
3FFFE0
3FFFF0
7FFFF0
7F87F8
7F03F8
FE03F8
FE03F8
FE01FC
FE01FC
FE01FC
FE01FC
FE01FC
FE01FC
FE01FC
FE01FC
FE01FC
FE01FC
FE01FC
FE01FC
FE01FC
FE01FC
FE01FC
FE01FC
FE01F8
FE03F8
FE03F8
7E03F8
7E03F8
7E03F8
7F03F0
3F03F0
3F03F0
1F07E0
1F87C0
0F87C0
07CF80
FFCFFC
FFCFFC
FFCFFC
FFCFFC
FFCFFC
FFCFFC
ENDCHAR
STARTCHAR uni03BC
ENCODING 956
SWIDTH 405 0
DWIDTH 26 0
BBX 21 42 3 -10
BITMAP
FE03F8
FE03F8
FE03F8
FE03F8
FE03F8
FE03F8
FE03F8
FE03F8
FE03F8
FE03F8
FE03F8
FE03F8
FE03F8
FE03F8
FE03F8
FE03F8
FE03F8
FE03F8
FE03F8
FE03F8
FE03F8
FE03F8
FE03F8
FE07F8
FE07F8
FF0FF8
FFFFF8
FFFFF8
FFFFF8
FFFFF8
FFFBF8
FFE3F8
FE0000
FE0000
FE0000
FE0000
FE0000
FE0000
FE0000
FE0000
FE0000
FE0000
ENDCHAR
STARTCHAR pi
ENCODING 960
SWIDTH 452 0
DWIDTH 29 0
BBX 27 32 1 0
BITMAP
FFFFFFE0
FFFFFFE0
FFFFFFE0
FFFFFFE0
FFFFFFE0
FFFFFFE0
0FE0FE00
0FE0FE00
0FE0FE00
0FE0FE00
0FE0FE00
0FE0FE00
0FE0FE00
0FE0FE00
0FE0FE00
0FE0FE00
0FE0FE00
0FE0FE00
0FE0FE00
0FE0FE00
0FE0FE00
0FE0FE00
0FE0FE00
0FE0FE00
0FE0FE00
0FE0FE00
0FE0FE00
0FE0FE00
0FE0FE00
0FE0FE00
0FE0FE00
0FE0FE00
ENDCHAR
STARTCHAR uni1E02
ENCODING 7682
SWIDTH 404 0
DWIDTH 26 0
BBX 21 54 3 0
BITMAP
03F000
03F000
03F000
03F000
03F000
03F000
000000
000000
000000
FFFC00
FFFF80
FFFFC0
FFFFE0
FFFFF0
FFFFF0
FE3FF0
FE07F0
FE07F8
FE03F8
FE03F8
FE03F8
FE03F8
FE03F8
FE03F8
FE07F0
FE07F0
FE0FF0
FFFFE0
FFFFC0
FFFF80
FFFFC0
FFFFE0
FFFFF0
FE3FF0
FE07F8
FE03F8
FE03F8
FE03F8
FE03F8
FE03F8
FE03F8
FE03F8
FE03F8
FE03F8
FE03F8
FE03F8
FE07F8
FE1FF8
FFFFF0
FFFFF0
FFFFE0
FFFFC0
FFFF80
FFFE00
ENDCHAR
STARTCHAR uni1E03
ENCODING 7683
SWIDTH 404 0
DWIDTH 26 0
BBX 21 54 3 0
BITMAP
03F000
03F000
03F000
03F000
03F000
03F000
000000
000000
000000
FFFC00
FFFF80
FFFFC0
FFFFE0
FFFFF0
FFFFF0
FE3FF0
FE07F0
FE07F8
FE03F8
FE03F8
FE03F8
FE03F8
FE03F8
FE03F8
FE07F0
FE07F0
FE0FF0
FFFFE0
FFFFC0
FFFF80
FFFFC0
FFFFE0
FFFFF0
FE3FF0
FE07F8
FE03F8
FE03F8
FE03F8
FE03F8
FE03F8
FE03F8
FE03F8
FE03F8
FE03F8
FE03F8
FE03F8
FE07F8
FE1FF8
FFFFF0
FFFFF0
FFFFE0
FFFFC0
FFFF80
FFFE00
ENDCHAR
STARTCHAR uni1E0A
ENCODING 7690
SWIDTH 406 0
DWIDTH 26 0
BBX 21 54 3 0
BITMAP
03F800
03F800
03F800
03F800
03F800
03F800
000000
000000
000000
FFFC00
FFFF80
FFFFC0
FFFFE0
FFFFE0
FFFFF0
FE3FF0
FE07F8
FE07F8
FE03F8
FE03F8
FE03F8
FE03F8
FE03F8
FE03F8
FE03F8
FE03F8
FE03F8
FE03F8
FE03F8
FE03F8
FE03F8
FE03F8
FE03F8
FE03F8
FE03F8
FE03F8
FE03F8
FE03F8
FE03F8
FE03F8
FE03F8
FE03F8
FE03F8
FE03F8
FE03F8
FE07F8
FE07F8
FE3FF0
FFFFF0
FFFFE0
FFFFE0
FFFFC0
FFFF80
FFFC00
ENDCHAR
STARTCHAR uni1E0B
ENCODING 7691
SWIDTH 406 0
DWIDTH 26 0
BBX 21 54 3 0
BITMAP
03F800
03F800
03F800
03F800
03F800
03F800
000000
000000
000000
FFFC00
FFFF80
FFFFC0
FFFFE0
FFFFE0
FFFFF0
FE3FF0
FE07F8
FE07F8
FE03F8
FE03F8
FE03F8
FE03F8
FE03F8
FE03F8
FE03F8
FE03F8
FE03F8
FE03F8
FE03F8
FE03F8
FE03F8
FE03F8
FE03F8
FE03F8
FE03F8
FE03F8
FE03F8
FE03F8
FE03F8
FE03F8
FE03F8
FE03F8
FE03F8
FE03F8
FE03F8
FE07F8
FE07F8
FE3FF0
FFFFF0
FFFFE0
FFFFE0
FFFFC0
FFFF80
FFFC00
ENDCHAR
STARTCHAR uni1E1E
ENCODING 7710
SWIDTH 344 0
DWIDTH 22 0
BBX 18 54 3 0
BITMAP
03F000
03F000
03F000
03F000
03F000
03F000
000000
000000
000000
FFFFC0
FFFFC0
FFFFC0
FFFFC0
FFFFC0
FFFFC0
FE0000
FE0000
FE0000
FE0000
FE0000
FE0000
FE0000
FE0000
FE0000
FE0000
FE0000
FE0000
FE0000
FFFF00
FFFF00
FFFF00
FFFF00
FFFF00
FFFF00
FE0000
FE0000
FE0000
FE0000
FE0000
FE0000
FE0000
FE0000
FE0000
FE0000
FE0000
FE0000
FE0000
FE0000
FE0000
FE0000
FE0000
FE0000
FE0000
FE0000
ENDCHAR
STARTCHAR uni1E1F
ENCODING 7711
SWIDTH 344 0
DWIDTH 22 0
BBX 18 54 3 0
BITMAP
03F000
03F000
03F000
03F000
03F000
03F000
000000
000000
000000
FFFFC0
FFFFC0
FFFFC0
FFFFC0
FFFFC0
FFFFC0
FE0000
FE0000
FE0000
FE0000
FE0000
FE0000
FE0000
FE0000
FE0000
FE0000
FE0000
FE0000
FE0000
FFFF00
FFFF00
FFFF00
FFFF00
FFFF00
FFFF00
FE0000
FE0000
FE0000
FE0000
FE0000
FE0000
FE0000
FE0000
FE0000
FE0000
FE0000
FE0000
FE0000
FE0000
FE0000
FE0000
FE0000
FE0000
FE0000
FE0000
ENDCHAR
STARTCHAR uni1E40
ENCODING 7744
SWIDTH 538 0
DWIDTH 34 0
BBX 29 54 3 0
BITMAP
001F8000
001F8000
001F8000
001F8000
001F8000
001F8000
00000000
00000000
00000000
FFC01FF8
FFC01FF8
FFC03FF8
FFC03FF8
FFC03FF8
FFC03FF8
FFE03FF8
FFE03FF8
FFE03FF8
FFE07FF8
FFE07FF8
FFE07FF8
FFE07FF8
FFF07FF8
FFF07FF8
FDF07BF8
FDF0FBF8
FDF0FBF8
FDF0FBF8
FDF0FBF8
FDF8FBF8
FDF8F3F8
FCF8F3F8
FCF9F3F8
FCF9F3F8
FCF9F3F8
FCF9F3F8
FCF9F3F8
FC7DE3F8
FC7DE3F8
FC7DE3F8
FC7FE3F8
FC7FE3F8
FC7FE3F8
FC7FE3F8
FC3FC3F8
FC3FC3F8
FC3FC3F8
FC3FC3F8
FC3FC3F8
FC3FC3F8
FC3F83F8
FC1F83F8
FC1F83F8
FC1F83F8
ENDCHAR
STARTCHAR uni1E41
ENCODING 7745
SWIDTH 538 0
DWIDTH 34 0
BBX 29 54 3 0
BITMAP
001F8000
001F8000
001F8000
001F8000
001F8000
001F8000
00000000
00000000
00000000
FFC01FF8
FFC01FF8
FFC03FF8
FFC03FF8
FFC03FF8
FFC03FF8
FFE03FF8
FFE03FF8
FFE03FF8
FFE07FF8
FFE07FF8
FFE07FF8
FFE07FF8
FFF07FF8
FFF07FF8
FDF07BF8
FDF0FBF8
FDF0FBF8
FDF0FBF8
FDF0FBF8
FDF8FBF8
FDF8F3F8
FCF8F3F8
FCF9F3F8
FCF9F3F8
FCF9F3F8
FCF9F3F8
FCF9F3F8
FC7DE3F8
FC7DE3F8
FC7DE3F8
FC7FE3F8
FC7FE3F8
FC7FE3F8
FC7FE3F8
FC3FC3F8
FC3FC3F8
FC3FC3F8
FC3FC3F8
FC3FC3F8
FC3FC3F8
FC3F83F8
FC1F83F8
FC1F83F8
FC1F83F8
ENDCHAR
STARTCHAR uni1E56
ENCODING 7766
SWIDTH 386 0
DWIDTH 25 0
BBX 20 54 3 0
BITMAP
03F000
03F000
03F000
03F000
03F000
03F000
000000
000000
000000
FFFC00
FFFF00
FFFFC0
FFFFC0
FFFFE0
FFFFF0
FE3FF0
FE07F0
FE07F0
FE07F0
FE07F0
FE07F0
FE07F0
FE07F0
FE07F0
FE07F0
FE07F0
FE07F0
FE07F0
FE0FF0
FFFFF0
FFFFE0
FFFFE0
FFFFC0
FFFF80
FFFE00
FE0000
FE0000
FE0000
FE0000
FE0000
FE0000
FE0000
FE0000
FE0000
FE0000
FE0000
FE0000
FE0000
FE0000
FE0000
FE0000
FE0000
FE0000
FE0000
ENDCHAR
STARTCHAR uni1E57
ENCODING 7767
SWIDTH 386 0
DWIDTH 25 0
BBX 20 54 3 0
BITMAP
03F000
03F000
03F000
03F000
03F000
03F000
000000
000000
000000
FFFC00
FFFF00
FFFFC0
FFFFC0
FFFFE0
FFFFF0
FE3FF0
FE07F0
FE07F0
FE07F0
FE07F0
FE07F0
FE07F0
FE07F0
FE07F0
FE07F0
FE07F0
FE07F0
FE07F0
FE0FF0
FFFFF0
FFFFE0
FFFFE0
FFFFC0
FFFF80
FFFE00
FE0000
FE0000
FE0000
FE0000
FE0000
FE0000
FE0000
FE0000
FE0000
FE0000
FE0000
FE0000
FE0000
FE0000
FE0000
FE0000
FE0000
FE0000
FE0000
ENDCHAR
STARTCHAR uni1E60
ENCODING 7776
SWIDTH 372 0
DWIDTH 24 0
BBX 21 55 1 -1
BITMAP
00FC00
00FC00
00FC00
00FC00
00FC00
00FC00
000000
000000
001000
03FF00
0FFFC0
1FFFE0
3FFFE0
3FFFF0
7FFFF0
7F87F8
7F03F8
7F03F8
7F01F8
7F01F8
7F01F8
7F01F8
7F0000
7F8000
7F8000
3FC000
3FE000
1FF000
1FF800
0FFC00
07FE00
03FF00
01FF80
00FFC0
007FE0
003FF0
001FF0
000FF0
0007F8
0003F8
0003F8
FE03F8
FE03F8
FE03F8
FE03F8
7E03F8
7F03F8
7F87F8
7FFFF8
3FFFF0
3FFFF0
1FFFE0
0FFFC0
03FF00
002000
ENDCHAR
STARTCHAR uni1E61
ENCODING 7777
SWIDTH 372 0
DWIDTH 24 0
BBX 21 55 1 -1
BITMAP
00FC00
00FC00
00FC00
00FC00
00FC00
00FC00
000000
000000
001000
03FF00
0FFFC0
1FFFE0
3FFFE0
3FFFF0
7FFFF0
7F87F8
7F03F8
7F03F8
7F01F8
7F01F8
7F01F8
7F01F8
7F0000
7F8000
7F8000
3FC000
3FE000
1FF000
1FF800
0FFC00
07FE00
03FF00
01FF80
00FFC0
007FE0
003FF0
001FF0
000FF0
0007F8
0003F8
0003F8
FE03F8
FE03F8
FE03F8
FE03F8
7E03F8
7F03F8
7F87F8
7FFFF8
3FFFF0
3FFFF0
1FFFE0
0FFFC0
03FF00
002000
ENDCHAR
STARTCHAR uni1E6A
ENCODING 7786
SWIDTH 364 0
DWIDTH 23 0
BBX 22 54 1 0
BITMAP
01FC00
01FC00
01FC00
01FC00
01FC00
01FC00
000000
000000
000000
FFFFFC
FFFFFC
FFFFFC
FFFFFC
FFFFFC
FFFFFC
01FC00
01FC00
01FC00
01FC00
01FC00
01FC00
01FC00
01FC00
01FC00
01FC00
01FC00
01FC00
01FC00
01FC00
01FC00
01FC00
01FC00
01FC00
01FC00
01FC00
01FC00
01FC00
01FC00
01FC00
01FC00
01FC00
01FC00
01FC00
01FC00
01FC00
01FC00
01FC00
01FC00
01FC00
01FC00
01FC00
01FC00
01FC00
01FC00
ENDCHAR
STARTCHAR uni1E6B
ENCODING 7787
SWIDTH 364 0
DWIDTH 23 0
BBX 22 54 1 0
BITMAP
01FC00
01FC00
01FC00
01FC00
01FC00
01FC00
000000
000000
000000
FFFFFC
FFFFFC
FFFFFC
FFFFFC
FFFFFC
FFFFFC
01FC00
01FC00
01FC00
01FC00
01FC00
01FC00
01FC00
01FC00
01FC00
01FC00
01FC00
01FC00
01FC00
01FC00
01FC00
01FC00
01FC00
01FC00
01FC00
01FC00
01FC00
01FC00
01FC00
01FC00
01FC00
01FC00
01FC00
01FC00
01FC00
01FC00
01FC00
01FC00
01FC00
01FC00
01FC00
01FC00
01FC00
01FC00
01FC00
ENDCHAR
STARTCHAR Wgrave
ENCODING 7808
SWIDTH 557 0
DWIDTH 36 0
BBX 34 55 1 0
BITMAP
007F800000
003F800000
001FC00000
000FC00000
0007E00000
0003F00000
0001F80000
0000000000
0000000000
0000000000
FE07F80FC0
FE07F81FC0
FE07F81F80
FE07F81F80
FE07F81F80
7E07FC1F80
7E07FC1F80
7E07FC1F80
7F07FC1F80
7F0FFC1F80
7F0FFC1F80
7F0FFC1F80
7F0FFC3F00
7F0FFC3F00
7F0FFC3F00
3F0FFE3F00
3F0FFE3F00
3F0FFE3F00
3F0FBE3F00
3F9FBE3F00
3F9F3E3F00
3F9F3E3F00
3F9F3E3E00
3F9F3E7E00
3F9F3E7E00
1F9F3E7E00
1F9F3F7E00
1F9F1F7E00
1F9F1F7E00
1FBF1F7E00
1FFE1F7E00
1FFE1F7E00
1FFE1F7C00
1FFE1F7C00
1FFE1FFC00
0FFE1FFC00
0FFE1FFC00
0FFE0FFC00
0FFE0FFC00
0FFC0FFC00
0FFC0FFC00
0FFC0FFC00
0FFC0FF800
0FFC0FF800
0FFC0FF800
ENDCHAR
STARTCHAR wgrave
ENCODING 7809
SWIDTH 557 0
DWIDTH 36 0
BBX 34 55 1 0
BITMAP
007F800000
003F800000
001FC00000
000FC00000
0007E00000
0003F00000
0001F80000
0000000000
0000000000
0000000000
FE07F80FC0
FE07F81FC0
FE07F81F80
FE07F81F80
FE07F81F80
7E07FC1F80
7E07FC1F80
7E07FC1F80
7F07FC1F80
7F0FFC1F80
7F0FFC1F80
7F0FFC1F80
7F0FFC3F00
7F0FFC3F00
7F0FFC3F00
3F0FFE3F00
3F0FFE3F00
3F0FFE3F00
3F0FBE3F00
3F9FBE3F00
3F9F3E3F00
3F9F3E3F00
3F9F3E3E00
3F9F3E7E00
3F9F3E7E00
1F9F3E7E00
1F9F3F7E00
1F9F1F7E00
1F9F1F7E00
1FBF1F7E00
1FFE1F7E00
1FFE1F7E00
1FFE1F7C00
1FFE1F7C00
1FFE1FFC00
0FFE1FFC00
0FFE1FFC00
0FFE0FFC00
0FFE0FFC00
0FFC0FFC00
0FFC0FFC00
0FFC0FFC00
0FFC0FF800
0FFC0FF800
0FFC0FF800
ENDCHAR
STARTCHAR Wacute
ENCODING 7810
SWIDTH 557 0
DWIDTH 36 0
BBX 34 55 1 0
BITMAP
00007F8000
00007F0000
0000FE0000
0001FC0000
0001F80000
0003F00000
0007E00000
0000000000
0000000000
0000000000
FE07F80FC0
FE07F81FC0
FE07F81F80
FE07F81F80
FE07F81F80
7E07FC1F80
7E07FC1F80
7E07FC1F80
7F07FC1F80
7F0FFC1F80
7F0FFC1F80
7F0FFC1F80
7F0FFC3F00
7F0FFC3F00
7F0FFC3F00
3F0FFE3F00
3F0FFE3F00
3F0FFE3F00
3F0FBE3F00
3F9FBE3F00
3F9F3E3F00
3F9F3E3F00
3F9F3E3E00
3F9F3E7E00
3F9F3E7E00
1F9F3E7E00
1F9F3F7E00
1F9F1F7E00
1F9F1F7E00
1FBF1F7E00
1FFE1F7E00
1FFE1F7E00
1FFE1F7C00
1FFE1F7C00
1FFE1FFC00
0FFE1FFC00
0FFE1FFC00
0FFE0FFC00
0FFE0FFC00
0FFC0FFC00
0FFC0FFC00
0FFC0FFC00
0FFC0FF800
0FFC0FF800
0FFC0FF800
ENDCHAR
STARTCHAR wacute
ENCODING 7811
SWIDTH 557 0
DWIDTH 36 0
BBX 34 55 1 0
BITMAP
00007F8000
00007F0000
0000FE0000
0001FC0000
0001F80000
0003F00000
0007E00000
0000000000
0000000000
0000000000
FE07F80FC0
FE07F81FC0
FE07F81F80
FE07F81F80
FE07F81F80
7E07FC1F80
7E07FC1F80
7E07FC1F80
7F07FC1F80
7F0FFC1F80
7F0FFC1F80
7F0FFC1F80
7F0FFC3F00
7F0FFC3F00
7F0FFC3F00
3F0FFE3F00
3F0FFE3F00
3F0FFE3F00
3F0FBE3F00
3F9FBE3F00
3F9F3E3F00
3F9F3E3F00
3F9F3E3E00
3F9F3E7E00
3F9F3E7E00
1F9F3E7E00
1F9F3F7E00
1F9F1F7E00
1F9F1F7E00
1FBF1F7E00
1FFE1F7E00
1FFE1F7E00
1FFE1F7C00
1FFE1F7C00
1FFE1FFC00
0FFE1FFC00
0FFE1FFC00
0FFE0FFC00
0FFE0FFC00
0FFC0FFC00
0FFC0FFC00
0FFC0FFC00
0FFC0FF800
0FFC0FF800
0FFC0FF800
ENDCHAR
STARTCHAR Wdieresis
ENCODING 7812
SWIDTH 557 0
DWIDTH 36 0
BBX 34 54 1 0
BITMAP
007E1F8000
007E1F8000
007E1F8000
007E1F8000
007E1F8000
007E1F8000
0000000000
0000000000
0000000000
FE07F80FC0
FE07F81FC0
FE07F81F80
FE07F81F80
FE07F81F80
7E07FC1F80
7E07FC1F80
7E07FC1F80
7F07FC1F80
7F0FFC1F80
7F0FFC1F80
7F0FFC1F80
7F0FFC3F00
7F0FFC3F00
7F0FFC3F00
3F0FFE3F00
3F0FFE3F00
3F0FFE3F00
3F0FBE3F00
3F9FBE3F00
3F9F3E3F00
3F9F3E3F00
3F9F3E3E00
3F9F3E7E00
3F9F3E7E00
1F9F3E7E00
1F9F3F7E00
1F9F1F7E00
1F9F1F7E00
1FBF1F7E00
1FFE1F7E00
1FFE1F7E00
1FFE1F7C00
1FFE1F7C00
1FFE1FFC00
0FFE1FFC00
0FFE1FFC00
0FFE0FFC00
0FFE0FFC00
0FFC0FFC00
0FFC0FFC00
0FFC0FFC00
0FFC0FF800
0FFC0FF800
0FFC0FF800
ENDCHAR
STARTCHAR wdieresis
ENCODING 7813
SWIDTH 557 0
DWIDTH 36 0
BBX 34 54 1 0
BITMAP
007E1F8000
007E1F8000
007E1F8000
007E1F8000
007E1F8000
007E1F8000
0000000000
0000000000
0000000000
FE07F80FC0
FE07F81FC0
FE07F81F80
FE07F81F80
FE07F81F80
7E07FC1F80
7E07FC1F80
7E07FC1F80
7F07FC1F80
7F0FFC1F80
7F0FFC1F80
7F0FFC1F80
7F0FFC3F00
7F0FFC3F00
7F0FFC3F00
3F0FFE3F00
3F0FFE3F00
3F0FFE3F00
3F0FBE3F00
3F9FBE3F00
3F9F3E3F00
3F9F3E3F00
3F9F3E3E00
3F9F3E7E00
3F9F3E7E00
1F9F3E7E00
1F9F3F7E00
1F9F1F7E00
1F9F1F7E00
1FBF1F7E00
1FFE1F7E00
1FFE1F7E00
1FFE1F7C00
1FFE1F7C00
1FFE1FFC00
0FFE1FFC00
0FFE1FFC00
0FFE0FFC00
0FFE0FFC00
0FFC0FFC00
0FFC0FFC00
0FFC0FFC00
0FFC0FF800
0FFC0FF800
0FFC0FF800
ENDCHAR
STARTCHAR uni1E9E
ENCODING 7838
SWIDTH 407 0
DWIDTH 26 0
BBX 22 45 3 0
BITMAP
FFFFF8
FFFFF8
FFFFF8
FFFFF8
FFFFF8
FFFFF8
FE03F8
FE03F8
FE07F0
FE07F0
FE0FE0
FE0FE0
FE0FE0
FE1FC0
FE1FC0
FE3F80
FE3F80
FE3F00
FE7F00
FE7FC0
FE7FE0
FE7FF0
FE7FF8
FE7FF8
FE07F8
FE03F8
FE03FC
FE01FC
FE01FC
FE01FC
FE01FC
FE01FC
FE01FC
FE01FC
FE01FC
FE03FC
FE03F8
FE03F8
FE1FF8
FE7FF8
FE7FF0
FE7FF0
FE7FE0
FE7F80
FE7E00
ENDCHAR
STARTCHAR Ygrave
ENCODING 7922
SWIDTH 394 0
DWIDTH 25 0
BBX 24 55 1 0
BITMAP
1FE000
07F000
03F800
01F800
00FC00
007E00
003E00
000000
000000
000000
FE007F
FE00FE
FF00FE
7F00FE
7F01FC
7F81FC
3F81FC
3F81F8
3FC3F8
1FC3F8
1FC3F0
1FC7F0
0FE7F0
0FE7E0
0FE7E0
07EFE0
07FFC0
07FFC0
03FFC0
03FF80
03FF80
01FF80
01FF00
01FF00
00FF00
00FE00
00FE00
00FE00
00FE00
00FE00
00FE00
00FE00
00FE00
00FE00
00FE00
00FE00
00FE00
00FE00
00FE00
00FE00
00FE00
00FE00
00FE00
00FE00
00FE00
ENDCHAR
STARTCHAR ygrave
ENCODING 7923
SWIDTH 394 0
DWIDTH 25 0
BBX 24 55 1 0
BITMAP
1FE000
07F000
03F800
01F800
00FC00
007E00
003E00
000000
000000
000000
FE007F
FE00FE
FF00FE
7F00FE
7F01FC
7F81FC
3F81FC
3F81F8
3FC3F8
1FC3F8
1FC3F0
1FC7F0
0FE7F0
0FE7E0
0FE7E0
07EFE0
07FFC0
07FFC0
03FFC0
03FF80
03FF80
01FF80
01FF00
01FF00
00FF00
00FE00
00FE00
00FE00
00FE00
00FE00
00FE00
00FE00
00FE00
00FE00
00FE00
00FE00
00FE00
00FE00
00FE00
00FE00
00FE00
00FE00
00FE00
00FE00
00FE00
ENDCHAR
STARTCHAR uni2002
ENCODING 8194
SWIDTH 300 0
DWIDTH 19 0
BBX 1 1 0 0
BITMAP
00
ENDCHAR
STARTCHAR uni2003
ENCODING 8195
SWIDTH 500 0
DWIDTH 32 0
BBX 1 1 0 0
BITMAP
00
ENDCHAR
STARTCHAR uni2007
ENCODING 8199
SWIDTH 400 0
DWIDTH 26 0
BBX 1 1 0 0
BITMAP
00
ENDCHAR
STARTCHAR uni2008
ENCODING 8200
SWIDTH 188 0
DWIDTH 12 0
BBX 1 1 0 0
BITMAP
00
ENDCHAR
STARTCHAR uni200B
ENCODING 8203
SWIDTH 0 0
DWIDTH 0 0
BBX 1 1 0 0
BITMAP
00
ENDCHAR
STARTCHAR figuredash
ENCODING 8210
SWIDTH 400 0
DWIDTH 26 0
BBX 26 6 0 20
BITMAP
FFFFFFC0
FFFFFFC0
FFFFFFC0
FFFFFFC0
FFFFFFC0
FFFFFFC0
ENDCHAR
STARTCHAR endash
ENCODING 8211
SWIDTH 300 0
DWIDTH 19 0
BBX 19 6 0 20
BITMAP
FFFFE0
FFFFE0
FFFFE0
FFFFE0
FFFFE0
FFFFE0
ENDCHAR
STARTCHAR emdash
ENCODING 8212
SWIDTH 500 0
DWIDTH 32 0
BBX 32 6 0 20
BITMAP
FFFFFFFF
FFFFFFFF
FFFFFFFF
FFFFFFFF
FFFFFFFF
FFFFFFFF
ENDCHAR
STARTCHAR quoteleft
ENCODING 8216
SWIDTH 188 0
DWIDTH 12 0
BBX 7 14 3 31
BITMAP
1E
1C
3C
3C
38
78
78
F0
FC
FC
FC
FC
FC
FC
ENDCHAR
STARTCHAR quoteright
ENCODING 8217
SWIDTH 188 0
DWIDTH 12 0
BBX 7 14 2 31
BITMAP
7E
7E
7E
7E
7E
7E
1E
1E
3C
3C
38
78
70
F0
ENDCHAR
STARTCHAR quotesinglbase
ENCODING 8218
SWIDTH 188 0
DWIDTH 12 0
BBX 6 14 3 -8
BITMAP
FC
FC
FC
FC
FC
FC
3C
3C
78
78
70
F0
F0
E0
ENDCHAR
STARTCHAR quotedblleft
ENCODING 8220
SWIDTH 336 0
DWIDTH 22 0
BBX 16 14 3 31
BITMAP
1E07
1C0F
3C0E
3C1E
381E
781C
783C
F03C
FC7F
FC7F
FC7F
FC7F
FC7F
FC7F
ENDCHAR
STARTCHAR quotedblright
ENCODING 8221
SWIDTH 336 0
DWIDTH 22 0
BBX 17 14 2 31
BITMAP
7E3F80
7E3F80
7E3F80
7E3F80
7E3F80
7E3F80
1E0F80
1E0F00
3C0F00
3C1E00
381E00
781C00
703C00
F03800
ENDCHAR
STARTCHAR quotedblbase
ENCODING 8222
SWIDTH 336 0
DWIDTH 22 0
BBX 17 14 2 -8
BITMAP
7E3F80
7E3F80
7E3F80
7E3F80
7E3F80
7E3F80
1E0F00
3C0F00
3C0E00
3C1E00
781E00
781C00
703C00
F03800
ENDCHAR
STARTCHAR dagger
ENCODING 8224
SWIDTH 400 0
DWIDTH 26 0
BBX 23 52 1 -7
BITMAP
007E00
007E00
007E00
007E00
007E00
007E00
007E00
007E00
007E00
007E00
007E00
007E00
007E00
FFFFFE
FFFFFE
FFFFFE
FFFFFE
FFFFFE
FFFFFE
007E00
007E00
007E00
007E00
007E00
007E00
007E00
007E00
007E00
007E00
007E00
007E00
007E00
007E00
007E00
007E00
007E00
007E00
007E00
007E00
007E00
007E00
007E00
007E00
007E00
007E00
007E00
007E00
007E00
007E00
007E00
007E00
007E00
ENDCHAR
STARTCHAR daggerdbl
ENCODING 8225
SWIDTH 400 0
DWIDTH 26 0
BBX 23 52 1 -7
BITMAP
007E00
007E00
007E00
007E00
007E00
007E00
007E00
007E00
007E00
007E00
007E00
007E00
007E00
FFFFFE
FFFFFE
FFFFFE
FFFFFE
FFFFFE
FFFFFE
007E00
007E00
007E00
007E00
007E00
007E00
007E00
007E00
007E00
007E00
007E00
007E00
007E00
007E00
007E00
FFFFFE
FFFFFE
FFFFFE
FFFFFE
FFFFFE
FFFFFE
007E00
007E00
007E00
007E00
007E00
007E00
007E00
007E00
007E00
007E00
007E00
007E00
ENDCHAR
STARTCHAR bullet
ENCODING 8226
SWIDTH 300 0
DWIDTH 19 0
BBX 15 15 2 15
BITMAP
07C0
1FF0
3FF8
7FFC
7FFC
FFFE
FFFE
FFFE
FFFE
FFFE
7FFC
7FFC
3FF8
1FF0
07C0
ENDCHAR
STARTCHAR ellipsis
ENCODING 8230
SWIDTH 500 0
DWIDTH 32 0
BBX 28 6 2 0
BITMAP
FE1F87F0
FE1F87F0
FE1F87F0
FE1F87F0
FE1F87F0
FE1F87F0
ENDCHAR
STARTCHAR perthousand
ENCODING 8240
SWIDTH 845 0
DWIDTH 54 0
BBX 50 47 2 -1
BITMAP
07800000000000
186001F0000000
387001E0000000
787803E0000000
787803C0000000
F87C03C0000000
F87C07C0000000
F87C0780000000
F87C0F80000000
F87C0F80000000
F87C0F00000000
F87C1F00000000
F87C1E00000000
F87C3E00000000
F87C3E00000000
F87C3C00000000
F87C7C00000000
F87C7800000000
F87C7800000000
7878F800000000
7878F000000000
3871F000000000
1861E070007800
0781E18E018600
0003E707038700
0003C707878780
0007CF07878780
0007CF078F87C0
00078F078F87C0
000F8F078F87C0
000F0F078F87C0
000F0F078F87C0
001F0F078F87C0
001E0F078F87C0
003E0F078F87C0
003C0F078F87C0
003C0F078F87C0
007C0F078F87C0
00780F078F87C0
00F80F078F87C0
00F80F078F87C0
00F00F8F8F87C0
01F00FFF87FF80
01E007FF87FF80
03E007FF03FF00
03E001FE01FE00
00000020003000
ENDCHAR
STARTCHAR guilsinglleft
ENCODING 8249
SWIDTH 188 0
DWIDTH 12 0
BBX 10 15 1 15
BITMAP
0FC0
0F80
1F80
3F00
3F00
7E00
FE00
FC00
7E00
7E00
3F00
1F00
1F80
0F80
0FC0
ENDCHAR
STARTCHAR guilsinglright
ENCODING 8250
SWIDTH 188 0
DWIDTH 12 0
BBX 10 15 1 15
BITMAP
FC00
7C00
7E00
3F00
3F00
1F80
1FC0
0FC0
1F80
1F80
3F00
3E00
7E00
7C00
FC00
ENDCHAR
STARTCHAR fraction
ENCODING 8260
SWIDTH 89 0
DWIDTH 6 0
BBX 22 45 -8 0
BITMAP
00007C
000078
0000F8
0000F0
0000F0
0001F0
0001E0
0003E0
0003E0
0003C0
0007C0
000780
000F80
000F80
000F00
001F00
001E00
001E00
003E00
003C00
007C00
007800
007800
00F800
00F000
01F000
01F000
01E000
03E000
03C000
03C000
07C000
078000
0F8000
0F0000
0F0000
1F0000
1E0000
3E0000
3E0000
3C0000
7C0000
780000
F80000
F80000
ENDCHAR
STARTCHAR uni2070
ENCODING 8304
SWIDTH 282 0
DWIDTH 18 0
BBX 14 31 2 21
BITMAP
0100
1FE0
3FF0
7FF8
7FF8
F87C
F87C
F87C
F87C
F87C
F87C
F87C
F87C
F87C
F87C
F87C
F87C
F87C
F87C
F87C
F87C
F87C
F87C
F87C
F87C
F87C
7FF8
7FF8
3FF0
1FE0
0300
ENDCHAR
STARTCHAR uni2074
ENCODING 8308
SWIDTH 282 0
DWIDTH 18 0
BBX 16 29 1 22
BITMAP
00F8
00F8
00F8
01F8
01F8
03F8
03F8
03F8
07F8
07F8
0F78
0F78
1E78
1E78
1E78
3C78
3C78
7878
7878
7878
FFFF
FFFF
FFFF
FFFF
0078
0078
0078
0078
0078
ENDCHAR
STARTCHAR uni2075
ENCODING 8309
SWIDTH 282 0
DWIDTH 18 0
BBX 14 30 2 21
BITMAP
7FF8
7FF8
7FF8
7FF8
7800
7800
7800
7800
7800
79E0
7FF0
7FF8
7FF8
7CFC
787C
F87C
F87C
007C
007C
007C
007C
F87C
F87C
F87C
787C
7FF8
7FF8
3FF0
1FE0
0300
ENDCHAR
STARTCHAR uni2076
ENCODING 8310
SWIDTH 282 0
DWIDTH 18 0
BBX 14 31 2 21
BITMAP
0100
1FE0
3FF0
7FF8
7FF8
787C
F83C
F83C
F800
F800
F800
F800
F9E0
FFF8
FFF8
FFFC
FC7C
F87C
F87C
F87C
F87C
F87C
F87C
F87C
F87C
787C
7FF8
7FF8
3FF0
1FE0
0300
ENDCHAR
STARTCHAR uni2077
ENCODING 8311
SWIDTH 282 0
DWIDTH 18 0
BBX 14 29 2 22
BITMAP
FFFC
FFFC
FFFC
FFFC
007C
0078
0078
00F8
00F0
00F0
01F0
01F0
01E0
01E0
03E0
03C0
03C0
07C0
07C0
0780
0780
0F80
0F00
0F00
1F00
1F00
1E00
1E00
3E00
ENDCHAR
STARTCHAR uni2078
ENCODING 8312
SWIDTH 282 0
DWIDTH 18 0
BBX 14 31 2 21
BITMAP
0100
1FE0
3FF0
7FF8
7FF8
F87C
F87C
F87C
F83C
F83C
F87C
F87C
7878
7FF8
3FF0
3FF0
7FF8
7C78
F87C
F87C
F83C
F83C
F83C
F87C
F87C
F87C
7FF8
7FF8
3FF0
1FE0
0300
ENDCHAR
STARTCHAR uni2079
ENCODING 8313
SWIDTH 282 0
DWIDTH 18 0
BBX 14 31 2 21
BITMAP
0200
1FE0
3FF0
7FF8
7FF8
F878
F87C
F87C
F87C
F87C
F87C
F87C
F87C
F87C
F8FC
FFFC
7FFC
7FFC
1E7C
007C
007C
007C
007C
F07C
F07C
F878
7FF8
7FF8
3FF0
1FE0
0200
ENDCHAR
STARTCHAR uni2080
ENCODING 8320
SWIDTH 282 0
DWIDTH 18 0
BBX 14 30 2 -5
BITMAP
0100
1FE0
3FF0
7FF8
7FF8
F87C
F87C
F87C
F87C
F87C
F87C
F87C
F87C
F87C
F87C
F87C
F87C
F87C
F87C
F87C
F87C
F87C
F87C
F87C
F87C
7FF8
7FF8
3FF0
1FE0
0300
ENDCHAR
STARTCHAR uni2081
ENCODING 8321
SWIDTH 282 0
DWIDTH 18 0
BBX 9 28 4 -4
BITMAP
0380
0780
1F80
FF80
FF80
FF80
0F80
0F80
0F80
0F80
0F80
0F80
0F80
0F80
0F80
0F80
0F80
0F80
0F80
0F80
0F80
0F80
0F80
0F80
0F80
0F80
0F80
0F80
ENDCHAR
STARTCHAR uni2082
ENCODING 8322
SWIDTH 282 0
DWIDTH 18 0
BBX 14 29 2 -4
BITMAP
0100
1FE0
3FF0
7FF8
7FF8
787C
F87C
F87C
F87C
F87C
0078
00F8
00F0
01F0
03E0
07C0
0FC0
1F80
1F00
3E00
7C00
7800
7800
7800
F800
FFF8
FFF8
FFF8
FFF8
ENDCHAR
STARTCHAR uni2083
ENCODING 8323
SWIDTH 282 0
DWIDTH 18 0
BBX 13 30 2 -5
BITMAP
0200
1FE0
3FF0
7FF8
7FF8
F878
F078
F078
F078
0078
0078
00F8
07F0
07E0
07E0
07F0
00F8
0078
0078
0078
F078
F078
F078
F078
F878
7FF8
7FF8
3FF0
1FE0
0200
ENDCHAR
STARTCHAR uni2084
ENCODING 8324
SWIDTH 282 0
DWIDTH 18 0
BBX 16 28 1 -4
BITMAP
00F8
00F8
00F8
01F8
01F8
03F8
03F8
07F8
07F8
0778
0F78
0F78
1E78
1E78
3C78
3C78
3C78
7878
7878
FFFF
FFFF
FFFF
FFFF
0078
0078
0078
0078
0078
ENDCHAR
STARTCHAR uni2085
ENCODING 8325
SWIDTH 282 0
DWIDTH 18 0
BBX 14 29 2 -5
BITMAP
7FF8
7FF8
7FF8
7FF8
7800
7800
7800
7800
79E0
7FF0
7FF8
7FF8
7CFC
787C
F87C
F87C
007C
007C
007C
007C
F87C
F87C
F87C
787C
7FF8
7FF8
3FF0
1FE0
0300
ENDCHAR
STARTCHAR uni2086
ENCODING 8326
SWIDTH 282 0
DWIDTH 18 0
BBX 14 30 2 -5
BITMAP
0100
1FE0
3FF0
7FF8
7FF8
787C
F83C
F83C
F800
F800
F800
F9E0
FFF8
FFF8
FFFC
FC7C
F87C
F87C
F87C
F87C
F87C
F87C
F87C
F87C
787C
7FF8
7FF8
3FF0
1FE0
0300
ENDCHAR
STARTCHAR uni2087
ENCODING 8327
SWIDTH 282 0
DWIDTH 18 0
BBX 14 28 2 -4
BITMAP
FFFC
FFFC
FFFC
FFFC
007C
0078
0078
00F8
00F0
00F0
01F0
01E0
01E0
03E0
03E0
03C0
03C0
07C0
0780
0780
0F80
0F80
0F00
1F00
1F00
1E00
1E00
3E00
ENDCHAR
STARTCHAR uni2088
ENCODING 8328
SWIDTH 282 0
DWIDTH 18 0
BBX 14 30 2 -5
BITMAP
0100
1FE0
3FF0
7FF8
FFFC
F87C
F87C
F83C
F83C
F87C
F87C
787C
7FF8
3FF0
3FF0
7FF8
7C78
F87C
F87C
F83C
F83C
F83C
F87C
F87C
F87C
7FF8
7FF8
3FF0
1FE0
0300
ENDCHAR
STARTCHAR uni2089
ENCODING 8329
SWIDTH 282 0
DWIDTH 18 0
BBX 14 30 2 -5
BITMAP
0200
1FE0
3FF0
7FF8
FFF8
F878
F87C
F87C
F87C
F87C
F87C
F87C
F87C
F8FC
FFFC
7FFC
7FFC
1E7C
007C
007C
007C
007C
F07C
F07C
F878
7FF8
7FF8
3FF0
1FE0
0200
ENDCHAR
STARTCHAR Euro
ENCODING 8364
SWIDTH 400 0
DWIDTH 26 0
BBX 23 47 1 -1
BITMAP
000800
01FFC0
03FFE0
07FFF0
0FFFF8
1FFFFC
1FFFFC
1FE1FC
3FC0FE
3F80FE
3F80FE
3F80FE
3F80FE
3F80FE
3F8000
3F8000
3F8000
FFFFE0
FFFFE0
FFFFE0
FFFFE0
3F8000
3F8000
3F8000
FFFFE0
FFFFE0
FFFFE0
FFFFE0
3F8000
3F8000
3F8000
3F8000
3F80FE
3F80FE
3F80FE
3F80FE
3F80FE
3F80FE
1FC0FE
1FE1FC
1FFFFC
1FFFFC
0FFFF8
07FFF0
03FFE0
01FFC0
000800
ENDCHAR
STARTCHAR uni20B9
ENCODING 8377
SWIDTH 400 0
DWIDTH 26 0
BBX 22 45 2 0
BITMAP
FFFFFC
FFFFFC
FFFFFC
FFFFFC
FFFFFC
03FF00
003F80
001F80
001FC0
001FC0
FFFFFC
FFFFFC
FFFFFC
FFFFFC
FFFFFC
001FC0
001FC0
001FC0
003F80
03FF80
FFFF00
FFFF00
FFFE00
FFF800
FFE000
FF8000
7F8000
3FC000
3FE000
1FE000
0FF000
0FF800
07F800
03FC00
03FE00
01FF00
00FF00
00FF80
007FC0
003FC0
001FE0
001FF0
000FF0
0007F8
0007FC
ENDCHAR
STARTCHAR uni20BF
ENCODING 8383
SWIDTH 400 0
DWIDTH 26 0
BBX 23 52 1 -4
BITMAP
078F00
078F00
078F00
078F00
078F00
FFFFC0
FFFFE0
FFFFF0
FFFFF8
FFFFFC
FFFFFC
1FC3FC
1FC1FC
1FC1FE
1FC1FE
1FC0FE
1FC0FE
1FC1FC
1FC1FC
1FC1FC
1FC1FC
1FC3F8
1FFFF8
1FFFF0
1FFFC0
1FFFE0
1FFFF8
1FFFF8
1FCFFC
1FC1FC
1FC0FE
1FC0FE
1FC0FE
1FC0FE
1FC0FE
1FC0FE
1FC0FE
1FC0FE
1FC0FE
1FC1FE
1FC7FE
FFFFFC
FFFFFC
FFFFF8
FFFFF0
FFFFE0
FFFF80
078F00
078F00
078F00
078F00
078F00
ENDCHAR
STARTCHAR uni2113
ENCODING 8467
SWIDTH 412 0
DWIDTH 26 0
BBX 24 46 1 -1
BITMAP
001FC0
007FF0
01FFF8
01FFFC
03FFFE
03FFFE
07FCFE
07F87F
07F07F
07F07F
07F07F
07F07F
07F07F
07F07F
07F0FE
07F0FE
07F0FE
07F1FC
07F1FC
07F3F8
07F7F8
07F7F0
07FFF0
07FFE0
07FFC0
07FF80
07FF00
07FE00
0FFC00
3FF000
FFF000
FFF000
7FF07F
7FF07F
3FF07F
27F07F
07F07F
07F07F
07F07F
07FDFE
03FFFE
03FFFE
01FFFC
01FFF8
007FF0
001FC0
ENDCHAR
STARTCHAR uni2116
ENCODING 8470
SWIDTH 661 0
DWIDTH 42 0
BBX 37 45 3 0
BITMAP
FF83F00000
FF83F00000
FF83F00000
FF83F00000
FF83F00000
FF83F00000
FFC3F00000
FFC3F00000
FFC3F00000
FFC3F00000
FFC3F00000
FFE3F00000
FFE3F00000
FFE3F00000
FFE3F01F80
FFE3F03FE0
FDF3F07FF0
FDF3F0FFF0
FDF3F0F8F8
FDF3F0F0F8
FCF3F1F078
FCFBF1F078
FCFBF1F078
FCFBF1F078
FCFBF1F078
FC7BF1F078
FC7BF1F078
FC7FF1F078
FC7FF1F078
FC7FF1F078
FC3FF1F078
FC3FF1F0F8
FC3FF0F0F8
FC3FF0F8F8
FC3FF0FFF0
FC1FF07FF0
FC1FF03FE0
FC1FF01F80
FC1FF00000
FC1FF00000
FC0FF00000
FC0FF1FFF8
FC0FF1FFF8
FC0FF1FFF8
FC0FF1FFF8
ENDCHAR
STARTCHAR uni2117
ENCODING 8471
SWIDTH 738 0
DWIDTH 47 0
BBX 45 46 1 -1
BITMAP
00003FF00000
0003FFFE0000
000FFFFF8000
003FFFFFE000
007FC01FF000
00FE0003F800
01F80000FE00
03F000007E00
07E000003F00
0FC000001F80
0F807FE00FC0
1F007FF807C0
1F007FFC03E0
3E007FFE03E0
3E007C7E01E0
7C007C3E01F0
7C007C3E01F0
7C007C3E00F0
78007C3E00F8
78007C3E00F8
F8007C3E00F8
F8007C3E00F8
F8007C7E00F8
F8007FFE00F8
F8007FFC00F8
F8007FF800F8
78007FE000F8
78007C0000F8
7C007C0000F0
7C007C0001F0
7C007C0001F0
3E007C0001E0
3E007C0003E0
1F007C0003E0
1F007C0007C0
0F807C000FC0
0FC07C001F80
07E07C003F00
03F000007E00
01F80000FE00
00FE0003F800
007FC01FF000
003FFFFFE000
000FFFFF8000
0003FFFE0000
00003FF00000
ENDCHAR
STARTCHAR uni2120
ENCODING 8480
SWIDTH 599 0
DWIDTH 38 0
BBX 35 24 1 22
BITMAP
0FC0FE0FE0
3FF0FE0FE0
7FF0FE0FE0
7FF8FE0FE0
78F8FF0FE0
F878FF1FE0
F878FF1FE0
7800F71DE0
7C00F71DE0
7E00F79DE0
3F80F7BDE0
3FC0F7BDE0
0FE0F3B9E0
07F0F3B9E0
01F8F3B9E0
00F8F3F9E0
0078F3F9E0
F878F1F1E0
F878F1F1E0
F8F8F1F1E0
7FF8F1F1E0
7FF0F1F1E0
3FE0F0E1E0
0FC0000000
ENDCHAR
STARTCHAR trademark
ENCODING 8482
SWIDTH 598 0
DWIDTH 38 0
BBX 35 22 1 23
BITMAP
FFF8FE0FE0
FFF8FE0FE0
FFF8FE0FE0
FFF8FF0FE0
0F80FF1FE0
0F80FF1FE0
0F80FF1DE0
0F80F71DE0
0F80F71DE0
0F80F7BDE0
0F80F7BDE0
0F80F7B9E0
0F80F3B9E0
0F80F3B9E0
0F80F3F9E0
0F80F3F9E0
0F80F3F1E0
0F80F1F1E0
0F80F1F1E0
0F80F1F1E0
0F80F1F1E0
0F80F1E1E0
ENDCHAR
STARTCHAR uni2126
ENCODING 8486
SWIDTH 402 0
DWIDTH 26 0
BBX 22 45 2 0
BITMAP
01FE00
07FF80
1FFFC0
3FFFE0
3FFFF0
7FFFF0
7F87F8
7F03F8
FE03F8
FE03F8
FE01FC
FE01FC
FE01FC
FE01FC
FE01FC
FE01FC
FE01FC
FE01FC
FE01FC
FE01FC
FE01FC
FE01FC
FE01FC
FE01FC
FE01FC
FE01FC
FE01F8
FE03F8
FE03F8
7E03F8
7E03F8
7E03F8
7F03F0
3F03F0
3F03F0
1F07E0
1F87C0
0F87C0
07CF80
FFCFFC
FFCFFC
FFCFFC
FFCFFC
FFCFFC
FFCFFC
ENDCHAR
STARTCHAR estimated
ENCODING 8494
SWIDTH 821 0
DWIDTH 53 0
BBX 49 46 2 0
BITMAP
00001FFC000000
0000FC0F800000
0003C000E00000
000E0000380000
003C00000E0000
00700000070000
00E00000038000
01C0000001C000
0380000000E000
0780000000F000
0F80000000F800
1F80000000FC00
1F80000000FC00
3F80000000FE00
3F80000000FE00
7F80000000FF00
7F80000000FF00
7F80000000FF00
7F80000000FF00
FF80000000FF80
FF80000000FF80
FF80000000FF80
FFFFFFFFFFFF80
FF800000000000
FF800000000000
FF800000000000
FF800000000000
7F800000000000
7F800000000000
7F800000000000
7F800000000000
3F800000000000
3F800000000000
1F800000000000
1F800000000000
0F800000000000
07800000000000
0780000000F000
03C0000001E000
01E0000003C000
00F00000070000
003800001E0000
001E00003C0000
00078000F00000
0001F007C00000
00001FFC000000
ENDCHAR
STARTCHAR uni2153
ENCODING 8531
SWIDTH 653 0
DWIDTH 42 0
BBX 35 46 4 -1
BITMAP
038001F000
078001E000
078003E000
1F8003C000
FF8003C000
FF8007C000
FF80078000
0F800F8000
0F800F8000
0F800F0000
0F801F0000
0F801E0000
0F803E0000
0F803E0000
0F803C0000
0F807C3E00
0F8078FF80
0F8079FFC0
0F80F9FFC0
0F80F3E3E0
0F81F3C3E0
0F81F3C1E0
0F81E3C1E0
0F83E3C1E0
0F83C001E0
0F87C001E0
0F87C003E0
0F878003E0
0F8F803FC0
000F003F80
000F003F80
001F003FC0
001E0003E0
003E0003E0
003E0001E0
003C0001E0
007C03C1E0
007803C1E0
00F803C1E0
00F803C1E0
00F003E3E0
01F003FFE0
01E001FFC0
01E001FFC0
03E0007F00
0000000800
ENDCHAR
STARTCHAR uni2154
ENCODING 8532
SWIDTH 653 0
DWIDTH 42 0
BBX 37 47 2 -1
BITMAP
0100000000
1FE0007C00
3FF0007800
7FF800F800
7FF800F000
787C00F000
F87C01F000
F87C01E000
F87C03E000
F87C03E000
007803C000
00F807C000
00F8078000
01F00F8000
03F00F8000
03E00F0000
07C01F0F80
0F801E3FE0
1F001E7FF0
3F003E7FF0
3E003CF8F8
7C007CF0F8
78007CF078
780078F078
7800F8F078
F800F00078
FFF9F00078
FFF9F000F8
FFF9E000F8
FFFBE00FF0
0003C00FE0
0003C00FE0
0007C00FF0
00078000F8
000F8000F8
000F800078
000F000078
001F00F078
001E00F078
003E00F078
003E00F078
003C00F8F8
007C00FFF8
0078007FF0
0078007FF0
00F8001FC0
0000000200
ENDCHAR
STARTCHAR oneeighth
ENCODING 8539
SWIDTH 653 0
DWIDTH 42 0
BBX 36 46 4 -1
BITMAP
038001F000
078001E000
078003E000
1F8003C000
FF8003C000
FF8007C000
FF80078000
0F800F8000
0F800F8000
0F800F0000
0F801F0000
0F801E0000
0F803E0000
0F803E0000
0F803C0000
0F807C3F00
0F8078FF80
0F8079FFC0
0F80F9FFE0
0F80F3E3E0
0F81F3E1F0
0F81F3C1F0
0F81E3C1F0
0F83E3C1F0
0F83C3C1F0
0F87C3C1F0
0F87C3E1E0
0F8783E3E0
0F8F81FFE0
000F00FFC0
000F00FF80
001F01FFE0
001E03E3E0
003E03E1E0
003E03C1F0
003C03C1F0
007C03C1F0
007803C1F0
00F803C1F0
00F803C1F0
00F003E1F0
01F003FFE0
01E001FFE0
01E000FFC0
03E0007F80
0000000800
ENDCHAR
STARTCHAR threeeighths
ENCODING 8540
SWIDTH 653 0
DWIDTH 42 0
BBX 38 47 2 -1
BITMAP
0200000000
1FE0007C00
3FF0007800
7FF800F800
7FF800F000
F87800F000
F07801F000
F07801E000
F07803E000
007803E000
007803C000
007807C000
00F8078000
07F00F8000
07E00F8000
07E00F0000
07F01F0FC0
00F81E3FE0
00781E7FF0
00783E7FF8
00783CF8F8
F0787CF87C
F0787CF07C
F07878F07C
F878F8F07C
F8F8F0F07C
7FF9F0F07C
7FF1F0F878
3FE1E0F8F8
0FC3E07FF8
0003C03FF0
0003C03FE0
0007C07FF8
000780F8F8
000F80F878
000F80F07C
000F00F07C
001F00F07C
001E00F07C
003E00F07C
003E00F07C
003C00F87C
007C00FFF8
0078007FF8
0078003FF0
00F8001FE0
0000000200
ENDCHAR
STARTCHAR fiveeighths
ENCODING 8541
SWIDTH 653 0
DWIDTH 42 0
BBX 38 46 2 -1
BITMAP
7FF8007C00
7FF8007800
7FF800F800
7FF800F000
780000F000
780001F000
780001E000
780003E000
780003E000
79E003C000
7FF007C000
7FF8078000
7FF80F8000
78FC0F8000
787C0F0000
F87C1F0FC0
007C1E3FE0
007C1E7FF0
007C3E7FF8
007C3CF8F8
F87C7CF87C
F87C7CF07C
F87C78F07C
787CF8F07C
78F8F0F07C
7FF9F0F07C
3FF9F0F878
3FF1E0F8F8
0FC3E07FF8
0003C03FF0
0003C03FE0
0007C07FF8
000780F8F8
000F80F878
000F80F07C
000F00F07C
001F00F07C
001E00F07C
003E00F07C
003E00F07C
003C00F87C
007C00FFF8
0078007FF8
0078003FF0
00F8001FE0
0000000200
ENDCHAR
STARTCHAR seveneighths
ENCODING 8542
SWIDTH 653 0
DWIDTH 42 0
BBX 38 46 2 -1
BITMAP
FFFC007C00
FFFC007800
FFFC00F800
FFFC00F000
007C00F000
007801F000
007801E000
00F803E000
00F003E000
00F003C000
01F007C000
01E0078000
01E00F8000
01E00F8000
03E00F0000
03C01F0FC0
03C01E3FE0
07C01E7FF0
07803E7FF8
07803CF8F8
0F807CF87C
0F807CF07C
0F0078F07C
0F00F8F07C
1F00F0F07C
1E01F0F07C
1E01F0F878
3E01E0F8F8
0003E07FF8
0003C03FF0
0003C03FE0
0007C07FF8
000780F8F8
000F80F878
000F80F07C
000F00F07C
001F00F07C
001E00F07C
003E00F07C
003E00F07C
003C00F87C
007C00FFF8
0078007FF8
0078003FF0
00F8001FE0
0000000200
ENDCHAR
STARTCHAR partialdiff
ENCODING 8706
SWIDTH 428 0
DWIDTH 27 0
BBX 23 46 2 -1
BITMAP
003F00
01FFE0
03FFF0
07FFF8
0FFFFC
0FFFFC
1FE3FE
1FC1FE
1F80FE
3F80FE
3F80FE
3F80FE
0000FE
0000FE
0000FE
0000FE
0000FE
03F0FE
0FFCFE
1FFFFE
3FFFFC
3FFFFC
7FFFFC
7F87FC
7F03FC
7F01FC
7F01FC
7F01FC
7F01FC
FF01FC
FE01FC
FE01FC
FE01FC
FE01FC
FE03F8
FE03F8
FE03F8
FF03F8
FF07F8
7FFFF0
7FFFF0
7FFFF0
3FFFE0
1FFFC0
0FFF80
01FC00
ENDCHAR
STARTCHAR emptyset
ENCODING 8709
SWIDTH 734 0
DWIDTH 47 0
BBX 41 41 3 1
BITMAP
0000FF800800
0007FFF01C00
001FFFFC3E00
007FFFFF7F80
00FFFFFFFF00
03FFFFFFFE00
03FF80FFFC00
07FC001FF800
0FF8000FF800
1FF0001FFC00
1FE0003FFC00
3FC0007FFE00
3F8000FFFE00
3F8001FEFE00
7F0003FC7F00
7F0007F87F00
7F000FF07F00
7E001FF03F00
7E003FE03F00
FE007FC03F00
FE00FF803F80
FE01FF003F80
7E03FE003F00
7E03FC003F00
7F07F8007F00
7F0FF0007F00
7F1FE0007F00
7FBFC000FE00
3FFF8000FE00
3FFF0001FE00
1FFE0003FC00
1FFC0007FC00
0FF8000FF800
0FFC001FF000
1FFF80FFF000
3FFFFFFFC000
7FFFFFFF8000
FF7FFFFF0000
3E3FFFFC0000
1C07FFF00000
0800FF800000
ENDCHAR
STARTCHAR uni2206
ENCODING 8710
SWIDTH 401 0
DWIDTH 26 0
BBX 24 45 1 0
BITMAP
01FF80
01FF80
01FF80
03FF80
03FF80
03FF80
03FFC0
03FFC0
03FFC0
03EFC0
07EFC0
07EFC0
07EFE0
07EFE0
07EFE0
07E7E0
0FC7E0
0FC7E0
0FC7F0
0FC7F0
0FC7F0
0FC7F0
1FC3F0
1F83F0
1F83F8
1F83F8
1F83F8
1F83F8
3F83F8
3F81F8
3F01FC
3F01FC
3F01FC
3F01FC
7F01FC
7F01FC
7F00FE
7E00FE
7E00FE
7FFFFE
FFFFFE
FFFFFE
FFFFFE
FFFFFF
FFFFFF
ENDCHAR
STARTCHAR product
ENCODING 8719
SWIDTH 465 0
DWIDTH 30 0
BBX 24 54 3 -10
BITMAP
FFFFFF
FFFFFF
FFFFFF
FFFFFF
FFFFFF
FFFFFF
FE007F
FE007F
FE007F
FE007F
FE007F
FE007F
FE007F
FE007F
FE007F
FE007F
FE007F
FE007F
FE007F
FE007F
FE007F
FE007F
FE007F
FE007F
FE007F
FE007F
FE007F
FE007F
FE007F
FE007F
FE007F
FE007F
FE007F
FE007F
FE007F
FE007F
FE007F
FE007F
FE007F
FE007F
FE007F
FE007F
FE007F
FE007F
FE007F
FE007F
FE007F
FE007F
FE007F
FE007F
FE007F
FE007F
FE007F
FE007F
ENDCHAR
STARTCHAR summation
ENCODING 8721
SWIDTH 411 0
DWIDTH 26 0
BBX 23 55 2 -10
BITMAP
FFFFFE
FFFFFE
FFFFFE
FFFFFE
FFFFFE
FFFFFE
FE0000
FF0000
7F0000
7F8000
3F8000
3FC000
1FC000
0FE000
0FE000
07F000
07F800
03F800
03FC00
01FC00
01FE00
00FE00
007F00
007F00
003F80
003F80
001FC0
001FC0
001FC0
003FC0
003F80
007F80
007F00
00FE00
00FE00
01FC00
03FC00
03F800
07F800
07F000
0FF000
0FE000
1FE000
1FC000
3F8000
7F8000
7F0000
FF0000
FE0000
FFFFFE
FFFFFE
FFFFFE
FFFFFE
FFFFFE
FFFFFE
ENDCHAR
STARTCHAR minus
ENCODING 8722
SWIDTH 400 0
DWIDTH 26 0
BBX 22 5 2 20
BITMAP
FFFFFC
FFFFFC
FFFFFC
FFFFFC
FFFFFC
ENDCHAR
STARTCHAR uni2215
ENCODING 8725
SWIDTH 400 0
DWIDTH 26 0
BBX 24 45 1 0
BITMAP
00003F
00003E
00007E
00007C
0000FC
0000F8
0000F8
0001F8
0001F0
0003F0
0003E0
0003E0
0007E0
0007C0
000FC0
000F80
000F80
001F80
001F00
003F00
003E00
003E00
007E00
007C00
00FC00
00F800
00F800
01F000
01F000
03F000
03E000
07E000
07C000
07C000
0FC000
0F8000
1F8000
1F0000
1F0000
3F0000
3E0000
7E0000
7C0000
7C0000
FC0000
ENDCHAR
STARTCHAR uni2219
ENCODING 8729
SWIDTH 220 0
DWIDTH 14 0
BBX 8 8 3 18
BITMAP
FF
FF
FF
FF
FF
FF
FF
FF
ENDCHAR
STARTCHAR radical
ENCODING 8730
SWIDTH 475 0
DWIDTH 30 0
BBX 28 49 1 -4
BITMAP
000001F0
000001F0
000003F0
000003F0
000003E0
000003E0
000003E0
000007E0
000007C0
000007C0
000007C0
00000FC0
00000F80
00000F80
00000F80
00001F80
00001F80
00001F00
00001F00
00001F00
FFC03F00
FFC03E00
FFC03E00
FFC03E00
FFE07E00
0FE07C00
07E07C00
07E07C00
07E0FC00
07F0F800
03F0F800
03F0F800
03F1F800
03F9F000
03F9F000
01F9F000
01F9F000
01FBE000
01FFE000
00FFE000
00FFE000
00FFE000
00FFC000
00FFC000
007FC000
007FC000
007F8000
007F8000
003F8000
ENDCHAR
STARTCHAR infinity
ENCODING 8734
SWIDTH 643 0
DWIDTH 41 0
BBX 37 22 2 12
BITMAP
03F0007E00
0FFC01FF80
1FFF07FFC0
3FFF8FFFE0
7FFF8FFFF0
7F0FDF87F0
FE07FF01F8
FC03FE01F8
F803FE00F8
F801FC00F8
F800FC00F8
F801F800F8
F801FC00F8
F803FE00F8
FC03FE01F8
FE07FF01F8
7F0FDF87F0
7FFFCFFFF0
3FFF8FFFE0
1FFF07FFE0
0FFE01FF80
03F8007E00
ENDCHAR
STARTCHAR integral
ENCODING 8747
SWIDTH 400 0
DWIDTH 26 0
BBX 19 59 3 -11
BITMAP
000FC0
007FE0
00FFE0
00FFE0
01FFE0
01FFE0
03FE60
03FC00
03F800
03F800
03F800
03F800
03F800
03F800
03F800
03F800
03F800
03F800
03F800
03F800
03F800
03F800
03F800
03F800
03F800
03F800
03F800
03F800
03F800
03F800
03F800
03F800
03F800
03F800
03F800
03F800
03F800
03F800
03F800
03F800
03F800
03F800
03F800
03F800
03F800
03F800
03F800
03F800
03F800
03F800
03F800
03F800
CFF800
FFF800
FFF000
FFF000
FFE000
FFC000
7F0000
ENDCHAR
STARTCHAR approxequal
ENCODING 8776
SWIDTH 400 0
DWIDTH 26 0
BBX 24 20 1 12
BITMAP
07C008
1FE01C
3FF83F
3FFC7E
7FFFFE
FC7FFC
F81FF8
780FF0
3003E0
000000
000000
07C008
1FE01C
3FF83F
3FFC7E
7FFFFE
FC7FFC
F81FF8
780FF0
3003E0
ENDCHAR
STARTCHAR notequal
ENCODING 8800
SWIDTH 400 0
DWIDTH 26 0
BBX 21 27 2 9
BITMAP
0000F8
0001F0
0001F0
0003E0
0003E0
0007C0
FFFFF8
FFFFF8
FFFFF8
FFFFF8
FFFFF8
003E00
007C00
00F800
00F800
01F000
FFFFF8
FFFFF8
FFFFF8
FFFFF8
FFFFF8
1F0000
1F0000
3E0000
3E0000
7C0000
FC0000
ENDCHAR
STARTCHAR lessequal
ENCODING 8804
SWIDTH 400 0
DWIDTH 26 0
BBX 19 25 3 10
BITMAP
000020
0000E0
0007E0
003FE0
01FFE0
07FFE0
3FFF00
FFF800
FFC000
FE0000
FFC000
FFF800
7FFF00
0FFFE0
01FFE0
003FE0
0007E0
0000E0
000020
000000
FFFFE0
FFFFE0
FFFFE0
FFFFE0
FFFFE0
ENDCHAR
STARTCHAR greaterequal
ENCODING 8805
SWIDTH 400 0
DWIDTH 26 0
BBX 20 25 3 10
BITMAP
800000
F00000
FC0000
FF8000
FFF000
FFFE00
1FFFC0
01FFF0
003FF0
0007F0
003FF0
01FFF0
0FFFC0
7FFE00
FFF800
FFC000
FE0000
F00000
800000
000000
FFFFF0
FFFFF0
FFFFF0
FFFFF0
FFFFF0
ENDCHAR
STARTCHAR lozenge
ENCODING 9674
SWIDTH 400 0
DWIDTH 26 0
BBX 23 46 1 -1
BITMAP
003800
003C00
003C00
007C00
007E00
00FE00
00FF00
01FF00
01FF80
03FF80
03EFC0
07E7C0
07E7C0
07C7E0
0FC3E0
0F83F0
1F81F0
1F81F8
3F00F8
3F00FC
7E00FC
7E007E
7C007E
FC007E
7E007E
7E007C
3E00FC
3F00F8
1F01F8
1F81F0
0F81F0
0FC3F0
07C3E0
07C7E0
07E7C0
03EFC0
03FF80
01FF80
01FF00
00FF00
00FE00
007E00
007E00
003C00
003C00
003800
ENDCHAR
STARTCHAR circle
ENCODING 9675
SWIDTH 738 0
DWIDTH 47 0
BBX 45 46 1 -1
BITMAP
00003FF00000
0003FFFE0000
000FFFFF8000
003FFFFFE000
007FC01FF000
00FE0003F800
01F80000FE00
03F000007E00
07E000003F00
0FC000001F80
0F8000000FC0
1F00000007C0
1F00000003E0
3E00000003E0
3E00000001E0
7C00000001F0
7C00000001F0
7C00000000F0
7800000000F8
7800000000F8
F800000000F8
F800000000F8
F800000000F8
F800000000F8
F800000000F8
F800000000F8
7800000000F8
7800000000F8
7C00000000F0
7C00000001F0
7C00000001F0
3E00000001E0
3E00000003E0
1F00000003E0
1F00000007C0
0F8000000FC0
0FC000001F80
07E000003F00
03F000007E00
01F80000FE00
00FE0003F800
007FC01FF000
003FFFFFE000
000FFFFF8000
0003FFFE0000
00003FF00000
ENDCHAR
STARTCHAR uniE0FF
ENCODING 57599
SWIDTH 500 0
DWIDTH 32 0
BBX 1 1 0 0
BITMAP
00
ENDCHAR
STARTCHAR uniEFFD
ENCODING 61437
SWIDTH 500 0
DWIDTH 32 0
BBX 1 1 0 0
BITMAP
00
ENDCHAR
STARTCHAR uniF000
ENCODING 61440
SWIDTH 500 0
DWIDTH 32 0
BBX 1 1 0 0
BITMAP
00
ENDCHAR
STARTCHAR uniF8FF
ENCODING 63743
SWIDTH 634 0
DWIDTH 41 0
BBX 38 36 1 3
BITMAP
00000FFC00
00000FFC00
00000FFC00
00000FFC00
00000FFC00
00000FFC00
00000FFC00
001FFFFFFC
00FFFFFFFC
01FFFFFFFC
07FFFFFFFC
0FFFFFFFFC
1FFFFFFFFC
1FFFFFFFFC
3FFFFFFFFC
3FFFFFFFFC
7FFFFFFFFC
7FF80FFC00
7FF00FFC00
7FE00FFC00
FFE00FFC00
FFE00FFC00
FFE01FFC00
7FE01FF800
7FF01FF800
7FF87FF800
7FFFFFF800
3FFFFFF000
3FFFFFF000
1FFFFFE000
1FFFFFE000
0FFFFFC000
07FFFF8000
03FFFF0000
00FFFC0000
001FE00000
ENDCHAR
STARTCHAR .notdef
ENCODING -1
SWIDTH 738 0
DWIDTH 47 0
BBX 41 45 3 0
BITMAP
FFFFFFFFFF80
FFFFFFFFFF80
FFFFFFFFFF80
FC0000001F80
FE0000003F80
FF0000007F80
FF8000007B80
F7C00000F380
F3C00001E380
F1E00003C380
F0F000078380
F078000F8380
F03C001F0380
F03E003E0380
F01F003C0380
F00F00780380
F00780F00380
F003C1E00380
F001E3C00380
F000F7800380
F0007F800380
F0003F000380
F0003E000380
F0003F000380
F0007F000380
F000F7800380
F001E3C00380
F003C1E00380
F007C0F00380
F00F80780380
F00F007C0380
F01E003E0380
F03C001E0380
F078000F0380
F0F000078380
F1E00003C380
F3C00001E380
F7C00000F380
FF8000007B80
FF0000007F80
FE0000003F80
FC0000001F80
FFFFFFFFFF80
FFFFFFFFFF80
FFFFFFFFFF80
ENDCHAR
STARTCHAR NULL
ENCODING -1
SWIDTH 0 0
DWIDTH 0 0
BBX 1 1 0 0
BITMAP
00
ENDCHAR
STARTCHAR uni00A40301
ENCODING -1
SWIDTH 265 0
DWIDTH 17 0
BBX 17 55 1 0
BITMAP
007F80
007F00
00FE00
01FC00
01F800
03F000
07E000
000000
000000
000000
03FC00
03FC00
03FC00
03FC00
03FC00
03FC00
03FC00
03FC00
03FC00
03FC00
03FC00
03FC00
03FC00
03FC00
03FC00
03FC00
03FC00
03FC00
03FC00
03FC00
03FC00
03FC00
03FC00
03FC00
03FC00
03FC00
03FC00
03FC00
03FC00
03FC00
03FC00
03FC00
03FC00
03FC00
03FC00
03F800
03F800
07F800
FFF800
FFF800
FFF000
FFF000
FFE000
FFC000
FE0000
ENDCHAR
STARTCHAR i.loclTRK
ENCODING -1
SWIDTH 192 0
DWIDTH 12 0
BBX 7 54 3 0
BITMAP
FC
FC
FC
FC
FC
FC
00
00
00
FE
FE
FE
FE
FE
FE
FE
FE
FE
FE
FE
FE
FE
FE
FE
FE
FE
FE
FE
FE
FE
FE
FE
FE
FE
FE
FE
FE
FE
FE
FE
FE
FE
FE
FE
FE
FE
FE
FE
FE
FE
FE
FE
FE
FE
ENDCHAR
STARTCHAR uni006A0301
ENCODING -1
SWIDTH 265 0
DWIDTH 17 0
BBX 17 55 1 0
BITMAP
007F80
007F00
00FE00
01FC00
01F800
03F000
07E000
000000
000000
000000
03FC00
03FC00
03FC00
03FC00
03FC00
03FC00
03FC00
03FC00
03FC00
03FC00
03FC00
03FC00
03FC00
03FC00
03FC00
03FC00
03FC00
03FC00
03FC00
03FC00
03FC00
03FC00
03FC00
03FC00
03FC00
03FC00
03FC00
03FC00
03FC00
03FC00
03FC00
03FC00
03FC00
03FC00
03FC00
03F800
03F800
07F800
FFF800
FFF800
FFF000
FFF000
FFE000
FFC000
FE0000
ENDCHAR
STARTCHAR zero.lf
ENCODING -1
SWIDTH 400 0
DWIDTH 26 0
BBX 21 47 2 -1
BITMAP
002000
03FF00
0FFFC0
1FFFE0
3FFFF0
7FFFF0
7FFFF8
7F87F8
FF03F8
FE03F8
FE03F8
FE03F8
FE03F8
FE03F8
FE03F8
FE03F8
FE03F8
FE03F8
FE03F8
FE03F8
FE03F8
FE03F8
FE03F8
FE03F8
FE03F8
FE03F8
FE03F8
FE03F8
FE03F8
FE03F8
FE03F8
FE03F8
FE03F8
FE03F8
FE03F8
FE03F8
FE03F8
FE03F8
FF03F8
7F87F8
7FFFF8
7FFFF0
3FFFF0
1FFFE0
0FFFC0
03FF00
002000
ENDCHAR
STARTCHAR one.lf
ENCODING -1
SWIDTH 291 0
DWIDTH 19 0
BBX 15 45 1 0
BITMAP
003E
007E
00FE
01FE
07FE
FFFE
FFFE
FFFE
FFFE
FFFE
00FE
00FE
00FE
00FE
00FE
00FE
00FE
00FE
00FE
00FE
00FE
00FE
00FE
00FE
00FE
00FE
00FE
00FE
00FE
00FE
00FE
00FE
00FE
00FE
00FE
00FE
00FE
00FE
00FE
00FE
00FE
00FE
00FE
00FE
00FE
ENDCHAR
STARTCHAR two.lf
ENCODING -1
SWIDTH 372 0
DWIDTH 24 0
BBX 21 46 2 0
BITMAP
002000
07FE00
1FFF80
3FFFC0
7FFFE0
7FFFE0
FFFFF0
FF0FF0
FE07F0
FC07F0
FC07F0
FC07F8
FC07F8
FC07F0
FC07F0
FC07F0
0007F0
000FF0
000FE0
001FE0
001FC0
003FC0
007F80
00FF00
01FE00
03FE00
07FC00
07F800
0FF000
1FE000
3FC000
3F8000
7F8000
7F0000
FE0000
FE0000
FE0000
FE0000
FE0000
FE0000
FFFFF0
FFFFF0
FFFFF0
FFFFF0
FFFFF0
FFFFF0
ENDCHAR
STARTCHAR three.lf
ENCODING -1
SWIDTH 374 0
DWIDTH 24 0
BBX 21 47 1 -1
BITMAP
002000
03FF00
0FFFC0
1FFFE0
3FFFE0
3FFFF0
7FFFF0
7F8FF8
7F07F8
7E03F8
FE03F8
FE03F8
FE03F8
FE03F8
0003F8
0003F8
0003F8
0007F0
000FF0
01FFE0
01FFE0
01FF80
01FF80
01FFE0
01FFE0
003FF0
0007F8
0003F8
0003F8
0003F8
0003F8
0003F8
FE03F8
FE03F8
FE03F8
FE03F8
FE03F8
FE03F8
7F03F8
7F87F8
7FFFF0
7FFFF0
3FFFE0
1FFFE0
0FFFC0
03FF00
002000
ENDCHAR
STARTCHAR four.lf
ENCODING -1
SWIDTH 398 0
DWIDTH 25 0
BBX 24 45 1 0
BITMAP
000FF0
000FF0
000FF0
001FF0
001FF0
003FF0
003FF0
003FF0
007FF0
007FF0
00FFF0
00FFF0
01FFF0
01FFF0
01FFF0
03F7F0
03F7F0
07E7F0
07E7F0
0FE7F0
0FC7F0
0FC7F0
1F87F0
1F87F0
3F87F0
3F07F0
3F07F0
7F07F0
7E07F0
FE07F0
FC07F0
FFFFFF
FFFFFF
FFFFFF
FFFFFF
FFFFFF
FFFFFF
0007F0
0007F0
0007F0
0007F0
0007F0
0007F0
0007F0
0007F0
ENDCHAR
STARTCHAR five.lf
ENCODING -1
SWIDTH 382 0
DWIDTH 24 0
BBX 21 46 2 -1
BITMAP
7FFFF0
7FFFF0
7FFFF0
7FFFF0
7FFFF0
7FFFF0
7E0000
7E0000
7E0000
7E0000
7E0000
FE0000
FE0000
FE0000
FE7F80
FEFFC0
FFFFE0
FFFFF0
FFFFF0
FFFFF0
FF0FF8
FE07F8
FE03F8
FE03F8
FC03F8
0003F8
0003F8
0003F8
0003F8
0003F8
0003F8
FC03F8
FC03F8
FC03F8
FC03F8
FC03F8
FE03F8
FE07F0
FF0FF0
7FFFF0
7FFFF0
3FFFE0
3FFFC0
1FFF80
07FE00
006000
ENDCHAR
STARTCHAR six.lf
ENCODING -1
SWIDTH 393 0
DWIDTH 25 0
BBX 22 47 2 -1
BITMAP
002000
07FF00
0FFFC0
1FFFE0
3FFFF0
7FFFF0
7FFFF8
7F87F8
FF03F8
FE01F8
FE01F8
FE01F8
FE0000
FE0000
FE0000
FE0000
FE0000
FE3FC0
FE7FE0
FEFFF0
FFFFF0
FFFFF8
FFFFF8
FF87F8
FF03F8
FE03F8
FE03F8
FE03FC
FE03FC
FE03FC
FE03FC
FE03FC
FE03FC
FE03FC
FE03FC
FE03F8
FE03F8
FE03F8
FF03F8
7F87F8
7FFFF8
7FFFF0
3FFFF0
1FFFE0
0FFFC0
03FF00
002000
ENDCHAR
STARTCHAR seven.lf
ENCODING -1
SWIDTH 356 0
DWIDTH 23 0
BBX 21 45 1 0
BITMAP
FFFFF8
FFFFF8
FFFFF8
FFFFF8
FFFFF8
FFFFF8
0003F8
0003F8
0007F0
0007F0
0007F0
000FE0
000FE0
000FE0
000FE0
001FC0
001FC0
001FC0
003F80
003F80
003F80
003F80
007F00
007F00
007F00
00FE00
00FE00
00FE00
00FE00
01FC00
01FC00
01FC00
03F800
03F800
03F800
07F800
07F000
07F000
07F000
0FE000
0FE000
0FE000
1FE000
1FC000
1FC000
ENDCHAR
STARTCHAR eight.lf
ENCODING -1
SWIDTH 396 0
DWIDTH 25 0
BBX 22 47 2 -1
BITMAP
002000
07FF00
0FFFC0
1FFFE0
3FFFF0
7FFFF0
7FFFF8
FF87F8
FF03F8
FE03F8
FE03F8
FE03F8
FE03F8
FE03F8
FE03F8
FE03F8
FE03F8
FF03F8
7F87F0
7FFFF0
3FFFE0
1FFFC0
0FFFC0
3FFFE0
7FFFF0
7FFFF0
FF07F8
FE03F8
FE03F8
FE01FC
FE01FC
FE01FC
FE01FC
FE01FC
FE01FC
FE01FC
FE01FC
FE03FC
FF03F8
FF87F8
FFFFF8
7FFFF0
3FFFF0
3FFFE0
1FFFC0
07FF00
002000
ENDCHAR
STARTCHAR nine.lf
ENCODING -1
SWIDTH 393 0
DWIDTH 25 0
BBX 21 47 2 -1
BITMAP
002000
07FF00
1FFF80
3FFFC0
3FFFE0
7FFFF0
7FFFF0
FF0FF8
FE07F8
FE03F8
FE03F8
FE03F8
FE03F8
FE03F8
FE03F8
FE03F8
FE03F8
FE03F8
FE03F8
FE03F8
FE03F8
FE03F8
FF07F8
FFFFF8
FFFFF8
7FFFF8
7FFFF8
3FFBF8
1FF3F8
0FC3F8
0003F8
0003F8
0003F8
0003F8
FC03F8
FC03F8
FC03F8
FE03F8
FE07F8
FF0FF8
7FFFF0
7FFFF0
3FFFE0
3FFFC0
1FFF80
07FF00
006000
ENDCHAR
STARTCHAR zero.dnom
ENCODING -1
SWIDTH 282 0
DWIDTH 18 0
BBX 14 31 2 -1
BITMAP
0FC0
3FF0
7FF8
7FF8
7C78
F87C
F87C
F87C
F87C
F87C
F87C
F87C
F87C
F87C
F87C
F87C
F87C
F87C
F87C
F87C
F87C
F87C
F87C
F87C
F87C
F87C
7FF8
7FF8
3FF0
1FE0
0300
ENDCHAR
STARTCHAR one.dnom
ENCODING -1
SWIDTH 282 0
DWIDTH 18 0
BBX 9 29 4 0
BITMAP
0380
0780
0780
1F80
FF80
FF80
FF80
0F80
0F80
0F80
0F80
0F80
0F80
0F80
0F80
0F80
0F80
0F80
0F80
0F80
0F80
0F80
0F80
0F80
0F80
0F80
0F80
0F80
0F80
ENDCHAR
STARTCHAR two.dnom
ENCODING -1
SWIDTH 282 0
DWIDTH 18 0
BBX 14 29 2 0
BITMAP
0FC0
3FF0
3FF8
7FF8
78F8
787C
F87C
F87C
F87C
0078
0078
00F8
01F0
01F0
03E0
07C0
0F80
1F80
1F00
3E00
7C00
7800
7800
7800
F800
FFF8
FFF8
FFF8
FFF8
ENDCHAR
STARTCHAR three.dnom
ENCODING -1
SWIDTH 282 0
DWIDTH 18 0
BBX 13 31 2 -1
BITMAP
0FC0
3FE0
7FF0
7FF8
78F8
F878
F078
F078
F078
0078
0078
0078
00F8
07F0
07E0
07E0
07F0
00F8
0078
0078
0078
F078
F078
F078
F078
F878
7FF8
7FF8
3FF0
1FE0
0200
ENDCHAR
STARTCHAR four.dnom
ENCODING -1
SWIDTH 282 0
DWIDTH 18 0
BBX 16 29 1 0
BITMAP
00F8
00F8
00F8
01F8
01F8
03F8
03F8
03F8
07F8
07F8
0F78
0F78
0E78
1E78
1E78
3C78
3C78
7878
7878
7878
FFFF
FFFF
FFFF
FFFF
0078
0078
0078
0078
0078
ENDCHAR
STARTCHAR five.dnom
ENCODING -1
SWIDTH 282 0
DWIDTH 18 0
BBX 14 30 2 -1
BITMAP
7FF8
7FF8
7FF8
7FF8
7800
7800
7800
7800
7800
79E0
7FF0
7FF8
7FF8
78FC
787C
F87C
F87C
007C
007C
007C
007C
F87C
F87C
F87C
787C
7FF8
7FF8
3FF0
1FE0
0300
ENDCHAR
STARTCHAR six.dnom
ENCODING -1
SWIDTH 282 0
DWIDTH 18 0
BBX 14 31 2 -1
BITMAP
0FC0
3FF0
3FF8
7FF8
7C78
F87C
F83C
F83C
F800
F800
F800
F800
F9E0
FBF8
FFF8
FFFC
FC7C
F87C
F87C
F87C
F87C
F87C
F87C
F87C
F87C
787C
7FF8
7FF8
3FF0
1FE0
0300
ENDCHAR
STARTCHAR seven.dnom
ENCODING -1
SWIDTH 282 0
DWIDTH 18 0
BBX 14 29 2 0
BITMAP
FFFC
FFFC
FFFC
FFFC
007C
0078
0078
00F8
00F0
00F0
01F0
01F0
01E0
01E0
03E0
03C0
03C0
07C0
07C0
0780
0780
0F80
0F00
0F00
1F00
1F00
1E00
1E00
3E00
ENDCHAR
STARTCHAR eight.dnom
ENCODING -1
SWIDTH 282 0
DWIDTH 18 0
BBX 14 31 2 -1
BITMAP
0FC0
3FF0
7FF8
7FF8
F87C
F87C
F87C
F83C
F83C
F83C
F87C
F87C
7878
7FF8
3FF0
3FF0
7FF8
7878
F87C
F87C
F83C
F83C
F83C
F87C
F87C
F87C
7FF8
7FF8
3FF0
1FE0
0300
ENDCHAR
STARTCHAR nine.dnom
ENCODING -1
SWIDTH 282 0
DWIDTH 18 0
BBX 14 31 2 -1
BITMAP
0FC0
3FE0
7FF0
7FF8
F8F8
F87C
F87C
F87C
F87C
F87C
F87C
F87C
F87C
F87C
F8FC
FFFC
7FFC
3FFC
1E7C
007C
007C
007C
007C
F07C
F07C
F878
7FF8
7FF8
3FF0
1FE0
0200
ENDCHAR
STARTCHAR zero.numr
ENCODING -1
SWIDTH 282 0
DWIDTH 18 0
BBX 14 30 2 16
BITMAP
0100
1FE0
3FF0
7FF8
7FF8
F87C
F87C
F87C
F87C
F87C
F87C
F87C
F87C
F87C
F87C
F87C
F87C
F87C
F87C
F87C
F87C
F87C
F87C
F87C
F87C
7C7C
7FF8
7FF8
3FF0
0FC0
ENDCHAR
STARTCHAR one.numr
ENCODING -1
SWIDTH 282 0
DWIDTH 18 0
BBX 9 29 4 16
BITMAP
0380
0780
0780
1F80
FF80
FF80
FF80
0F80
0F80
0F80
0F80
0F80
0F80
0F80
0F80
0F80
0F80
0F80
0F80
0F80
0F80
0F80
0F80
0F80
0F80
0F80
0F80
0F80
0F80
ENDCHAR
STARTCHAR two.numr
ENCODING -1
SWIDTH 282 0
DWIDTH 18 0
BBX 14 30 2 16
BITMAP
0100
1FE0
3FF0
7FF8
7FF8
787C
F87C
F87C
F87C
F87C
0078
00F8
00F8
01F0
03F0
03E0
07C0
0F80
1F00
3F00
3E00
7C00
7800
7800
7800
F800
FFF8
FFF8
FFF8
FFF8
ENDCHAR
STARTCHAR three.numr
ENCODING -1
SWIDTH 282 0
DWIDTH 18 0
BBX 13 30 2 16
BITMAP
0200
1FE0
3FF0
7FF8
7FF8
F878
F078
F078
F078
0078
0078
0078
00F8
07F0
07E0
07E0
07F0
00F8
0078
0078
0078
F078
F078
F078
F878
F8F8
7FF8
7FF0
3FE0
0FC0
ENDCHAR
STARTCHAR four.numr
ENCODING -1
SWIDTH 282 0
DWIDTH 18 0
BBX 16 29 1 16
BITMAP
00F8
00F8
00F8
01F8
01F8
03F8
03F8
03F8
07F8
07F8
0F78
0F78
0E78
1E78
1E78
3C78
3C78
7878
7878
7878
FFFF
FFFF
FFFF
FFFF
0078
0078
0078
0078
0078
ENDCHAR
STARTCHAR five.numr
ENCODING -1
SWIDTH 282 0
DWIDTH 18 0
BBX 14 29 2 16
BITMAP
7FF8
7FF8
7FF8
7FF8
7800
7800
7800
7800
7800
79E0
7FF0
7FF8
7FF8
78FC
787C
F87C
007C
007C
007C
007C
F87C
F87C
F87C
787C
78F8
7FF8
3FF8
3FF0
0FC0
ENDCHAR
STARTCHAR six.numr
ENCODING -1
SWIDTH 282 0
DWIDTH 18 0
BBX 14 30 2 16
BITMAP
0100
1FE0
3FF0
7FF8
7FF8
787C
F83C
F83C
F800
F800
F800
F800
F9E0
FBF8
FFF8
FFFC
FC7C
F87C
F87C
F87C
F87C
F87C
F87C
F87C
F87C
7C7C
7FF8
3FF8
3FF0
0FC0
ENDCHAR
STARTCHAR seven.numr
ENCODING -1
SWIDTH 282 0
DWIDTH 18 0
BBX 14 28 2 17
BITMAP
FFFC
FFFC
FFFC
FFFC
007C
0078
0078
00F8
00F0
00F0
01F0
01E0
01E0
01E0
03E0
03C0
03C0
07C0
0780
0780
0F80
0F80
0F00
0F00
1F00
1E00
1E00
3E00
ENDCHAR
STARTCHAR eight.numr
ENCODING -1
SWIDTH 282 0
DWIDTH 18 0
BBX 14 30 2 16
BITMAP
0100
1FE0
3FF0
7FF8
7FF8
F87C
F87C
F83C
F83C
F83C
F87C
F87C
7878
7FF8
3FF0
3FF0
7FF8
7878
F87C
F87C
F83C
F83C
F83C
F87C
F87C
F87C
7FF8
7FF8
3FF0
0FC0
ENDCHAR
STARTCHAR nine.numr
ENCODING -1
SWIDTH 282 0
DWIDTH 18 0
BBX 14 30 2 16
BITMAP
0200
1FE0
3FF0
7FF8
7FF8
F878
F87C
F87C
F87C
F87C
F87C
F87C
F87C
F87C
F8FC
FFFC
7FFC
7FFC
1E7C
007C
007C
007C
F07C
F07C
F87C
F8F8
7FF8
7FF0
3FF0
0FC0
ENDCHAR
STARTCHAR uni030C.alt
ENCODING -1
SWIDTH 0 0
DWIDTH 0 0
BBX 6 13 -3 32
BITMAP
FC
FC
FC
FC
FC
FC
3C
3C
38
78
70
70
F0
ENDCHAR
ENDFONT
